<svg width="26" height="21" viewBox="0 0 26 21" fill="none" xmlns="http://www.w3.org/2000/svg">
<path d="M1.24243 19.4508C1.2312 19.5521 0.831284 19.0776 0.62571 18.8409L0.322403 18.4104C0.275222 18.3245 0.235905 18.2386 0.195464 18.1307C0.0617846 17.7729 0 17.3942 0 17.0144C0 15.8572 0.0651547 15.5446 0.563925 14.0517C0.931263 13.2854 1.81871 11.6031 0.228041 13.2678C0.305553 13.1334 0.385311 12.9991 0.460576 12.8637C1.53001 10.9513 2.91174 9.27786 4.55409 7.81688C6.13914 6.40654 7.91068 5.26814 9.87093 4.41159C10.8438 3.98551 11.8346 3.61779 12.8647 3.35686C14.1341 3.03538 15.4214 2.80748 16.7391 2.92418C17.7816 3.01666 18.7679 3.29741 19.5981 3.9646C20.3788 4.59215 20.8169 5.37383 20.8439 6.39002C20.872 7.44915 20.5125 8.38828 19.9789 9.26355C18.6713 11.4071 16.9256 13.1081 14.6025 14.1937C13.4533 14.7298 12.2412 15.0469 10.9774 15.1757C10.7056 15.2033 10.4315 15.2165 10.1608 15.2495C9.88554 15.2825 9.63166 15.4653 9.60695 15.6481C9.57212 15.9079 9.73276 16.0631 9.93946 16.1842C10.4663 16.4936 11.055 16.5751 11.6481 16.5718C12.6288 16.5663 13.5791 16.3549 14.4969 16.0257C17.1975 15.059 19.5194 13.5188 21.5078 11.4963C23.1456 9.83055 24.2746 7.87523 24.7442 5.59953C24.9014 4.83436 24.8756 4.03175 24.9284 3.24566C24.9396 3.07171 24.8486 2.41443 24.8486 2.21846C25.1486 2.21956 25.3014 2.89335 25.3418 3.07391C25.5328 3.93707 25.6429 4.81344 25.5215 5.69091C25.4261 6.38122 25.2508 7.06051 25.1104 7.74421C25.0902 7.8422 25.0711 7.94129 25.034 8.12405C25.2497 8.05028 25.617 7.47778 25.8496 7.39851C25.8293 7.55044 25.6283 8.1835 25.5856 8.27158C24.979 9.49805 24.2027 10.6144 23.2838 11.6361C21.8515 13.2292 20.2507 14.6429 18.4837 15.8682C17.1267 16.8096 15.6405 17.5219 14.0723 18.0702C12.7321 18.5392 11.3481 18.8232 9.93272 18.8772C8.54874 18.93 7.18274 18.7561 6.05938 17.8533C5.05623 17.0474 4.70574 15.9772 4.94951 14.7354C5.32471 12.8186 6.25485 11.1913 7.69499 9.85036C8.8206 8.80224 10.1372 8.03927 11.5717 7.47228C12.7883 6.99225 14.0453 6.65646 15.3495 6.50012C15.3641 6.49792 15.3799 6.49682 15.3945 6.49462C15.7304 6.43406 15.9831 6.26672 15.9842 6.08175C15.9854 5.78339 15.7382 5.6832 15.5158 5.59953C14.7542 5.31438 13.9622 5.19988 13.1489 5.27695C11.0269 5.47732 9.1284 6.248 7.38045 7.42603C5.59881 8.62609 4.04071 10.0562 2.76121 11.7583C1.86253 12.9529 1.16717 14.263 0.854874 15.7317C0.668397 16.6081 0.549321 17.4944 0.780733 18.3884C0.798707 18.4566 1.25367 19.3671 1.24468 19.4519L1.24243 19.4508Z" fill="url(#paint0_linear_644_2635)"/>
<path d="M3.31166 17.5186C3.39141 17.4261 3.54419 17.4514 3.58912 17.5637C3.74752 17.9546 3.86884 18.3542 4.12946 18.6251C4.39232 18.8992 4.8001 19.039 5.20114 19.224C5.32022 19.279 5.33033 19.4453 5.21574 19.5091C5.21125 19.5124 5.20563 19.5146 5.20002 19.5169C5.12251 19.5532 5.02253 19.5444 4.93154 19.5477C4.06655 19.584 3.81941 19.8064 3.69023 20.6508C3.67899 20.7246 3.66214 20.7962 3.6408 20.8798C3.60148 21.0329 3.38243 21.0428 3.33188 20.892L3.31727 20.8501C3.26447 20.6949 3.22965 20.5352 3.19707 20.3745C3.10608 19.9341 2.82524 19.7007 2.395 19.6303C2.22425 19.6027 2.03552 19.6071 1.9142 19.4486C1.85242 19.3682 1.88949 19.2504 1.98385 19.2108C2.06473 19.1756 2.14673 19.1414 2.22986 19.115C2.74211 18.9521 3.03643 18.6185 3.12293 18.0933C3.18135 17.7421 3.20269 17.6419 3.31053 17.5175L3.31166 17.5186Z" fill="url(#paint1_linear_644_2635)"/>
<path d="M19.5835 2.2614C19.7587 2.15901 20.5338 2.05552 20.6641 1.99717C20.9888 1.85074 21.2168 1.63495 21.264 1.27053C21.2719 1.21218 21.2741 1.14172 21.3089 1.09988C21.3719 1.02391 21.4056 0.00551895 21.4842 1.41192e-05C21.5505 -0.00438975 21.719 1.02281 21.7347 1.09988C21.8291 1.55238 22.1211 1.81221 22.5559 1.90469C23.0648 2.01368 23.9994 2.13259 23.0075 2.29553C22.8884 2.33186 22.7828 2.3781 22.6727 2.39682C22.0391 2.50031 21.956 2.58288 21.838 3.20823C21.8032 3.39319 21.7437 3.57375 21.6954 3.75871C21.5853 4.83106 21.4426 3.98001 21.3887 3.44604C21.3258 2.8262 21.018 2.50251 20.4249 2.38361C20.3867 2.3759 19.6992 2.35278 19.5823 2.2625L19.5835 2.2614Z" fill="url(#paint2_linear_644_2635)"/>
<path d="M20.9573 16.2272C21.5179 16.1556 21.5954 15.9585 21.774 15.7273C21.9392 15.5148 21.9695 15.2011 22.0582 14.9236C22.0605 14.9159 22.0627 14.9071 22.0638 14.8994C22.156 14.0285 22.3222 14.8895 22.3919 15.2825C22.4817 15.7934 22.8064 16.0521 23.2984 16.1545C23.34 16.1633 23.6568 16.1985 23.7051 16.2261C24.1005 16.4088 23.2198 16.3505 23.1771 16.4672C22.7322 16.4936 22.5357 16.8624 22.4918 17.2478C22.4772 17.381 22.4065 17.5087 22.3615 17.6397C22.3593 17.6397 22.357 17.6419 22.3548 17.6441C22.238 17.7817 22.147 17.7828 22.0998 17.61C22.0616 17.468 22.029 17.3314 22.0144 17.2698C21.9189 16.8536 21.6954 16.5883 21.2618 16.5002C21.2494 16.498 21.2359 16.4969 21.2236 16.4969C20.3743 16.5299 20.4339 16.3483 20.9551 16.2272H20.9573Z" fill="url(#paint3_linear_644_2635)"/>
<defs>
<linearGradient id="paint0_linear_644_2635" x1="27.1335" y1="9.18677" x2="-1.09845" y2="13.136" gradientUnits="userSpaceOnUse">
<stop stop-color="#D991C6"/>
<stop offset="0.14" stop-color="#C699C5"/>
<stop offset="0.43" stop-color="#95AFC2"/>
<stop offset="0.83" stop-color="#47D1BF"/>
<stop offset="1" stop-color="#26E1BE"/>
</linearGradient>
<linearGradient id="paint1_linear_644_2635" x1="27.1335" y1="9.18677" x2="-1.09845" y2="13.136" gradientUnits="userSpaceOnUse">
<stop stop-color="#D991C6"/>
<stop offset="0.14" stop-color="#C699C5"/>
<stop offset="0.43" stop-color="#95AFC2"/>
<stop offset="0.83" stop-color="#47D1BF"/>
<stop offset="1" stop-color="#26E1BE"/>
</linearGradient>
<linearGradient id="paint2_linear_644_2635" x1="27.1335" y1="9.18677" x2="-1.09845" y2="13.136" gradientUnits="userSpaceOnUse">
<stop stop-color="#D991C6"/>
<stop offset="0.14" stop-color="#C699C5"/>
<stop offset="0.43" stop-color="#95AFC2"/>
<stop offset="0.83" stop-color="#47D1BF"/>
<stop offset="1" stop-color="#26E1BE"/>
</linearGradient>
<linearGradient id="paint3_linear_644_2635" x1="27.1335" y1="9.18677" x2="-1.09845" y2="13.136" gradientUnits="userSpaceOnUse">
<stop stop-color="#D991C6"/>
<stop offset="0.14" stop-color="#C699C5"/>
<stop offset="0.43" stop-color="#95AFC2"/>
<stop offset="0.83" stop-color="#47D1BF"/>
<stop offset="1" stop-color="#26E1BE"/>
</linearGradient>
</defs>
</svg>
