<svg width="36" height="35" viewBox="0 0 36 35" fill="none" xmlns="http://www.w3.org/2000/svg">
<mask id="mask0_343_8187" style="mask-type:alpha" maskUnits="userSpaceOnUse" x="0" y="0" width="36" height="35">
<ellipse cx="18.1444" cy="17.5" rx="17.296" ry="17.5" fill="#D9D9D9"/>
</mask>
<g mask="url(#mask0_343_8187)">
<path d="M35.4405 18.0645C35.4405 27.4177 27.9466 35 18.7024 35C9.45817 35 1.96426 27.4177 1.96426 18.0645C1.96426 8.71131 9.45817 1.12903 18.7024 1.12903C27.9466 1.12903 35.4405 8.71131 35.4405 18.0645Z" fill="url(#paint0_linear_343_8187)"/>
<path d="M34.3246 16.9355C34.3246 26.2887 26.8307 33.871 17.5865 33.871C8.34229 33.871 0.848389 26.2887 0.848389 16.9355C0.848389 7.58227 8.34229 0 17.5865 0C26.8307 0 34.3246 7.58227 34.3246 16.9355Z" fill="url(#paint1_linear_343_8187)"/>
<path d="M15.2811 11.5292C14.4031 11.5292 13.7441 11.7527 13.3062 12.2016C12.8662 12.6506 12.6472 13.2227 12.6472 13.9163C12.6472 14.5237 12.8019 15.0307 13.1113 15.4356C13.4187 15.8405 13.9169 16.101 14.6 16.2172V17.6291C14.0957 17.6291 13.6196 17.527 13.1736 17.3245C12.7255 17.1221 12.3318 16.8545 11.9902 16.5218C11.6487 16.1891 11.3795 15.7982 11.1846 15.3493C10.9897 14.9004 10.8912 14.4233 10.8912 13.9163C10.8912 13.3512 10.9897 12.8389 11.1846 12.3742C11.3795 11.9112 11.6487 11.5168 11.9902 11.1911C12.3318 10.8655 12.7296 10.6137 13.1856 10.4324C13.6417 10.2511 14.1279 10.1613 14.6502 10.1613H24.0426V11.5292H15.2811ZM11.1343 22.34H19.8919C20.7699 22.34 21.4288 22.1165 21.8668 21.6676C22.3068 21.2186 22.5258 20.6465 22.5258 19.9529C22.5258 19.3455 22.3711 18.842 22.0617 18.4442C21.7523 18.0463 21.2561 17.7893 20.573 17.6731V16.2401C21.0773 16.2401 21.5534 16.3422 21.9994 16.5447C22.4454 16.7471 22.8412 17.0147 23.1828 17.3474C23.5243 17.6802 23.7915 18.0745 23.9884 18.5304C24.1833 18.9864 24.2817 19.46 24.2817 19.9529C24.2817 20.518 24.1793 21.032 23.9763 21.495C23.7714 21.958 23.5002 22.3524 23.1587 22.6781C22.8171 23.0037 22.4193 23.2572 21.9633 23.4386C21.5072 23.6199 21.027 23.7097 20.5248 23.7097H11.1343V22.34Z" fill="#E6E6E6"/>
</g>
<defs>
<linearGradient id="paint0_linear_343_8187" x1="-4.50218" y1="-3.79166" x2="50.451" y2="2.12524" gradientUnits="userSpaceOnUse">
<stop stop-color="#26E1BE"/>
<stop offset="0.9375" stop-color="#0A2230"/>
</linearGradient>
<linearGradient id="paint1_linear_343_8187" x1="37.1586" y1="15.3113" x2="-0.88097" y2="19.5838" gradientUnits="userSpaceOnUse">
<stop stop-color="#D991C6"/>
<stop offset="0.14" stop-color="#C699C5"/>
<stop offset="0.43" stop-color="#95AFC2"/>
<stop offset="0.83" stop-color="#47D1BF"/>
<stop offset="1" stop-color="#26E1BE"/>
</linearGradient>
</defs>
</svg>
