<svg width="41" height="40" viewBox="0 0 41 40" fill="none" xmlns="http://www.w3.org/2000/svg">
<path d="M19.9528 39.5C9.21085 39.5 0.5 30.745 0.5 20C0.5 9.25498 9.21085 0.5 19.9528 0.5C30.6947 0.5 39.4056 9.25498 39.4056 20C39.4056 30.745 30.6947 39.5 19.9528 39.5Z" fill="url(#paint0_linear_804_874)" stroke="url(#paint1_linear_804_874)"/>
<path d="M9.24243 28.4508C9.2312 28.5521 8.83128 28.0776 8.62571 27.8409L8.3224 27.4104C8.27522 27.3245 8.2359 27.2386 8.19546 27.1307C8.06178 26.7729 8 26.3942 8 26.0144C8 24.8572 8.06515 24.5446 8.56392 23.0517C8.93126 22.2854 9.81871 20.6031 8.22804 22.2678C8.30555 22.1334 8.38531 21.9991 8.46058 21.8637C9.53001 19.9513 10.9117 18.2779 12.5541 16.8169C14.1391 15.4065 15.9107 14.2681 17.8709 13.4116C18.8438 12.9855 19.8346 12.6178 20.8647 12.3569C22.1341 12.0354 23.4214 11.8075 24.7391 11.9242C25.7816 12.0167 26.7679 12.2974 27.5981 12.9646C28.3788 13.5921 28.8169 14.3738 28.8439 15.39C28.872 16.4492 28.5125 17.3883 27.9789 18.2635C26.6713 20.4071 24.9256 22.1081 22.6025 23.1937C21.4533 23.7298 20.2412 24.0469 18.9774 24.1757C18.7056 24.2033 18.4315 24.2165 18.1608 24.2495C17.8855 24.2825 17.6317 24.4653 17.6069 24.6481C17.5721 24.9079 17.7328 25.0631 17.9395 25.1842C18.4663 25.4936 19.055 25.5751 19.6481 25.5718C20.6288 25.5663 21.5791 25.3549 22.4969 25.0257C25.1975 24.059 27.5194 22.5188 29.5078 20.4963C31.1456 18.8305 32.2746 16.8752 32.7442 14.5995C32.9014 13.8344 32.8756 13.0318 32.9284 12.2457C32.9396 12.0717 32.8486 11.4144 32.8486 11.2185C33.1486 11.2196 33.3014 11.8934 33.3418 12.0739C33.5328 12.9371 33.6429 13.8134 33.5215 14.6909C33.4261 15.3812 33.2508 16.0605 33.1104 16.7442C33.0902 16.8422 33.0711 16.9413 33.034 17.124C33.2497 17.0503 33.617 16.4778 33.8496 16.3985C33.8293 16.5504 33.6283 17.1835 33.5856 17.2716C32.979 18.4981 32.2027 19.6144 31.2838 20.6361C29.8515 22.2292 28.2507 23.6429 26.4837 24.8682C25.1267 25.8096 23.6405 26.5219 22.0723 27.0702C20.7321 27.5392 19.3481 27.8232 17.9327 27.8772C16.5487 27.93 15.1827 27.7561 14.0594 26.8533C13.0562 26.0474 12.7057 24.9772 12.9495 23.7354C13.3247 21.8186 14.2548 20.1913 15.695 18.8504C16.8206 17.8022 18.1372 17.0393 19.5717 16.4723C20.7883 15.9923 22.0453 15.6565 23.3495 15.5001C23.3641 15.4979 23.3799 15.4968 23.3945 15.4946C23.7304 15.4341 23.9831 15.2667 23.9842 15.0818C23.9854 14.7834 23.7382 14.6832 23.5158 14.5995C22.7542 14.3144 21.9622 14.1999 21.1489 14.2769C19.0269 14.4773 17.1284 15.248 15.3805 16.426C13.5988 17.6261 12.0407 19.0562 10.7612 20.7583C9.86253 21.9529 9.16717 23.263 8.85487 24.7317C8.6684 25.6081 8.54932 26.4944 8.78073 27.3884C8.79871 27.4566 9.25367 28.3671 9.24468 28.4519L9.24243 28.4508Z" fill="url(#paint2_linear_804_874)"/>
<path d="M11.3117 26.5186C11.3914 26.4261 11.5442 26.4514 11.5891 26.5637C11.7475 26.9546 11.8688 27.3542 12.1295 27.6251C12.3923 27.8992 12.8001 28.039 13.2011 28.224C13.3202 28.279 13.3303 28.4453 13.2157 28.5091C13.2113 28.5124 13.2056 28.5146 13.2 28.5169C13.1225 28.5532 13.0225 28.5444 12.9315 28.5477C12.0666 28.584 11.8194 28.8064 11.6902 29.6508C11.679 29.7246 11.6621 29.7962 11.6408 29.8798C11.6015 30.0329 11.3824 30.0428 11.3319 29.892L11.3173 29.8501C11.2645 29.6949 11.2297 29.5352 11.1971 29.3745C11.1061 28.9341 10.8252 28.7007 10.395 28.6303C10.2242 28.6027 10.0355 28.6071 9.9142 28.4486C9.85242 28.3682 9.88949 28.2504 9.98385 28.2108C10.0647 28.1756 10.1467 28.1414 10.2299 28.115C10.7421 27.9521 11.0364 27.6185 11.1229 27.0933C11.1813 26.7421 11.2027 26.6419 11.3105 26.5175L11.3117 26.5186Z" fill="url(#paint3_linear_804_874)"/>
<path d="M27.5835 11.2614C27.7587 11.159 28.5338 11.0555 28.6641 10.9972C28.9888 10.8507 29.2168 10.6349 29.264 10.2705C29.2719 10.2122 29.2741 10.1417 29.3089 10.0999C29.3719 10.0239 29.4056 9.00552 29.4842 9.00001C29.5505 8.99561 29.719 10.0228 29.7347 10.0999C29.8291 10.5524 30.1211 10.8122 30.5559 10.9047C31.0648 11.0137 31.9994 11.1326 31.0075 11.2955C30.8884 11.3319 30.7828 11.3781 30.6727 11.3968C30.0391 11.5003 29.956 11.5829 29.838 12.2082C29.8032 12.3932 29.7437 12.5738 29.6954 12.7587C29.5853 13.8311 29.4426 12.98 29.3887 12.446C29.3258 11.8262 29.018 11.5025 28.4249 11.3836C28.3867 11.3759 27.6992 11.3528 27.5823 11.2625L27.5835 11.2614Z" fill="url(#paint4_linear_804_874)"/>
<path d="M28.9573 25.2272C29.5179 25.1556 29.5954 24.9585 29.774 24.7273C29.9392 24.5148 29.9695 24.2011 30.0582 23.9236C30.0605 23.9159 30.0627 23.9071 30.0638 23.8994C30.156 23.0285 30.3222 23.8895 30.3919 24.2825C30.4817 24.7934 30.8064 25.0521 31.2984 25.1545C31.34 25.1633 31.6568 25.1985 31.7051 25.2261C32.1005 25.4088 31.2198 25.3505 31.1771 25.4672C30.7322 25.4936 30.5357 25.8624 30.4918 26.2478C30.4772 26.381 30.4065 26.5087 30.3615 26.6397C30.3593 26.6397 30.357 26.6419 30.3548 26.6441C30.238 26.7817 30.147 26.7828 30.0998 26.61C30.0616 26.468 30.029 26.3314 30.0144 26.2698C29.9189 25.8536 29.6954 25.5883 29.2618 25.5002C29.2494 25.498 29.2359 25.4969 29.2236 25.4969C28.3743 25.5299 28.4339 25.3483 28.9551 25.2272H28.9573Z" fill="url(#paint5_linear_804_874)"/>
<defs>
<linearGradient id="paint0_linear_804_874" x1="8.12509e-07" y1="-14.1852" x2="52.9695" y2="8.10858" gradientUnits="userSpaceOnUse">
<stop offset="0.189667" stop-color="#0A2230"/>
<stop offset="0.677083" stop-color="#000911"/>
</linearGradient>
<linearGradient id="paint1_linear_804_874" x1="0" y1="19.9987" x2="39.9056" y2="19.9987" gradientUnits="userSpaceOnUse">
<stop stop-color="#26E1BE"/>
<stop offset="0.14" stop-color="#000911" stop-opacity="0.5"/>
<stop offset="0.239573" stop-color="#0C4F48" stop-opacity="0.87"/>
<stop offset="0.744802" stop-color="#106359" stop-opacity="0.96"/>
<stop offset="0.817721" stop-color="#011117" stop-opacity="0.6"/>
<stop offset="0.947935" stop-color="#26E1BE"/>
</linearGradient>
<linearGradient id="paint2_linear_804_874" x1="35.1335" y1="18.1868" x2="6.90155" y2="22.136" gradientUnits="userSpaceOnUse">
<stop stop-color="#D991C6"/>
<stop offset="0.14" stop-color="#C699C5"/>
<stop offset="0.43" stop-color="#95AFC2"/>
<stop offset="0.83" stop-color="#47D1BF"/>
<stop offset="1" stop-color="#26E1BE"/>
</linearGradient>
<linearGradient id="paint3_linear_804_874" x1="35.1335" y1="18.1868" x2="6.90155" y2="22.136" gradientUnits="userSpaceOnUse">
<stop stop-color="#D991C6"/>
<stop offset="0.14" stop-color="#C699C5"/>
<stop offset="0.43" stop-color="#95AFC2"/>
<stop offset="0.83" stop-color="#47D1BF"/>
<stop offset="1" stop-color="#26E1BE"/>
</linearGradient>
<linearGradient id="paint4_linear_804_874" x1="35.1335" y1="18.1868" x2="6.90155" y2="22.136" gradientUnits="userSpaceOnUse">
<stop stop-color="#D991C6"/>
<stop offset="0.14" stop-color="#C699C5"/>
<stop offset="0.43" stop-color="#95AFC2"/>
<stop offset="0.83" stop-color="#47D1BF"/>
<stop offset="1" stop-color="#26E1BE"/>
</linearGradient>
<linearGradient id="paint5_linear_804_874" x1="35.1335" y1="18.1868" x2="6.90155" y2="22.136" gradientUnits="userSpaceOnUse">
<stop stop-color="#D991C6"/>
<stop offset="0.14" stop-color="#C699C5"/>
<stop offset="0.43" stop-color="#95AFC2"/>
<stop offset="0.83" stop-color="#47D1BF"/>
<stop offset="1" stop-color="#26E1BE"/>
</linearGradient>
</defs>
</svg>
