<svg width="495" height="352" viewBox="0 0 495 352" fill="none" xmlns="http://www.w3.org/2000/svg">
<g filter="url(#filter0_d_937_1291)">
<line x1="71.6704" y1="2.54898e-08" x2="71.6704" y2="320" stroke="#14343F"/>
</g>
<g filter="url(#filter1_d_937_1291)">
<line x1="172.299" y1="2.54898e-08" x2="172.299" y2="320" stroke="#14343F"/>
</g>
<g filter="url(#filter2_d_937_1291)">
<line x1="272.928" y1="2.54898e-08" x2="272.928" y2="320" stroke="#14343F"/>
</g>
<g filter="url(#filter3_d_937_1291)">
<line x1="374.524" y1="2.54898e-08" x2="374.524" y2="320" stroke="#14343F"/>
</g>
<g filter="url(#filter4_d_937_1291)">
<line x1="474.186" y1="2.54898e-08" x2="474.186" y2="320" stroke="#14343F"/>
</g>
<path d="M77.8739 267.876C60.5607 279.504 21.682 288.425 4.40674 291.432V320H473.686V110C463.814 129.212 439.97 170.143 423.568 180.167C403.066 192.697 389.398 162.625 371.173 163.126C352.949 163.628 343.837 182.172 333.016 201.718C324.359 217.356 316.12 210.907 313.083 205.728C309.096 201.551 298.845 196.205 289.733 208.234C278.343 223.27 263.535 212.745 261.827 208.234C260.118 203.723 247.589 191.695 242.463 193.198C237.338 194.702 233.351 194.702 218.544 229.284C195.763 267.876 179.817 243.819 178.678 243.819C177.767 243.819 171.464 239.475 168.427 237.303C163.681 236.969 153.277 237.804 149.633 243.819C145.076 251.337 146.785 256.85 138.812 259.857C130.839 262.864 130.269 259.857 119.448 253.341C110.792 248.129 97.617 255.513 92.1118 259.857C94.5796 257.685 95.1871 256.248 77.8739 267.876Z" fill="url(#paint0_linear_937_1291)" fill-opacity="0.05"/>
<g filter="url(#filter5_d_937_1291)">
<path d="M4.40674 291C21.0907 288.626 59.5661 280.374 79.9955 266.351C105.532 248.823 108.791 248.599 126.156 257.911C140.048 265.36 146.902 254.301 147.412 248.276C150.817 240.059 163.172 231.186 182.784 248.276C202.396 265.365 223.682 222.166 232.194 200.074C234.748 194.779 242.716 187.366 254.156 200.074C268.457 215.958 276.733 220.478 282.862 215C288.991 209.523 294.545 196.863 306.232 202.762C314.915 207.144 316.976 214.315 326.68 208.838C336.384 203.36 346.865 167.739 360.595 164.157C372.971 160.929 378.613 159.138 402.617 180.5C421.821 197.59 462.673 136.857 472.718 106" stroke="url(#paint1_linear_937_1291)" stroke-width="2.5"/>
</g>
<path d="M156.419 335.273V344H155.362V336.381H155.311L153.18 337.795V336.722L155.362 335.273H156.419ZM162.375 344.119C161.733 344.119 161.186 343.945 160.735 343.595C160.283 343.243 159.938 342.733 159.699 342.065C159.461 341.395 159.341 340.585 159.341 339.636C159.341 338.693 159.461 337.888 159.699 337.22C159.941 336.55 160.287 336.038 160.739 335.686C161.194 335.331 161.739 335.153 162.375 335.153C163.012 335.153 163.556 335.331 164.007 335.686C164.462 336.038 164.809 336.55 165.047 337.22C165.289 337.888 165.409 338.693 165.409 339.636C165.409 340.585 165.29 341.395 165.052 342.065C164.813 342.733 164.468 343.243 164.016 343.595C163.564 343.945 163.017 344.119 162.375 344.119ZM162.375 343.182C163.012 343.182 163.506 342.875 163.858 342.261C164.211 341.648 164.387 340.773 164.387 339.636C164.387 338.881 164.306 338.237 164.144 337.706C163.985 337.175 163.755 336.77 163.454 336.491C163.155 336.213 162.796 336.074 162.375 336.074C161.745 336.074 161.252 336.385 160.897 337.007C160.542 337.626 160.364 338.503 160.364 339.636C160.364 340.392 160.444 341.034 160.603 341.562C160.762 342.091 160.99 342.493 161.289 342.768C161.59 343.044 161.952 343.182 162.375 343.182ZM170.731 334.864L167.919 345.312H166.998L169.811 334.864H170.731ZM175.353 344.119C174.711 344.119 174.164 343.945 173.712 343.595C173.26 343.243 172.915 342.733 172.677 342.065C172.438 341.395 172.319 340.585 172.319 339.636C172.319 338.693 172.438 337.888 172.677 337.22C172.918 336.55 173.265 336.038 173.716 335.686C174.171 335.331 174.716 335.153 175.353 335.153C175.989 335.153 176.533 335.331 176.985 335.686C177.439 336.038 177.786 336.55 178.025 337.22C178.266 337.888 178.387 338.693 178.387 339.636C178.387 340.585 178.268 341.395 178.029 342.065C177.79 342.733 177.445 343.243 176.993 343.595C176.542 343.945 175.995 344.119 175.353 344.119ZM175.353 343.182C175.989 343.182 176.483 342.875 176.836 342.261C177.188 341.648 177.364 340.773 177.364 339.636C177.364 338.881 177.283 338.237 177.121 337.706C176.962 337.175 176.732 336.77 176.431 336.491C176.133 336.213 175.773 336.074 175.353 336.074C174.722 336.074 174.229 336.385 173.874 337.007C173.519 337.626 173.341 338.503 173.341 339.636C173.341 340.392 173.421 341.034 173.58 341.562C173.739 342.091 173.968 342.493 174.266 342.768C174.567 343.044 174.929 343.182 175.353 343.182ZM180.644 344L184.548 336.278V336.21H180.048V335.273H185.639V336.261L181.752 344H180.644Z" fill="#6A96A0"/>
<path d="M256.08 335.273V344H255.023V336.381H254.972L252.841 337.795V336.722L255.023 335.273H256.08ZM259.463 344L263.366 336.278V336.21H258.866V335.273H264.457V336.261L260.571 344H259.463ZM269.748 334.864L266.935 345.312H266.015L268.827 334.864H269.748ZM274.369 344.119C273.727 344.119 273.18 343.945 272.729 343.595C272.277 343.243 271.932 342.733 271.693 342.065C271.455 341.395 271.335 340.585 271.335 339.636C271.335 338.693 271.455 337.888 271.693 337.22C271.935 336.55 272.281 336.038 272.733 335.686C273.188 335.331 273.733 335.153 274.369 335.153C275.006 335.153 275.55 335.331 276.001 335.686C276.456 336.038 276.803 336.55 277.041 337.22C277.283 337.888 277.403 338.693 277.403 339.636C277.403 340.585 277.284 341.395 277.045 342.065C276.807 342.733 276.462 343.243 276.01 343.595C275.558 343.945 275.011 344.119 274.369 344.119ZM274.369 343.182C275.006 343.182 275.5 342.875 275.852 342.261C276.205 341.648 276.381 340.773 276.381 339.636C276.381 338.881 276.3 338.237 276.138 337.706C275.979 337.175 275.749 336.77 275.447 336.491C275.149 336.213 274.79 336.074 274.369 336.074C273.739 336.074 273.246 336.385 272.891 337.007C272.536 337.626 272.358 338.503 272.358 339.636C272.358 340.392 272.438 341.034 272.597 341.562C272.756 342.091 272.984 342.493 273.283 342.768C273.584 343.044 273.946 343.182 274.369 343.182ZM279.661 344L283.565 336.278V336.21H279.065V335.273H284.655V336.261L280.769 344H279.661Z" fill="#6A96A0"/>
<path d="M354.608 344V343.233L357.489 340.08C357.827 339.71 358.106 339.389 358.324 339.116C358.543 338.841 358.705 338.582 358.81 338.341C358.918 338.097 358.972 337.841 358.972 337.574C358.972 337.267 358.898 337.001 358.751 336.777C358.606 336.553 358.407 336.379 358.154 336.257C357.901 336.135 357.617 336.074 357.302 336.074C356.966 336.074 356.674 336.143 356.424 336.283C356.177 336.419 355.985 336.611 355.849 336.858C355.715 337.105 355.648 337.395 355.648 337.727H354.643C354.643 337.216 354.76 336.767 354.996 336.381C355.232 335.994 355.553 335.693 355.959 335.477C356.368 335.261 356.827 335.153 357.336 335.153C357.847 335.153 358.3 335.261 358.695 335.477C359.09 335.693 359.4 335.984 359.624 336.351C359.849 336.717 359.961 337.125 359.961 337.574C359.961 337.895 359.903 338.209 359.786 338.516C359.672 338.82 359.474 339.159 359.189 339.534C358.908 339.906 358.518 340.361 358.018 340.898L356.057 342.994V343.062H360.114V344H354.608ZM362.082 342.21V341.341L365.917 335.273H366.548V336.619H366.122L363.224 341.205V341.273H368.389V342.21H362.082ZM366.19 344V341.946V341.541V335.273H367.196V344H366.19ZM373.688 334.864L370.876 345.312H369.955L372.768 334.864H373.688ZM378.31 344.119C377.668 344.119 377.121 343.945 376.669 343.595C376.217 343.243 375.872 342.733 375.634 342.065C375.395 341.395 375.276 340.585 375.276 339.636C375.276 338.693 375.395 337.888 375.634 337.22C375.875 336.55 376.222 336.038 376.673 335.686C377.128 335.331 377.673 335.153 378.31 335.153C378.946 335.153 379.49 335.331 379.942 335.686C380.396 336.038 380.743 336.55 380.982 337.22C381.223 337.888 381.344 338.693 381.344 339.636C381.344 340.585 381.225 341.395 380.986 342.065C380.747 342.733 380.402 343.243 379.95 343.595C379.499 343.945 378.952 344.119 378.31 344.119ZM378.31 343.182C378.946 343.182 379.44 342.875 379.793 342.261C380.145 341.648 380.321 340.773 380.321 339.636C380.321 338.881 380.24 338.237 380.078 337.706C379.919 337.175 379.689 336.77 379.388 336.491C379.09 336.213 378.73 336.074 378.31 336.074C377.679 336.074 377.186 336.385 376.831 337.007C376.476 337.626 376.298 338.503 376.298 339.636C376.298 340.392 376.378 341.034 376.537 341.562C376.696 342.091 376.925 342.493 377.223 342.768C377.524 343.044 377.886 343.182 378.31 343.182ZM383.602 344L387.505 336.278V336.21H383.005V335.273H388.596V336.261L384.709 344H383.602Z" fill="#6A96A0"/>
<path d="M458.186 344.119C457.624 344.119 457.122 344.023 456.682 343.83C456.244 343.636 455.896 343.368 455.638 343.024C455.382 342.678 455.243 342.276 455.22 341.818H456.294C456.317 342.099 456.414 342.342 456.584 342.547C456.754 342.749 456.977 342.905 457.253 343.016C457.529 343.126 457.834 343.182 458.169 343.182C458.544 343.182 458.877 343.116 459.166 342.986C459.456 342.855 459.683 342.673 459.848 342.44C460.013 342.207 460.095 341.938 460.095 341.631C460.095 341.31 460.016 341.027 459.857 340.783C459.698 340.536 459.465 340.342 459.158 340.203C458.851 340.064 458.476 339.994 458.033 339.994H457.334V339.057H458.033C458.379 339.057 458.683 338.994 458.945 338.869C459.209 338.744 459.415 338.568 459.563 338.341C459.713 338.114 459.789 337.847 459.789 337.54C459.789 337.244 459.723 336.987 459.593 336.768C459.462 336.55 459.277 336.379 459.039 336.257C458.803 336.135 458.524 336.074 458.203 336.074C457.902 336.074 457.618 336.129 457.351 336.24C457.087 336.348 456.871 336.506 456.703 336.713C456.536 336.918 456.445 337.165 456.431 337.455H455.408C455.425 336.997 455.563 336.597 455.821 336.253C456.08 335.906 456.418 335.636 456.835 335.443C457.256 335.25 457.718 335.153 458.22 335.153C458.76 335.153 459.223 335.263 459.61 335.482C459.996 335.697 460.293 335.983 460.5 336.338C460.708 336.693 460.811 337.077 460.811 337.489C460.811 337.98 460.682 338.399 460.423 338.746C460.168 339.092 459.82 339.332 459.379 339.466V339.534C459.931 339.625 460.361 339.859 460.671 340.237C460.98 340.612 461.135 341.077 461.135 341.631C461.135 342.105 461.006 342.531 460.747 342.909C460.492 343.284 460.142 343.58 459.699 343.795C459.256 344.011 458.752 344.119 458.186 344.119ZM466.546 335.273V344H465.489V336.381H465.438L463.308 337.795V336.722L465.489 335.273H466.546ZM472.758 334.864L469.946 345.312H469.025L471.838 334.864H472.758ZM477.38 344.119C476.738 344.119 476.191 343.945 475.739 343.595C475.288 343.243 474.943 342.733 474.704 342.065C474.465 341.395 474.346 340.585 474.346 339.636C474.346 338.693 474.465 337.888 474.704 337.22C474.945 336.55 475.292 336.038 475.744 335.686C476.198 335.331 476.744 335.153 477.38 335.153C478.016 335.153 478.56 335.331 479.012 335.686C479.467 336.038 479.813 336.55 480.052 337.22C480.293 337.888 480.414 338.693 480.414 339.636C480.414 340.585 480.295 341.395 480.056 342.065C479.818 342.733 479.472 343.243 479.021 343.595C478.569 343.945 478.022 344.119 477.38 344.119ZM477.38 343.182C478.016 343.182 478.511 342.875 478.863 342.261C479.215 341.648 479.391 340.773 479.391 339.636C479.391 338.881 479.31 338.237 479.149 337.706C478.989 337.175 478.759 336.77 478.458 336.491C478.16 336.213 477.801 336.074 477.38 336.074C476.749 336.074 476.256 336.385 475.901 337.007C475.546 337.626 475.369 338.503 475.369 339.636C475.369 340.392 475.448 341.034 475.607 341.562C475.766 342.091 475.995 342.493 476.293 342.768C476.595 343.044 476.957 343.182 477.38 343.182ZM482.672 344L486.575 336.278V336.21H482.075V335.273H487.666V336.261L483.78 344H482.672Z" fill="#6A96A0"/>
<path d="M54.6011 344.119C53.959 344.119 53.4122 343.945 52.9604 343.595C52.5087 343.243 52.1636 342.733 51.9249 342.065C51.6863 341.395 51.567 340.585 51.567 339.636C51.567 338.693 51.6863 337.888 51.9249 337.22C52.1664 336.55 52.513 336.038 52.9647 335.686C53.4193 335.331 53.9647 335.153 54.6011 335.153C55.2374 335.153 55.7815 335.331 56.2332 335.686C56.6877 336.038 57.0343 336.55 57.2729 337.22C57.5144 337.888 57.6352 338.693 57.6352 339.636C57.6352 340.585 57.5158 341.395 57.2772 342.065C57.0386 342.733 56.6934 343.243 56.2417 343.595C55.79 343.945 55.2431 344.119 54.6011 344.119ZM54.6011 343.182C55.2374 343.182 55.7318 342.875 56.084 342.261C56.4363 341.648 56.6124 340.773 56.6124 339.636C56.6124 338.881 56.5315 338.237 56.3695 337.706C56.2104 337.175 55.9803 336.77 55.6792 336.491C55.3809 336.213 55.0215 336.074 54.6011 336.074C53.9704 336.074 53.4775 336.385 53.1224 337.007C52.7673 337.626 52.5897 338.503 52.5897 339.636C52.5897 340.392 52.6693 341.034 52.8283 341.562C52.9874 342.091 53.2161 342.493 53.5144 342.768C53.8156 343.044 54.1778 343.182 54.6011 343.182ZM62.8033 344.119C62.2408 344.119 61.7394 344.023 61.2991 343.83C60.8616 343.636 60.5136 343.368 60.2551 343.024C59.9994 342.678 59.8602 342.276 59.8374 341.818H60.9113C60.934 342.099 61.0306 342.342 61.2011 342.547C61.3715 342.749 61.5945 342.905 61.8701 343.016C62.1457 343.126 62.4511 343.182 62.7863 343.182C63.1613 343.182 63.4937 343.116 63.7835 342.986C64.0732 342.855 64.3005 342.673 64.4653 342.44C64.6301 342.207 64.7124 341.938 64.7124 341.631C64.7124 341.31 64.6329 341.027 64.4738 340.783C64.3147 340.536 64.0818 340.342 63.7749 340.203C63.4681 340.064 63.0931 339.994 62.6499 339.994H61.9511V339.057H62.6499C62.9965 339.057 63.3005 338.994 63.5619 338.869C63.8261 338.744 64.032 338.568 64.1798 338.341C64.3303 338.114 64.4056 337.847 64.4056 337.54C64.4056 337.244 64.3403 336.987 64.2096 336.768C64.0789 336.55 63.8943 336.379 63.6556 336.257C63.4198 336.135 63.1414 336.074 62.8204 336.074C62.5193 336.074 62.2352 336.129 61.9681 336.24C61.7039 336.348 61.488 336.506 61.3204 336.713C61.1528 336.918 61.0619 337.165 61.0477 337.455H60.0249C60.042 336.997 60.1798 336.597 60.4383 336.253C60.6968 335.906 61.0349 335.636 61.4525 335.443C61.8729 335.25 62.3346 335.153 62.8374 335.153C63.3772 335.153 63.8403 335.263 64.2266 335.482C64.613 335.697 64.9099 335.983 65.1173 336.338C65.3247 336.693 65.4283 337.077 65.4283 337.489C65.4283 337.98 65.2991 338.399 65.0406 338.746C64.7849 339.092 64.4369 339.332 63.9965 339.466V339.534C64.5477 339.625 64.9781 339.859 65.2877 340.237C65.5974 340.612 65.7522 341.077 65.7522 341.631C65.7522 342.105 65.6229 342.531 65.3644 342.909C65.1087 343.284 64.7593 343.58 64.3161 343.795C63.8729 344.011 63.3687 344.119 62.8033 344.119ZM71.1974 334.864L68.3849 345.312H67.4644L70.2769 334.864H71.1974ZM75.819 344.119C75.177 344.119 74.6301 343.945 74.1784 343.595C73.7267 343.243 73.3815 342.733 73.1429 342.065C72.9043 341.395 72.785 340.585 72.785 339.636C72.785 338.693 72.9043 337.888 73.1429 337.22C73.3844 336.55 73.731 336.038 74.1827 335.686C74.6372 335.331 75.1827 335.153 75.819 335.153C76.4554 335.153 76.9994 335.331 77.4511 335.686C77.9057 336.038 78.2523 336.55 78.4909 337.22C78.7324 337.888 78.8531 338.693 78.8531 339.636C78.8531 340.585 78.7338 341.395 78.4952 342.065C78.2565 342.733 77.9114 343.243 77.4597 343.595C77.008 343.945 76.4611 344.119 75.819 344.119ZM75.819 343.182C76.4554 343.182 76.9497 342.875 77.302 342.261C77.6543 341.648 77.8304 340.773 77.8304 339.636C77.8304 338.881 77.7494 338.237 77.5875 337.706C77.4284 337.175 77.1983 336.77 76.8972 336.491C76.5989 336.213 76.2395 336.074 75.819 336.074C75.1884 336.074 74.6955 336.385 74.3403 337.007C73.9852 337.626 73.8077 338.503 73.8077 339.636C73.8077 340.392 73.8872 341.034 74.0463 341.562C74.2054 342.091 74.4341 342.493 74.7324 342.768C75.0335 343.044 75.3957 343.182 75.819 343.182ZM81.1108 344L85.0142 336.278V336.21H80.5142V335.273H86.1051V336.261L82.2188 344H81.1108Z" fill="#6A96A0"/>
<defs>
<filter id="filter0_d_937_1291" x="67.1704" y="0" width="9" height="328" filterUnits="userSpaceOnUse" color-interpolation-filters="sRGB">
<feFlood flood-opacity="0" result="BackgroundImageFix"/>
<feColorMatrix in="SourceAlpha" type="matrix" values="0 0 0 0 0 0 0 0 0 0 0 0 0 0 0 0 0 0 127 0" result="hardAlpha"/>
<feOffset dy="4"/>
<feGaussianBlur stdDeviation="2"/>
<feComposite in2="hardAlpha" operator="out"/>
<feColorMatrix type="matrix" values="0 0 0 0 0 0 0 0 0 0 0 0 0 0 0 0 0 0 0.25 0"/>
<feBlend mode="normal" in2="BackgroundImageFix" result="effect1_dropShadow_937_1291"/>
<feBlend mode="normal" in="SourceGraphic" in2="effect1_dropShadow_937_1291" result="shape"/>
</filter>
<filter id="filter1_d_937_1291" x="167.799" y="0" width="9" height="328" filterUnits="userSpaceOnUse" color-interpolation-filters="sRGB">
<feFlood flood-opacity="0" result="BackgroundImageFix"/>
<feColorMatrix in="SourceAlpha" type="matrix" values="0 0 0 0 0 0 0 0 0 0 0 0 0 0 0 0 0 0 127 0" result="hardAlpha"/>
<feOffset dy="4"/>
<feGaussianBlur stdDeviation="2"/>
<feComposite in2="hardAlpha" operator="out"/>
<feColorMatrix type="matrix" values="0 0 0 0 0 0 0 0 0 0 0 0 0 0 0 0 0 0 0.25 0"/>
<feBlend mode="normal" in2="BackgroundImageFix" result="effect1_dropShadow_937_1291"/>
<feBlend mode="normal" in="SourceGraphic" in2="effect1_dropShadow_937_1291" result="shape"/>
</filter>
<filter id="filter2_d_937_1291" x="268.428" y="0" width="9" height="328" filterUnits="userSpaceOnUse" color-interpolation-filters="sRGB">
<feFlood flood-opacity="0" result="BackgroundImageFix"/>
<feColorMatrix in="SourceAlpha" type="matrix" values="0 0 0 0 0 0 0 0 0 0 0 0 0 0 0 0 0 0 127 0" result="hardAlpha"/>
<feOffset dy="4"/>
<feGaussianBlur stdDeviation="2"/>
<feComposite in2="hardAlpha" operator="out"/>
<feColorMatrix type="matrix" values="0 0 0 0 0 0 0 0 0 0 0 0 0 0 0 0 0 0 0.25 0"/>
<feBlend mode="normal" in2="BackgroundImageFix" result="effect1_dropShadow_937_1291"/>
<feBlend mode="normal" in="SourceGraphic" in2="effect1_dropShadow_937_1291" result="shape"/>
</filter>
<filter id="filter3_d_937_1291" x="370.024" y="0" width="9" height="328" filterUnits="userSpaceOnUse" color-interpolation-filters="sRGB">
<feFlood flood-opacity="0" result="BackgroundImageFix"/>
<feColorMatrix in="SourceAlpha" type="matrix" values="0 0 0 0 0 0 0 0 0 0 0 0 0 0 0 0 0 0 127 0" result="hardAlpha"/>
<feOffset dy="4"/>
<feGaussianBlur stdDeviation="2"/>
<feComposite in2="hardAlpha" operator="out"/>
<feColorMatrix type="matrix" values="0 0 0 0 0 0 0 0 0 0 0 0 0 0 0 0 0 0 0.25 0"/>
<feBlend mode="normal" in2="BackgroundImageFix" result="effect1_dropShadow_937_1291"/>
<feBlend mode="normal" in="SourceGraphic" in2="effect1_dropShadow_937_1291" result="shape"/>
</filter>
<filter id="filter4_d_937_1291" x="469.686" y="0" width="9" height="328" filterUnits="userSpaceOnUse" color-interpolation-filters="sRGB">
<feFlood flood-opacity="0" result="BackgroundImageFix"/>
<feColorMatrix in="SourceAlpha" type="matrix" values="0 0 0 0 0 0 0 0 0 0 0 0 0 0 0 0 0 0 127 0" result="hardAlpha"/>
<feOffset dy="4"/>
<feGaussianBlur stdDeviation="2"/>
<feComposite in2="hardAlpha" operator="out"/>
<feColorMatrix type="matrix" values="0 0 0 0 0 0 0 0 0 0 0 0 0 0 0 0 0 0 0.25 0"/>
<feBlend mode="normal" in2="BackgroundImageFix" result="effect1_dropShadow_937_1291"/>
<feBlend mode="normal" in="SourceGraphic" in2="effect1_dropShadow_937_1291" result="shape"/>
</filter>
<filter id="filter5_d_937_1291" x="0.230469" y="101.613" width="477.676" height="194.624" filterUnits="userSpaceOnUse" color-interpolation-filters="sRGB">
<feFlood flood-opacity="0" result="BackgroundImageFix"/>
<feColorMatrix in="SourceAlpha" type="matrix" values="0 0 0 0 0 0 0 0 0 0 0 0 0 0 0 0 0 0 127 0" result="hardAlpha"/>
<feOffset/>
<feGaussianBlur stdDeviation="2"/>
<feComposite in2="hardAlpha" operator="out"/>
<feColorMatrix type="matrix" values="0 0 0 0 0.14902 0 0 0 0 0.882353 0 0 0 0 0.745098 0 0 0 0.35 0"/>
<feBlend mode="normal" in2="BackgroundImageFix" result="effect1_dropShadow_937_1291"/>
<feBlend mode="normal" in="SourceGraphic" in2="effect1_dropShadow_937_1291" result="shape"/>
</filter>
<linearGradient id="paint0_linear_937_1291" x1="506.717" y1="336.539" x2="361.299" y2="46.3399" gradientUnits="userSpaceOnUse">
<stop stop-color="#D991C6"/>
<stop offset="0.14" stop-color="#C699C5"/>
<stop offset="0.43" stop-color="#95AFC2"/>
<stop offset="0.83" stop-color="#47D1BF"/>
<stop offset="1" stop-color="#26E1BE"/>
</linearGradient>
<linearGradient id="paint1_linear_937_1291" x1="495.978" y1="186.931" x2="14.3554" y2="325.482" gradientUnits="userSpaceOnUse">
<stop stop-color="#D991C6"/>
<stop offset="0.28125" stop-color="#C699C5"/>
<stop offset="0.515625" stop-color="#95AFC2"/>
<stop offset="0.83" stop-color="#47D1BF"/>
<stop offset="1" stop-color="#26E1BE"/>
</linearGradient>
</defs>
</svg>
