<svg width="22" height="22" viewBox="0 0 22 22" fill="none" xmlns="http://www.w3.org/2000/svg">
<g clip-path="url(#clip0_348_8719)">
<path d="M10.68 0.696411C4.78 0.696411 0 5.39105 0 11.1857C0 16.9803 4.78 21.675 10.68 21.675C16.58 21.675 21.36 16.9803 21.36 11.1857C21.36 5.39105 16.58 0.696411 10.68 0.696411ZM10.68 4.5857C12.64 4.5857 14.23 6.1473 14.23 8.0723C14.23 9.9973 12.64 11.5589 10.68 11.5589C8.72 11.5589 7.13 9.9973 7.13 8.0723C7.13 6.1473 8.72 4.5857 10.68 4.5857ZM10.68 19.2196C8.17 19.2196 5.92 18.1 4.42 16.3518C4.76 14.4955 6.41 13.0714 8.39 13.0714H12.97C14.95 13.0714 16.6 14.4955 16.94 16.3518C15.44 18.1098 13.19 19.2196 10.68 19.2196Z" fill="#6A96A0"/>
</g>
<defs>
<clipPath id="clip0_348_8719">
<rect width="21.37" height="20.9884" fill="white" transform="translate(0 0.696411)"/>
</clipPath>
</defs>
</svg>
