<svg width="110" height="74" viewBox="0 0 110 74" fill="none" xmlns="http://www.w3.org/2000/svg">
<g clip-path="url(#clip0_644_2032)">
<path d="M9.00075 65.5539H3.0479C2.45111 65.5539 2.00318 65.7071 1.70547 66.0147C1.40639 66.3224 1.25754 66.7144 1.25754 67.1898C1.25754 67.606 1.36269 67.9534 1.573 68.2309C1.78195 68.5084 2.12063 68.6869 2.58495 68.7666V69.7341C2.24217 69.7341 1.91851 69.6641 1.61534 69.5254C1.3108 69.3867 1.04313 69.2033 0.810973 68.9753C0.578813 68.7473 0.395817 68.4794 0.263349 68.1718C0.130881 67.8642 0.0639648 67.5372 0.0639648 67.1898C0.0639648 66.8025 0.130881 66.4514 0.263349 66.133C0.395817 65.8157 0.578813 65.5454 0.810973 65.3222C1.04313 65.0991 1.31353 64.9265 1.62353 64.8023C1.93353 64.678 2.26402 64.6165 2.61909 64.6165H9.00348V65.5539H9.00075ZM0.229208 72.9625H6.18205C6.77884 72.9625 7.22677 72.8093 7.52448 72.5016C7.82356 72.194 7.97242 71.8019 7.97242 71.3266C7.97242 70.9104 7.86726 70.5653 7.65695 70.2927C7.44664 70.02 7.10933 69.8439 6.64501 69.7643V68.7822C6.98779 68.7822 7.31144 68.8522 7.61462 68.991C7.91779 69.1297 8.18682 69.3131 8.41898 69.5411C8.65114 69.7691 8.83277 70.0393 8.96661 70.3518C9.09907 70.6643 9.16599 70.9888 9.16599 71.3266C9.16599 71.7138 9.09634 72.0661 8.95841 72.3834C8.81911 72.7007 8.63475 72.9709 8.40259 73.1941C8.17043 73.4173 7.90004 73.591 7.59003 73.7153C7.28003 73.8396 6.95364 73.9011 6.61223 73.9011H0.229208V72.9637V72.9625Z" fill="#E6E6E6" stroke="#E6E6E6" stroke-width="0.92"/>
<path d="M14.8378 73.8999V64.6177H21.3874C21.7302 64.6177 22.0566 64.6901 22.3652 64.8336C22.6752 64.9772 22.9456 65.1714 23.1778 65.4139C23.4099 65.6564 23.5943 65.9471 23.7336 66.2837C23.8715 66.6215 23.9412 66.9835 23.9412 67.3695C23.9412 67.717 23.8743 68.0463 23.7418 68.3588C23.6093 68.6712 23.4263 68.9487 23.1942 69.1912C22.962 69.4349 22.6943 69.6279 22.3898 69.7715C22.0853 69.9151 21.7616 69.9874 21.4202 69.9874H19.679V69.0501H21.2208C21.4858 69.0501 21.7124 68.9958 21.9009 68.886C22.088 68.7774 22.2464 68.6387 22.3734 68.4698C22.5004 68.3009 22.5919 68.1175 22.6466 67.9196C22.7025 67.7218 22.7299 67.5324 22.7299 67.355C22.7299 67.1572 22.6943 66.9509 22.622 66.7374C22.5496 66.5238 22.4485 66.3308 22.3147 66.1571C22.1822 65.9833 22.0184 65.8398 21.8258 65.7264C21.6332 65.6118 21.4147 65.5551 21.1703 65.5551H15.9972V73.8999H14.8364H14.8378Z" fill="#E6E6E6" stroke="#E6E6E6" stroke-width="0.92"/>
<path d="M36.7577 73.8999L32.5788 66.3573L28.9804 72.9625H33.8557L34.5686 73.8999H27.1572L32.5802 64.1267L38.0523 73.8999H36.7591H36.7577Z" fill="#E6E6E6" stroke="#E6E6E6" stroke-width="0.92"/>
<path d="M41.932 69.2588C41.932 68.6145 42.07 68.0065 42.3472 67.4371C42.623 66.8664 42.9959 66.3718 43.467 65.9496C43.9368 65.5285 44.4926 65.1931 45.1331 64.9458C45.7736 64.6985 46.4605 64.5742 47.1898 64.5742C47.7196 64.5742 48.229 64.6406 48.7152 64.7745C49.2014 64.9084 49.6493 65.099 50.059 65.3476C50.4673 65.5961 50.836 65.888 51.1611 66.2258C51.4875 66.5636 51.7551 66.9304 51.9654 67.3273L51.0368 67.8629C50.8702 67.536 50.6585 67.2332 50.3977 66.9557C50.1368 66.6782 49.8418 66.4345 49.51 66.227C49.1781 66.0195 48.8162 65.8579 48.4243 65.7433C48.031 65.6299 47.6254 65.572 47.2048 65.572C46.6408 65.572 46.1054 65.6733 45.5961 65.8772C45.088 66.0799 44.6442 66.3513 44.2686 66.6879C43.8931 67.0257 43.594 67.419 43.3728 67.8702C43.1516 68.3214 43.0409 68.7907 43.0409 69.2757C43.0409 69.7606 43.1516 70.2408 43.3728 70.6823C43.594 71.1239 43.8917 71.5136 44.2686 71.8502C44.6442 72.188 45.0839 72.4558 45.5865 72.6536C46.0891 72.8527 46.623 72.9516 47.187 72.9516C47.5735 72.9516 47.9504 72.9046 48.3151 72.8105C48.6797 72.7164 49.0197 72.5849 49.3352 72.416C49.6507 72.2471 49.9374 72.0468 50.1969 71.8128C50.4564 71.5799 50.6749 71.3193 50.8524 71.0322L51.6486 71.7609C51.1843 72.416 50.5684 72.9432 49.7995 73.3449C49.0307 73.7466 48.1607 73.9469 47.1884 73.9469C46.4591 73.9469 45.7736 73.8227 45.1317 73.5753C44.4912 73.328 43.9354 72.9926 43.4656 72.5716C42.9959 72.1506 42.623 71.6547 42.3458 71.0841C42.0686 70.5134 41.9307 69.9066 41.9307 69.2612L41.932 69.2588Z" fill="#E6E6E6" stroke="#E6E6E6" stroke-width="0.92"/>
<path d="M57.6343 64.6177H65.51V65.5551H58.7951V72.9637H65.51V73.9011H57.6343V64.6177ZM65.3775 69.9886H60.4188V69.0513H65.3775V69.9886Z" fill="#E6E6E6" stroke="#E6E6E6" stroke-width="0.92"/>
<path d="M71.314 73.8999V64.6177H75.6253C76.3546 64.6177 77.0401 64.7395 77.6806 64.982C78.3211 65.2257 78.8769 65.5599 79.3467 65.9858C79.8165 66.4128 80.1893 66.9087 80.4665 67.4733C80.7424 68.0391 80.8817 68.6435 80.8817 69.2877C80.8817 69.9319 80.7328 70.5352 80.4337 71.0949C80.1347 71.6559 79.7427 72.1433 79.2566 72.5607C78.7704 72.9769 78.2146 73.3051 77.5905 73.5428C76.965 73.7804 76.3218 73.8999 75.6581 73.8999H71.314ZM72.4748 72.948H75.6253C76.1333 72.948 76.6386 72.8515 77.1425 72.6585C77.6451 72.4654 78.0903 72.2 78.4768 71.8622C78.8633 71.5256 79.1787 71.1384 79.4218 70.7016C79.6649 70.2649 79.7864 69.7992 79.7864 69.3034C79.7864 68.8076 79.6758 68.3491 79.4546 67.8979C79.2333 67.4467 78.9356 67.0498 78.5601 66.7084C78.1845 66.3658 77.7448 66.0931 77.2422 65.8904C76.7397 65.6878 76.2057 65.5852 75.6417 65.5852H72.4748V72.9492V72.948Z" fill="#26E1BE" stroke="#26E1BE" stroke-width="0.92"/>
<path d="M86.4688 64.6177H94.3444V65.5551H87.6295V72.9637H94.3444V73.9011H86.4688V64.6177ZM94.212 69.9886H89.2533V69.0513H94.212V69.9886Z" fill="#26E1BE" stroke="#26E1BE" stroke-width="0.92"/>
<path d="M99.7686 64.6177H101.029L103.616 69.3034L101.029 73.8999H99.7686L102.306 69.3034L99.7686 64.6177ZM108.64 64.6177H109.9L107.363 69.3034L109.9 73.8999H108.64L106.053 69.3034L108.64 64.6177Z" fill="#26E1BE" stroke="#26E1BE" stroke-width="0.92"/>
</g>
<g clip-path="url(#clip1_644_2032)">
<path d="M11.4543 33.1325C9.49714 32.8033 7.61214 33.5028 6.37607 34.8298C3.85242 36.455 0 45.7128 0 45.7128C0 45.7128 10.589 45.4145 12.9581 43.4189C14.5444 42.6783 15.7496 41.2382 16.0586 39.4278C16.553 36.4653 14.4929 33.6468 11.4543 33.1325Z" fill="url(#paint0_linear_644_2032)"/>
<path d="M24.4328 27.0327C23.7427 25.2737 23.3307 23.4736 23.1453 21.6837L6.01538 22.8975C5.27374 22.9387 4.6042 23.3707 4.27458 24.0393C4.00677 24.5639 3.94497 25.3046 4.25398 25.8395C4.5218 26.3126 5.08833 26.3846 5.54156 26.5698C6.72612 27.0532 7.90039 27.547 9.00255 28.195C10.5682 29.1105 12.0927 30.098 13.576 31.1472C15.2653 32.3507 16.9958 33.616 17.995 35.4778C18.7057 36.8151 19.334 38.6255 19.2928 40.1581C19.2722 40.9296 19.4268 41.5777 19.4474 42.3491C19.4783 44.067 19.4989 45.7848 19.571 47.5026C19.6225 48.809 19.3031 50.6914 21.0336 50.9897C21.1882 51.0206 21.353 51.0309 21.5281 51.0103C22.2697 50.9589 22.929 50.5165 23.2483 49.8479L30.6235 35.3852C27.9556 33.2662 25.7719 30.458 24.4225 27.0532L24.4328 27.0327Z" fill="url(#paint1_linear_644_2032)"/>
<path d="M60.4954 13.7118C60.722 14.113 60.9589 14.5038 61.2061 14.8844C60.7426 14.2364 60.4129 13.7118 60.2275 13.3929L60.4954 13.7324V13.7118ZM68.6431 21.5912C71.6303 23.1239 74.978 23.8645 78.3566 23.6485C74.5042 23.9468 71.2698 23.0107 68.6431 21.5912Z" fill="#FFFF00"/>
<path d="M46.5996 0.421742C46.373 0.360023 46.4863 0.390882 46.5996 0.421742C46.8262 0.493746 47.4133 0.853771 47.6193 0.966921C48.0005 1.17265 48.361 1.39895 48.7009 1.63554C49.2674 2.02642 49.8031 2.44816 50.3181 2.90076C51.1215 3.60024 51.8941 4.33058 52.6254 5.09177C53.7379 6.22327 54.7886 7.39592 55.8289 8.58915C57.271 10.2453 58.6719 11.9425 60.0522 13.6501C61.8033 15.8102 63.5338 17.9909 65.2437 20.1922C68.581 24.4611 71.6609 29.0385 75.7503 32.7005C78.0061 34.7166 80.5503 36.4756 83.3624 37.71C84.6088 38.2551 85.9375 38.6357 87.2972 38.8723C87.4414 38.8929 87.5959 38.8929 87.7401 38.9238C86.329 38.5843 85.3298 37.9465 84.1555 37.1545C82.0851 35.735 80.2928 34.192 78.5417 32.4227C76.8627 30.7255 75.4309 28.8019 73.9785 26.9195C73.0412 25.716 72.1141 24.4919 71.1871 23.2781C69.1991 20.686 67.2111 18.0938 65.1818 15.5325C63.9973 14.0307 62.8024 12.5391 61.5972 11.0785C53.3774 1.0595 46.5996 0.421742 46.5996 0.421742Z" fill="url(#paint2_linear_644_2032)"/>
<path d="M58.8059 32.3199C61.7313 30.1803 65.0481 27.2487 68.9108 28.0408C71.3829 28.5448 72.6705 29.6351 73.9478 30.9518C73.9478 30.9004 73.8242 30.7975 73.7933 30.7666C73.6696 30.6226 73.5357 30.4786 73.4121 30.3346C73.1237 30.0055 72.8456 29.6763 72.5778 29.3368C71.6919 28.1848 70.7134 27.115 69.8481 25.9423C69.055 24.8828 68.3133 23.7822 67.5511 22.7021C67.0361 21.9821 66.521 21.2723 65.9854 20.5728C64.2961 18.3407 62.5965 16.1291 60.866 13.9278C59.5063 12.1997 58.1261 10.4716 56.7046 8.79489C55.6848 7.58109 54.6445 6.38787 53.5526 5.23579C52.8213 4.46431 52.0796 3.70311 51.2865 2.99335C50.7817 2.54075 50.2564 2.09843 49.7002 1.69727C49.3603 1.45039 49.01 1.2138 48.6392 1.00808C48.4538 0.905212 48.186 0.833207 47.9697 0.761202C43.973 -0.380589 39.6056 -0.267439 35.4545 1.35781C25.3393 5.32837 20.4053 16.8286 24.4225 27.0327C28.4398 37.2368 39.9043 42.2874 50.0195 38.3169C52.4504 37.3602 54.5724 35.9716 56.3544 34.2743C57.1475 33.6057 57.9613 32.9371 58.7956 32.3302L58.8059 32.3199Z" fill="url(#paint3_linear_644_2032)"/>
<path d="M65.2127 15.5736C67.1801 18.1144 69.1063 20.686 71.0325 23.2576C71.939 24.4611 72.8351 25.6646 73.7416 26.8681C75.1527 28.7299 76.5433 30.6432 78.1605 32.3302C79.8498 34.0891 81.5803 35.6424 83.5683 37.0516C84.6911 37.854 85.649 38.4917 86.9984 38.8415C90.4594 39.4895 94.147 39.2015 97.6595 37.8231C107.661 33.8937 112.575 22.6095 108.64 12.6317C104.334 1.69726 90.789 -3.04477 80.643 3.03449C77.2438 5.0712 74.2463 7.76624 70.9707 9.99839C68.9209 11.3871 66.4281 12.4774 63.9148 11.9014C63.0496 11.7059 62.2049 11.3665 61.5972 11.0682L61.7105 11.2122C62.4006 12.138 63.6264 13.5472 65.1921 15.5839L65.2127 15.5736Z" fill="url(#paint4_linear_644_2032)"/>
<g opacity="0.92">
<path d="M11.4543 33.1325C9.49714 32.8033 7.61214 33.5028 6.37607 34.8298C3.85242 36.455 0 45.7128 0 45.7128C0 45.7128 10.589 45.4145 12.9581 43.4189C14.5444 42.6783 15.7496 41.2382 16.0586 39.4278C16.553 36.4653 14.4929 33.6468 11.4543 33.1325Z" fill="url(#paint5_linear_644_2032)"/>
<path d="M21.0442 50.9794C19.3137 50.6811 19.633 48.7987 19.5815 47.4923C19.5094 45.7745 19.4991 44.067 19.4579 42.3389C19.4476 41.5674 19.2828 40.9193 19.3034 40.1478C19.3343 38.6152 18.7163 36.8048 18.0055 35.4675C17.0064 33.5954 15.2759 32.3405 13.5866 31.137C12.1033 30.0877 10.5788 29.1003 9.0131 28.1848C7.91094 27.5367 6.73667 27.043 5.5521 26.5595C5.08858 26.3744 4.52204 26.3023 4.26453 25.8292C3.96581 25.3046 4.01731 24.5537 4.28513 24.0291C4.61475 23.3604 5.28429 22.9284 6.02593 22.8873L34.5277 20.8711C35.259 20.83 35.9594 21.1797 36.3612 21.7866C36.7732 22.3935 36.8247 23.1753 36.5054 23.8336L23.2588 49.8171C22.9395 50.4857 22.2803 50.928 21.5386 50.9794C21.3738 50.9897 21.209 50.9794 21.0442 50.9589V50.9794Z" fill="url(#paint6_linear_644_2032)"/>
</g>
</g>
<defs>
<linearGradient id="paint0_linear_644_2032" x1="5.2945" y1="48.2947" x2="12.5403" y2="33.4024" gradientUnits="userSpaceOnUse">
<stop stop-color="#23333D" stop-opacity="0.96"/>
<stop offset="1" stop-color="#1D2F39"/>
</linearGradient>
<linearGradient id="paint1_linear_644_2032" x1="9.7133" y1="45.5482" x2="21.6868" y2="20.9713" gradientUnits="userSpaceOnUse">
<stop stop-color="#23333D" stop-opacity="0.96"/>
<stop offset="1" stop-color="#1D2F39"/>
</linearGradient>
<linearGradient id="paint2_linear_644_2032" x1="57.5583" y1="-4.20363" x2="76.1957" y2="43.2238" gradientUnits="userSpaceOnUse">
<stop stop-color="#4F5E9C"/>
<stop offset="0.16" stop-color="#457BA3"/>
<stop offset="0.5" stop-color="#2EC4B6"/>
<stop offset="0.62" stop-color="#26E1BE"/>
<stop offset="0.67" stop-color="#58E8CD"/>
<stop offset="0.73" stop-color="#8AEEDC"/>
<stop offset="0.79" stop-color="#B4F4E8"/>
<stop offset="0.84" stop-color="#D5F9F2"/>
<stop offset="0.89" stop-color="#ECFCF9"/>
<stop offset="0.94" stop-color="#FAFEFD"/>
<stop offset="0.99" stop-color="white"/>
</linearGradient>
<linearGradient id="paint3_linear_644_2032" x1="26.9776" y1="32.0443" x2="62.2187" y2="11.2678" gradientUnits="userSpaceOnUse">
<stop stop-color="#26E1BE"/>
<stop offset="1" stop-color="#3B5FA8"/>
</linearGradient>
<linearGradient id="paint4_linear_644_2032" x1="109.677" y1="17.4096" x2="62.7434" y2="22.758" gradientUnits="userSpaceOnUse">
<stop stop-color="#D991C6"/>
<stop offset="0.14" stop-color="#C699C5"/>
<stop offset="0.43" stop-color="#95AFC2"/>
<stop offset="0.83" stop-color="#47D1BF"/>
<stop offset="1" stop-color="#26E1BE"/>
</linearGradient>
<linearGradient id="paint5_linear_644_2032" x1="5.2945" y1="48.2947" x2="12.5403" y2="33.4024" gradientUnits="userSpaceOnUse">
<stop stop-color="#FDFDFE" stop-opacity="0"/>
<stop offset="0.01" stop-color="#FDFDFE" stop-opacity="0.04"/>
<stop offset="0.09" stop-color="#FDFDFE" stop-opacity="0.24"/>
<stop offset="0.17" stop-color="#FDFDFE" stop-opacity="0.42"/>
<stop offset="0.25" stop-color="#FDFDFE" stop-opacity="0.57"/>
<stop offset="0.34" stop-color="#FDFDFE" stop-opacity="0.71"/>
<stop offset="0.44" stop-color="#FDFDFE" stop-opacity="0.81"/>
<stop offset="0.54" stop-color="#FDFDFE" stop-opacity="0.9"/>
<stop offset="0.66" stop-color="#FDFDFE" stop-opacity="0.96"/>
<stop offset="0.79" stop-color="#FDFDFE" stop-opacity="0.99"/>
<stop offset="1" stop-color="#FDFDFE"/>
</linearGradient>
<linearGradient id="paint6_linear_644_2032" x1="9.79576" y1="41.5741" x2="30.9628" y2="17.0056" gradientUnits="userSpaceOnUse">
<stop stop-color="#FDFDFE" stop-opacity="0"/>
<stop offset="0.08" stop-color="#FDFDFE" stop-opacity="0.2"/>
<stop offset="0.17" stop-color="#FDFDFE" stop-opacity="0.38"/>
<stop offset="0.26" stop-color="#FDFDFE" stop-opacity="0.55"/>
<stop offset="0.36" stop-color="#FDFDFE" stop-opacity="0.69"/>
<stop offset="0.46" stop-color="#FDFDFE" stop-opacity="0.8"/>
<stop offset="0.57" stop-color="#FDFDFE" stop-opacity="0.89"/>
<stop offset="0.68" stop-color="#FDFDFE" stop-opacity="0.95"/>
<stop offset="0.82" stop-color="#FDFDFE" stop-opacity="0.99"/>
<stop offset="1" stop-color="#FDFDFE"/>
</linearGradient>
<clipPath id="clip0_644_2032">
<rect width="110" height="10" fill="white" transform="translate(0 64)"/>
</clipPath>
<clipPath id="clip1_644_2032">
<rect width="110" height="51" fill="white"/>
</clipPath>
</defs>
</svg>
