<svg width="17" height="15" viewBox="0 0 17 15" fill="none" xmlns="http://www.w3.org/2000/svg">
<path d="M-2.51315e-05 0.681817C-2.51315e-05 0.30526 0.350624 0 0.783172 0H7.09351C7.52606 0 7.87671 0.30526 7.87671 0.681818V8.74675C7.87671 9.12331 7.52606 9.42857 7.09351 9.42857H0.783173C0.350625 9.42857 -2.51315e-05 9.12331 -2.51315e-05 8.74675V0.681817Z" fill="#6A96A0"/>
<path d="M-2.51315e-05 11.3961C-2.51315e-05 11.0195 0.350624 10.7143 0.783172 10.7143H7.09351C7.52606 10.7143 7.87671 11.0195 7.87671 11.3961V14.3182C7.87671 14.6947 7.52606 15 7.09351 15H0.783173C0.350625 15 -2.51315e-05 14.6947 -2.51315e-05 14.3182V11.3961Z" fill="#6A96A0"/>
<path d="M10.1368 0.681818C10.1368 0.30526 10.4874 0 10.92 0H16.2168C16.6493 0 17 0.30526 17 0.681818V4.46104C17 4.8376 16.6493 5.14286 16.2168 5.14286H10.92C10.4874 5.14286 10.1368 4.8376 10.1368 4.46104V0.681818Z" fill="#6A96A0"/>
<path d="M10.1368 7.11039C10.1368 6.73383 10.4874 6.42857 10.92 6.42857H16.2168C16.6493 6.42857 17 6.73383 17 7.11039V14.3182C17 14.6947 16.6493 15 16.2168 15H10.92C10.4874 15 10.1368 14.6947 10.1368 14.3182V7.11039Z" fill="#6A96A0"/>
</svg>
