<svg width="28" height="30" viewBox="0 0 28 30" fill="none" xmlns="http://www.w3.org/2000/svg">
<path d="M24.9687 0.0163829C26.6006 0.109746 28.0047 1.60589 28 3.27243C27.9763 12.0532 27.9881 20.8341 27.9881 29.6149V30C25.4953 27.8993 23.0665 25.8523 20.6401 23.8077L20.5547 23.8777C20.8274 24.7577 21.1002 25.6399 21.3825 26.5572H20.965C15.1871 26.5572 9.40686 26.5572 3.62897 26.5549C3.31114 26.5549 2.99093 26.5339 2.67548 26.4965C1.18594 26.3145 0.00474375 25.0284 0.00237188 23.5603C0 16.7027 0 9.84754 0 2.99234C0 2.32712 0.232444 1.74127 0.652266 1.23011C1.3662 0.359493 2.30546 -0.00462388 3.43685 4.42832e-05C6.55112 0.0140488 9.66539 0.00704653 12.7797 4.42832e-05L24.9687 0.0163829ZM7.98136 8.87656C9.08428 8.08064 10.3461 7.64183 11.6673 7.28705C11.4988 6.9206 11.2024 7.0373 10.977 7.06064C9.57052 7.21236 8.29682 7.71419 7.13697 8.50777C6.99703 8.60347 6.85946 8.74585 6.79068 8.89523C6.41355 9.71683 6.02219 10.5361 5.70436 11.3787C5.04498 13.1246 4.69157 14.9405 4.56823 16.8008C4.5374 17.2582 4.58958 17.6527 4.94299 18.0098C5.9795 19.0578 7.25082 19.562 8.69529 19.7884C9.30961 19.8841 9.69623 19.7254 10.0022 19.2189C10.1493 18.9738 10.3651 18.7684 10.5809 18.507C9.61558 18.1685 8.74985 17.7741 8.03117 17.0015C8.56721 17.2022 9.02973 17.3773 9.49699 17.5453C11.0387 18.1032 12.6231 18.4836 14.2739 18.507C15.5998 18.5257 16.8949 18.2992 18.1235 17.7951C18.726 17.55 19.3071 17.2582 19.9309 16.9735C19.2074 17.6971 18.3275 18.0938 17.3432 18.4113C17.5234 18.6494 17.6942 18.8291 17.8128 19.0368C18.1757 19.6624 18.6856 19.7814 19.3901 19.6717C20.9579 19.4266 22.2909 18.7847 23.3725 17.6457C23.4555 17.557 23.5171 17.4006 23.5053 17.2816C23.4294 16.3946 23.3819 15.5007 23.2349 14.6231C22.9005 12.6041 22.2245 10.6925 21.2639 8.87889C21.2022 8.76219 21.1097 8.64315 21.003 8.56613C19.7672 7.69785 18.3939 7.18902 16.8806 7.05364C16.6506 7.03263 16.5035 7.12833 16.4063 7.37108C17.642 7.75153 18.8256 8.21601 19.8811 8.94892C15.9224 7.28238 11.9566 7.2497 7.98136 8.87656Z" fill="#6A96A0"/>
<path d="M9.46141 14.322C9.46141 13.3977 10.1493 12.6999 11.0601 12.6999C11.9258 12.6999 12.6468 13.4328 12.6492 14.3197C12.6492 15.2067 11.9092 15.9536 11.0316 15.9489C10.154 15.9442 9.46141 15.2253 9.46141 14.322Z" fill="#6A96A0"/>
<path d="M18.5243 14.3337C18.522 15.244 17.8128 15.9536 16.9115 15.9466C16.0576 15.9396 15.3294 15.181 15.3389 14.3057C15.3484 13.4117 16.0766 12.6952 16.9731 12.6999C17.8507 12.7022 18.5267 13.4164 18.5243 14.336V14.3337Z" fill="#6A96A0"/>
</svg>
