<svg width="24" height="20" viewBox="0 0 24 20" fill="none" xmlns="http://www.w3.org/2000/svg">
<path d="M10.0885 1.40259C10.0885 1.40259 5.90622 1.3873 3.41999 4.41434C1.0416 7.30761 1.06905 9.71167 1.01807 11.1201H0.020049C0.020049 11.1201 -0.377983 7.10505 2.37295 3.97863C4.89055 1.11785 7.865 0.647739 9.99241 0.450905L10.0865 1.40259H10.0885Z" fill="url(#paint0_linear_644_2593)"/>
<path d="M19.1785 10.8526C19.1785 12.2572 19.1746 11.8834 19.1746 12.6287H2.79451C2.86509 10.8706 2.7298 11.0265 3.03568 9.39071C4.06115 3.89082 10.3728 1.20203 15.2786 4.08383C15.4747 4.19849 15.6629 4.32271 15.859 4.44501L16.4158 4.31124C17.0786 5.08329 18.1707 6.16492 18.7217 6.80893L18.2315 6.94653C18.9021 8.19442 19.1805 9.44422 19.1785 10.8526ZM10.0865 4.76224C7.16886 4.95143 5.10071 7.74343 5.29875 9.35059H16.5195C16.5195 9.35059 16.6802 6.24901 13.2467 5.14283C12.5193 4.92879 10.9355 4.6858 10.1787 4.7546L10.0865 4.76224Z" fill="url(#paint1_linear_644_2593)"/>
<path d="M20.7314 0C21.8373 1.29949 22.8863 2.53209 24 3.84113C22.9177 4.5291 21.9216 5.16164 20.8765 5.82667C19.9589 4.75651 19.0864 3.73985 18.1472 2.64484C19.0001 1.77151 19.8354 0.917286 20.7314 0Z" fill="url(#paint2_linear_644_2593)"/>
<path d="M20.4158 13.964H1.49257V14.9609H20.4158V13.964Z" fill="url(#paint3_linear_644_2593)"/>
<path d="M20.2598 6.54541L17.4546 3.27271L16.9871 3.74024L19.3247 6.54541H20.2598Z" fill="url(#paint4_linear_644_2593)"/>
<path d="M2.49364 16.8311V19.6362H9.29177V17.7661H12.9309V19.6362H19.3247V16.8311H2.49364Z" fill="url(#paint5_linear_644_2593)"/>
<defs>
<linearGradient id="paint0_linear_644_2593" x1="25.192" y1="8.59018" x2="-1.02694" y2="12.2319" gradientUnits="userSpaceOnUse">
<stop stop-color="#D991C6"/>
<stop offset="0.14" stop-color="#C699C5"/>
<stop offset="0.43" stop-color="#95AFC2"/>
<stop offset="0.83" stop-color="#47D1BF"/>
<stop offset="1" stop-color="#26E1BE"/>
</linearGradient>
<linearGradient id="paint1_linear_644_2593" x1="25.192" y1="8.59018" x2="-1.02694" y2="12.2319" gradientUnits="userSpaceOnUse">
<stop stop-color="#D991C6"/>
<stop offset="0.14" stop-color="#C699C5"/>
<stop offset="0.43" stop-color="#95AFC2"/>
<stop offset="0.83" stop-color="#47D1BF"/>
<stop offset="1" stop-color="#26E1BE"/>
</linearGradient>
<linearGradient id="paint2_linear_644_2593" x1="25.192" y1="8.59018" x2="-1.02694" y2="12.2319" gradientUnits="userSpaceOnUse">
<stop stop-color="#D991C6"/>
<stop offset="0.14" stop-color="#C699C5"/>
<stop offset="0.43" stop-color="#95AFC2"/>
<stop offset="0.83" stop-color="#47D1BF"/>
<stop offset="1" stop-color="#26E1BE"/>
</linearGradient>
<linearGradient id="paint3_linear_644_2593" x1="25.192" y1="8.59018" x2="-1.02694" y2="12.2319" gradientUnits="userSpaceOnUse">
<stop stop-color="#D991C6"/>
<stop offset="0.14" stop-color="#C699C5"/>
<stop offset="0.43" stop-color="#95AFC2"/>
<stop offset="0.83" stop-color="#47D1BF"/>
<stop offset="1" stop-color="#26E1BE"/>
</linearGradient>
<linearGradient id="paint4_linear_644_2593" x1="25.192" y1="8.59018" x2="-1.02694" y2="12.2319" gradientUnits="userSpaceOnUse">
<stop stop-color="#D991C6"/>
<stop offset="0.14" stop-color="#C699C5"/>
<stop offset="0.43" stop-color="#95AFC2"/>
<stop offset="0.83" stop-color="#47D1BF"/>
<stop offset="1" stop-color="#26E1BE"/>
</linearGradient>
<linearGradient id="paint5_linear_644_2593" x1="25.192" y1="8.59018" x2="-1.02694" y2="12.2319" gradientUnits="userSpaceOnUse">
<stop stop-color="#D991C6"/>
<stop offset="0.14" stop-color="#C699C5"/>
<stop offset="0.43" stop-color="#95AFC2"/>
<stop offset="0.83" stop-color="#47D1BF"/>
<stop offset="1" stop-color="#26E1BE"/>
</linearGradient>
</defs>
</svg>
