<svg width="110" height="74" viewBox="0 0 110 74" fill="none" xmlns="http://www.w3.org/2000/svg">
<g clip-path="url(#clip0_804_998)">
<path d="M9.00097 65.5541H3.04812C2.45133 65.5541 2.0034 65.7073 1.70569 66.0149C1.40662 66.3226 1.25776 66.7147 1.25776 67.19C1.25776 67.6062 1.36291 67.9537 1.57322 68.2311C1.78217 68.5086 2.12085 68.6872 2.58517 68.7668V69.7343C2.24239 69.7343 1.91873 69.6644 1.61556 69.5256C1.31102 69.3869 1.04335 69.2035 0.811194 68.9755C0.579034 68.7475 0.396038 68.4797 0.26357 68.172C0.131103 67.8644 0.0641861 67.5374 0.0641861 67.19C0.0641861 66.8027 0.131103 66.4517 0.26357 66.1332C0.396038 65.8159 0.579034 65.5456 0.811194 65.3225C1.04335 65.0993 1.31375 64.9267 1.62375 64.8025C1.93375 64.6782 2.26424 64.6167 2.61931 64.6167H9.0037V65.5541H9.00097ZM0.229429 72.9627H6.18228C6.77906 72.9627 7.22699 72.8095 7.5247 72.5018C7.82378 72.1942 7.97264 71.8021 7.97264 71.3268C7.97264 70.9106 7.86748 70.5655 7.65717 70.2929C7.44686 70.0202 7.10955 69.8441 6.64523 69.7645V68.7825C6.98801 68.7825 7.31166 68.8524 7.61484 68.9912C7.91801 69.1299 8.18704 69.3133 8.4192 69.5413C8.65136 69.7693 8.83299 70.0395 8.96683 70.352C9.09929 70.6645 9.16621 70.989 9.16621 71.3268C9.16621 71.7141 9.09656 72.0663 8.95863 72.3836C8.81934 72.7009 8.63497 72.9711 8.40281 73.1943C8.17066 73.4175 7.90026 73.5912 7.59026 73.7155C7.28025 73.8398 6.95387 73.9013 6.61245 73.9013H0.229429V72.9639V72.9627Z" fill="#E6E6E6" stroke="#E6E6E6" stroke-width="0.92"/>
<path d="M14.8377 73.8999V64.6177H21.3874C21.7301 64.6177 22.0565 64.6901 22.3652 64.8336C22.6752 64.9772 22.9456 65.1714 23.1777 65.4139C23.4099 65.6564 23.5943 65.9471 23.7336 66.2837C23.8715 66.6215 23.9411 66.9835 23.9411 67.3695C23.9411 67.717 23.8742 68.0463 23.7417 68.3588C23.6093 68.6712 23.4263 68.9487 23.1941 69.1912C22.962 69.4349 22.6943 69.6279 22.3898 69.7715C22.0852 69.9151 21.7616 69.9874 21.4201 69.9874H19.679V69.0501H21.2208C21.4857 69.0501 21.7124 68.9958 21.9009 68.886C22.0879 68.7774 22.2464 68.6387 22.3734 68.4698C22.5004 68.3009 22.5919 68.1175 22.6465 67.9196C22.7025 67.7218 22.7298 67.5324 22.7298 67.355C22.7298 67.1572 22.6943 66.9509 22.6219 66.7374C22.5495 66.5238 22.4485 66.3308 22.3146 66.1571C22.1822 65.9833 22.0183 65.8398 21.8257 65.7264C21.6332 65.6118 21.4147 65.5551 21.1702 65.5551H15.9972V73.8999H14.8364H14.8377Z" fill="#E6E6E6" stroke="#E6E6E6" stroke-width="0.92"/>
<path d="M36.7577 73.8997L32.5788 66.3571L28.9804 72.9623H33.8557L34.5686 73.8997H27.1572L32.5802 64.1265L38.0523 73.8997H36.7591H36.7577Z" fill="#E6E6E6" stroke="#E6E6E6" stroke-width="0.92"/>
<path d="M41.9321 69.2587C41.9321 68.6145 42.0701 68.0065 42.3473 67.437C42.6232 66.8664 42.996 66.3718 43.4671 65.9495C43.9369 65.5285 44.4927 65.1931 45.1332 64.9458C45.7737 64.6985 46.4606 64.5742 47.1899 64.5742C47.7197 64.5742 48.2291 64.6406 48.7153 64.7745C49.2015 64.9084 49.6494 65.099 50.0591 65.3475C50.4674 65.5961 50.8362 65.888 51.1612 66.2258C51.4876 66.5636 51.7552 66.9304 51.9655 67.3273L51.0369 67.8629C50.8703 67.536 50.6586 67.2332 50.3978 66.9557C50.1369 66.6782 49.842 66.4345 49.5101 66.227C49.1783 66.0195 48.8164 65.8578 48.4244 65.7432C48.0311 65.6298 47.6255 65.5719 47.2049 65.5719C46.6409 65.5719 46.1056 65.6733 45.5962 65.8772C45.0882 66.0798 44.6443 66.3513 44.2688 66.6879C43.8932 67.0257 43.5941 67.419 43.3729 67.8702C43.1517 68.3214 43.041 68.7907 43.041 69.2756C43.041 69.7606 43.1517 70.2408 43.3729 70.6823C43.5941 71.1239 43.8918 71.5135 44.2688 71.8501C44.6443 72.1879 45.0841 72.4557 45.5866 72.6536C46.0892 72.8527 46.6231 72.9516 47.1871 72.9516C47.5736 72.9516 47.9505 72.9045 48.3152 72.8104C48.6798 72.7163 49.0198 72.5848 49.3353 72.4159C49.6508 72.247 49.9376 72.0468 50.197 71.8127C50.4565 71.5799 50.675 71.3193 50.8525 71.0322L51.6487 71.7609C51.1844 72.4159 50.5685 72.9431 49.7996 73.3449C49.0308 73.7466 48.1609 73.9469 47.1885 73.9469C46.4593 73.9469 45.7737 73.8226 45.1319 73.5753C44.4914 73.328 43.9355 72.9926 43.4658 72.5716C42.996 72.1505 42.6232 71.6547 42.3459 71.0841C42.0687 70.5134 41.9308 69.9066 41.9308 69.2612L41.9321 69.2587Z" fill="#E6E6E6" stroke="#E6E6E6" stroke-width="0.92"/>
<path d="M57.6343 64.6177H65.51V65.5551H58.7951V72.9637H65.51V73.9011H57.6343V64.6177ZM65.3775 69.9886H60.4189V69.0513H65.3775V69.9886Z" fill="#E6E6E6" stroke="#E6E6E6" stroke-width="0.92"/>
<path d="M71.314 73.8999V64.6177H75.6253C76.3546 64.6177 77.0402 64.7395 77.6806 64.982C78.3211 65.2257 78.8769 65.5599 79.3467 65.9858C79.8165 66.4128 80.1893 66.9087 80.4666 67.4733C80.7424 68.0391 80.8817 68.6435 80.8817 69.2877C80.8817 69.9319 80.7329 70.5352 80.4338 71.0949C80.1347 71.6559 79.7428 72.1433 79.2566 72.5607C78.7704 72.9769 78.2146 73.3051 77.5905 73.5428C76.965 73.7804 76.3218 73.8999 75.6581 73.8999H71.314ZM72.4748 72.948H75.6253C76.1334 72.948 76.6387 72.8515 77.1426 72.6585C77.6451 72.4654 78.0903 72.2 78.4768 71.8622C78.8633 71.5256 79.1788 71.1384 79.4218 70.7016C79.6649 70.2649 79.7865 69.7992 79.7865 69.3034C79.7865 68.8076 79.6758 68.3491 79.4546 67.8979C79.2334 67.4467 78.9357 67.0498 78.5601 66.7084C78.1846 66.3658 77.7448 66.0931 77.2423 65.8904C76.7397 65.6878 76.2057 65.5852 75.6417 65.5852H72.4748V72.9492V72.948Z" fill="#26E1BE" stroke="#26E1BE" stroke-width="0.92"/>
<path d="M86.4686 64.6177H94.3442V65.5551H87.6294V72.9637H94.3442V73.9011H86.4686V64.6177ZM94.2118 69.9886H89.2531V69.0513H94.2118V69.9886Z" fill="#26E1BE" stroke="#26E1BE" stroke-width="0.92"/>
<path d="M99.7686 64.6177H101.029L103.616 69.3034L101.029 73.8999H99.7686L102.306 69.3034L99.7686 64.6177ZM108.64 64.6177H109.9L107.363 69.3034L109.9 73.8999H108.64L106.053 69.3034L108.64 64.6177Z" fill="#26E1BE" stroke="#26E1BE" stroke-width="0.92"/>
</g>
<g clip-path="url(#clip1_804_998)">
<path d="M11.4543 33.1325C9.49714 32.8033 7.61214 33.5028 6.37607 34.8297C3.85242 36.455 0 45.7128 0 45.7128C0 45.7128 10.589 45.4144 12.9581 43.4189C14.5444 42.6783 15.7496 41.2382 16.0586 39.4278C16.553 36.4653 14.4929 33.6468 11.4543 33.1325Z" fill="url(#paint0_linear_804_998)"/>
<path d="M24.433 27.0325C23.7429 25.2735 23.3308 23.4734 23.1454 21.6836L6.01554 22.8974C5.2739 22.9385 4.60436 23.3706 4.27474 24.0392C4.00693 24.5638 3.94513 25.3044 4.25414 25.8393C4.52196 26.3125 5.08849 26.3845 5.54172 26.5696C6.72628 27.0531 7.90055 27.5468 9.00271 28.1949C10.5684 29.1104 12.0929 30.0979 13.5762 31.1471C15.2655 32.3506 16.996 33.6158 17.9951 35.4777C18.7059 36.8149 19.3342 38.6253 19.293 40.158C19.2724 40.9295 19.4269 41.5775 19.4475 42.349C19.4784 44.0668 19.499 45.7846 19.5711 47.5025C19.6226 48.8088 19.3033 50.6913 21.0338 50.9896C21.1883 51.0204 21.3531 51.0307 21.5282 51.0101C22.2699 50.9587 22.9291 50.5164 23.2484 49.8478L30.6237 35.3851C27.9558 33.2661 25.7721 30.4579 24.4227 27.0531L24.433 27.0325Z" fill="url(#paint1_linear_804_998)"/>
<path d="M60.4954 13.7119C60.722 14.1131 60.9589 14.504 61.2061 14.8846C60.7426 14.2366 60.413 13.7119 60.2276 13.3931L60.4954 13.7325V13.7119ZM68.6431 21.5913C71.6303 23.124 74.978 23.8646 78.3566 23.6486C74.5042 23.9469 71.2698 23.0109 68.6431 21.5913Z" fill="#FFFF00"/>
<path d="M46.5999 0.421864C46.3733 0.360145 46.4866 0.391004 46.5999 0.421864C46.8265 0.493868 47.4136 0.853893 47.6196 0.967043C48.0007 1.17277 48.3613 1.39907 48.7012 1.63566C49.2677 2.02654 49.8033 2.44829 50.3184 2.90089C51.1218 3.60036 51.8944 4.3307 52.6257 5.09189C53.7382 6.2234 54.7888 7.39605 55.8292 8.58927C57.2713 10.2454 58.6722 11.9426 60.0524 13.6502C61.8035 15.8103 63.534 17.991 65.2439 20.1923C68.5813 24.4612 71.6612 29.0386 75.7505 32.7006C78.0064 34.7167 80.5506 36.4757 83.3627 37.7101C84.609 38.2553 85.9378 38.6359 87.2975 38.8724C87.4417 38.893 87.5962 38.893 87.7404 38.9239C86.3292 38.5844 85.3301 37.9467 84.1558 37.1546C82.0854 35.7351 80.2931 34.1921 78.542 32.4229C76.863 30.7256 75.4312 28.8021 73.9788 26.9196C73.0415 25.7161 72.1144 24.4921 71.1874 23.2783C69.1994 20.6861 67.2113 18.0939 65.1821 15.5326C63.9976 14.0308 62.8027 12.5392 61.5975 11.0786C53.3777 1.05962 46.5999 0.421864 46.5999 0.421864Z" fill="url(#paint2_linear_804_998)"/>
<path d="M58.8061 32.32C61.7314 30.1805 65.0482 27.2489 68.9109 28.0409C71.3831 28.5449 72.6707 29.6353 73.9479 30.952C73.9479 30.9005 73.8243 30.7977 73.7934 30.7668C73.6698 30.6228 73.5359 30.4788 73.4123 30.3348C73.1239 30.0056 72.8458 29.6764 72.578 29.337C71.6921 28.1849 70.7136 27.1151 69.8483 25.9425C69.0552 24.883 68.3135 23.7823 67.5513 22.7023C67.0362 21.9822 66.5212 21.2724 65.9856 20.573C64.2963 18.3408 62.5967 16.1292 60.8662 13.928C59.5065 12.1998 58.1262 10.4717 56.7048 8.79504C55.685 7.58124 54.6446 6.38802 53.5528 5.23594C52.8214 4.46446 52.0798 3.70327 51.2866 2.99351C50.7819 2.5409 50.2566 2.09859 49.7003 1.69742C49.3604 1.45054 49.0102 1.21396 48.6394 1.00823C48.454 0.905364 48.1862 0.833359 47.9698 0.761355C43.9732 -0.380437 39.6058 -0.267286 35.4546 1.35797C25.3395 5.32852 20.4055 16.8287 24.4227 27.0328C28.4399 37.237 39.9045 42.2876 50.0197 38.317C52.4506 37.3604 54.5725 35.9717 56.3545 34.2745C57.1477 33.6059 57.9614 32.9372 58.7958 32.3303L58.8061 32.32Z" fill="url(#paint3_linear_804_998)"/>
<path d="M65.213 15.5736C67.1805 18.1143 69.1067 20.6859 71.0329 23.2575C71.9393 24.461 72.8355 25.6645 73.7419 26.868C75.1531 28.7299 76.5437 30.6431 78.1609 32.3301C79.8502 34.0891 81.5807 35.6423 83.5687 37.0516C84.6915 37.8539 85.6494 38.4917 86.9988 38.8414C90.4598 39.4894 94.1474 39.2014 97.6599 37.8231C107.662 33.8936 112.575 22.6095 108.64 12.6316C104.335 1.6972 90.7894 -3.04483 80.6433 3.03443C77.2441 5.07114 74.2467 7.76618 70.9711 9.99833C68.9213 11.387 66.4285 12.4774 63.9152 11.9013C63.0499 11.7059 62.2053 11.3664 61.5975 11.0681L61.7108 11.2121C62.401 12.1379 63.6267 13.5471 65.1924 15.5838L65.213 15.5736Z" fill="url(#paint4_linear_804_998)"/>
<g opacity="0.92">
<path d="M11.4543 33.1325C9.49714 32.8033 7.61214 33.5028 6.37607 34.8297C3.85242 36.455 0 45.7128 0 45.7128C0 45.7128 10.589 45.4144 12.9581 43.4189C14.5444 42.6783 15.7496 41.2382 16.0586 39.4278C16.553 36.4653 14.4929 33.6468 11.4543 33.1325Z" fill="url(#paint5_linear_804_998)"/>
<path d="M21.0441 50.9793C19.3136 50.6809 19.6329 48.7985 19.5814 47.4922C19.5093 45.7743 19.499 44.0668 19.4578 42.3387C19.4475 41.5672 19.2827 40.9191 19.3033 40.1477C19.3342 38.615 18.7162 36.8046 18.0054 35.4674C17.0063 33.5952 15.2758 32.3403 13.5865 31.1368C12.1032 30.0876 10.5787 29.1001 9.01302 28.1846C7.91085 27.5365 6.73659 27.0428 5.55202 26.5593C5.08849 26.3742 4.52196 26.3022 4.26444 25.829C3.96573 25.3044 4.01723 24.5535 4.28505 24.0289C4.61466 23.3603 5.2842 22.9282 6.02585 22.8871L34.5276 20.8709C35.2589 20.8298 35.9594 21.1795 36.3611 21.7864C36.7731 22.3933 36.8246 23.1751 36.5053 23.8334L23.2587 49.8169C22.9394 50.4855 22.2802 50.9278 21.5385 50.9793C21.3737 50.9895 21.2089 50.9793 21.0441 50.9587V50.9793Z" fill="url(#paint6_linear_804_998)"/>
</g>
</g>
<defs>
<linearGradient id="paint0_linear_804_998" x1="5.2945" y1="48.2946" x2="12.5403" y2="33.4024" gradientUnits="userSpaceOnUse">
<stop stop-color="#23333D" stop-opacity="0.96"/>
<stop offset="1" stop-color="#1D2F39"/>
</linearGradient>
<linearGradient id="paint1_linear_804_998" x1="9.71346" y1="45.5481" x2="21.687" y2="20.9711" gradientUnits="userSpaceOnUse">
<stop stop-color="#23333D" stop-opacity="0.96"/>
<stop offset="1" stop-color="#1D2F39"/>
</linearGradient>
<linearGradient id="paint2_linear_804_998" x1="57.5586" y1="-4.20351" x2="76.196" y2="43.2239" gradientUnits="userSpaceOnUse">
<stop stop-color="#4F5E9C"/>
<stop offset="0.16" stop-color="#457BA3"/>
<stop offset="0.5" stop-color="#2EC4B6"/>
<stop offset="0.62" stop-color="#26E1BE"/>
<stop offset="0.67" stop-color="#58E8CD"/>
<stop offset="0.73" stop-color="#8AEEDC"/>
<stop offset="0.79" stop-color="#B4F4E8"/>
<stop offset="0.84" stop-color="#D5F9F2"/>
<stop offset="0.89" stop-color="#ECFCF9"/>
<stop offset="0.94" stop-color="#FAFEFD"/>
<stop offset="0.99" stop-color="white"/>
</linearGradient>
<linearGradient id="paint3_linear_804_998" x1="26.9778" y1="32.0445" x2="62.2189" y2="11.268" gradientUnits="userSpaceOnUse">
<stop stop-color="#26E1BE"/>
<stop offset="1" stop-color="#3B5FA8"/>
</linearGradient>
<linearGradient id="paint4_linear_804_998" x1="109.678" y1="17.4096" x2="62.7437" y2="22.758" gradientUnits="userSpaceOnUse">
<stop stop-color="#D991C6"/>
<stop offset="0.14" stop-color="#C699C5"/>
<stop offset="0.43" stop-color="#95AFC2"/>
<stop offset="0.83" stop-color="#47D1BF"/>
<stop offset="1" stop-color="#26E1BE"/>
</linearGradient>
<linearGradient id="paint5_linear_804_998" x1="5.2945" y1="48.2946" x2="12.5403" y2="33.4024" gradientUnits="userSpaceOnUse">
<stop stop-color="#FDFDFE" stop-opacity="0"/>
<stop offset="0.01" stop-color="#FDFDFE" stop-opacity="0.04"/>
<stop offset="0.09" stop-color="#FDFDFE" stop-opacity="0.24"/>
<stop offset="0.17" stop-color="#FDFDFE" stop-opacity="0.42"/>
<stop offset="0.25" stop-color="#FDFDFE" stop-opacity="0.57"/>
<stop offset="0.34" stop-color="#FDFDFE" stop-opacity="0.71"/>
<stop offset="0.44" stop-color="#FDFDFE" stop-opacity="0.81"/>
<stop offset="0.54" stop-color="#FDFDFE" stop-opacity="0.9"/>
<stop offset="0.66" stop-color="#FDFDFE" stop-opacity="0.96"/>
<stop offset="0.79" stop-color="#FDFDFE" stop-opacity="0.99"/>
<stop offset="1" stop-color="#FDFDFE"/>
</linearGradient>
<linearGradient id="paint6_linear_804_998" x1="9.79568" y1="41.5739" x2="30.9628" y2="17.0054" gradientUnits="userSpaceOnUse">
<stop stop-color="#FDFDFE" stop-opacity="0"/>
<stop offset="0.08" stop-color="#FDFDFE" stop-opacity="0.2"/>
<stop offset="0.17" stop-color="#FDFDFE" stop-opacity="0.38"/>
<stop offset="0.26" stop-color="#FDFDFE" stop-opacity="0.55"/>
<stop offset="0.36" stop-color="#FDFDFE" stop-opacity="0.69"/>
<stop offset="0.46" stop-color="#FDFDFE" stop-opacity="0.8"/>
<stop offset="0.57" stop-color="#FDFDFE" stop-opacity="0.89"/>
<stop offset="0.68" stop-color="#FDFDFE" stop-opacity="0.95"/>
<stop offset="0.82" stop-color="#FDFDFE" stop-opacity="0.99"/>
<stop offset="1" stop-color="#FDFDFE"/>
</linearGradient>
<clipPath id="clip0_804_998">
<rect width="110" height="10" fill="white" transform="translate(0 64)"/>
</clipPath>
<clipPath id="clip1_804_998">
<rect width="110" height="51" fill="white"/>
</clipPath>
</defs>
</svg>
