<svg width="48" height="48" viewBox="0 0 48 48" fill="none" xmlns="http://www.w3.org/2000/svg">
<circle cx="24" cy="24" r="23.5" fill="#000911" stroke="url(#paint0_linear_857_1373)"/>
<path d="M22.0482 26.6577L23.6173 25.0672L23.6431 25.0766C23.4859 25.4436 23.3313 25.8107 23.1741 26.1777C22.9628 26.6728 22.7438 27.1659 22.5429 27.6647C22.4991 27.7758 22.4888 27.9076 22.5222 28.0205C22.8959 29.244 23.2798 30.4637 23.6637 31.6853C23.6714 31.7079 23.6843 31.7305 23.7075 31.7851C23.7951 31.4896 23.875 31.226 23.9523 30.9606C24.2383 29.9856 24.5268 29.0106 24.8025 28.0337C24.8335 27.9207 24.8283 27.789 24.7845 27.6779C24.4676 26.8629 24.1378 26.0516 23.8105 25.2385C23.7977 25.2083 23.7899 25.1763 23.8105 25.1349C24.2975 25.6187 24.7845 26.1024 25.2818 26.5994C25.4029 26.4789 25.5137 26.3678 25.6219 26.2568C25.9697 25.9048 26.3202 25.5528 26.6654 25.1989C26.82 25.0389 27.0287 24.9749 27.2864 25.0088C28.451 25.1556 29.5255 25.4568 30.4221 26.0328C30.6798 26.1984 30.9194 26.3829 31.1307 26.5805C32.0377 27.4276 32.6586 28.3819 33.1301 29.3965C33.7485 30.7272 34.1943 32.0919 34.5602 33.4698C34.7122 34.0476 34.841 34.6274 34.9724 35.2071C35.109 35.8038 34.7302 36.3948 34.0191 36.7017C33.563 36.8974 33.0657 36.9915 32.5401 36.9953C31.494 37.0028 30.4505 36.9991 29.4044 36.9991C24.6402 36.9991 19.8735 36.9991 15.1093 36.9991C14.7512 36.9991 14.4008 36.9595 14.071 36.8522C13.432 36.6471 13.1589 36.265 13.0378 35.7812C12.9192 35.2993 13.1073 34.8495 13.2233 34.394C13.6355 32.7658 14.1508 31.1564 14.8182 29.5734C15.0166 29.1047 15.2433 28.6435 15.4855 28.1861C15.6144 27.9396 15.805 27.7099 15.9622 27.4709C16.024 27.3767 16.0601 27.2713 16.1374 27.1866C16.8048 26.445 17.6293 25.8238 18.7527 25.453C19.1495 25.3213 19.5695 25.2234 19.9843 25.1236C20.2703 25.0559 20.4919 25.1199 20.6697 25.2968C21.1077 25.7316 21.5431 26.1683 21.9786 26.6031C21.994 26.6201 22.0121 26.6351 22.043 26.6615L22.0482 26.6577Z" fill="url(#paint1_linear_857_1373)"/>
<path d="M23.6071 24.3654C19.4616 24.3654 16.0994 21.1459 16.1046 17.1839C16.1123 13.2097 19.4591 10.0049 23.6071 10C27.7809 9.99512 31.1637 13.217 31.1611 17.1912C31.156 21.163 27.7886 24.3629 23.6097 24.3629L23.6071 24.3654Z" fill="url(#paint2_linear_857_1373)"/>
<defs>
<linearGradient id="paint0_linear_857_1373" x1="-7.42446" y1="-5.19999" x2="68.8079" y2="3.10487" gradientUnits="userSpaceOnUse">
<stop stop-color="#26E1BE"/>
<stop offset="0.9375" stop-color="#0A2230"/>
</linearGradient>
<linearGradient id="paint1_linear_857_1373" x1="36.0927" y1="21.8116" x2="11.8032" y2="24.0607" gradientUnits="userSpaceOnUse">
<stop stop-color="#D991C6"/>
<stop offset="0.14" stop-color="#C699C5"/>
<stop offset="0.43" stop-color="#95AFC2"/>
<stop offset="0.83" stop-color="#47D1BF"/>
<stop offset="1" stop-color="#26E1BE"/>
</linearGradient>
<linearGradient id="paint2_linear_857_1373" x1="36.0927" y1="21.8116" x2="11.8032" y2="24.0607" gradientUnits="userSpaceOnUse">
<stop stop-color="#D991C6"/>
<stop offset="0.14" stop-color="#C699C5"/>
<stop offset="0.43" stop-color="#95AFC2"/>
<stop offset="0.83" stop-color="#47D1BF"/>
<stop offset="1" stop-color="#26E1BE"/>
</linearGradient>
</defs>
</svg>
