<svg width="86" height="40" viewBox="0 0 86 40" fill="none" xmlns="http://www.w3.org/2000/svg">
<g clip-path="url(#clip0_12_103)">
<path d="M8.95514 25.9863C7.42504 25.7281 5.95131 26.2767 4.98492 27.3175C3.01189 28.5922 0 35.8532 0 35.8532C0 35.8532 8.27868 35.6192 10.1309 34.0541C11.3711 33.4732 12.3133 32.3437 12.5549 30.9238C12.9415 28.6002 11.3308 26.3897 8.95514 25.9863Z" fill="url(#paint0_linear_12_103)"/>
<path d="M19.1022 21.2021C18.5626 19.8225 18.2405 18.4107 18.0955 17.0069L4.70308 17.9589C4.12325 17.9911 3.59979 18.33 3.34209 18.8544C3.13271 19.2658 3.08439 19.8467 3.32598 20.2662C3.53537 20.6374 3.97829 20.6938 4.33263 20.8391C5.25875 21.2182 6.17681 21.6055 7.0385 22.1138C8.26259 22.8318 9.45446 23.6063 10.6141 24.4292C11.9348 25.3731 13.2878 26.3655 14.0689 27.8257C14.6246 28.8746 15.1159 30.2945 15.0836 31.4966C15.0675 32.1017 15.1883 32.6099 15.2044 33.215C15.2286 34.5623 15.2447 35.9096 15.3011 37.257C15.3413 38.2816 15.0917 39.758 16.4446 39.9919C16.5654 40.0161 16.6943 40.0242 16.8312 40.0081C17.411 39.9677 17.9264 39.6208 18.1761 39.0964L23.9421 27.7531C21.8564 26.0912 20.1491 23.8887 19.0941 21.2182L19.1022 21.2021Z" fill="url(#paint1_linear_12_103)"/>
<path d="M47.2964 10.7543C47.4735 11.069 47.6587 11.3755 47.852 11.674C47.4896 11.1658 47.2319 10.7543 47.087 10.5042L47.2964 10.7704V10.7543ZM53.6664 16.9342C56.0019 18.1363 58.6191 18.7172 61.2606 18.5478C58.2487 18.7817 55.72 18.0476 53.6664 16.9342Z" fill="#FFFF00"/>
<path d="M36.4326 0.330773C36.2554 0.282367 36.344 0.30657 36.4326 0.330773C36.6098 0.387248 37.0688 0.66962 37.2299 0.758365C37.5278 0.919721 37.8097 1.09721 38.0755 1.28277C38.5184 1.58935 38.9372 1.92012 39.3398 2.27511C39.968 2.82371 40.5719 3.39653 41.1437 3.99354C42.0135 4.88099 42.8349 5.80072 43.6483 6.73658C44.7757 8.03549 45.8709 9.36668 46.9501 10.7059C48.3191 12.4002 49.6721 14.1105 51.0089 15.837C53.6181 19.1851 56.026 22.7753 59.2231 25.6474C60.9868 27.2287 62.9759 28.6083 65.1744 29.5764C66.1489 30.004 67.1877 30.3025 68.2508 30.4881C68.3635 30.5042 68.4843 30.5042 68.597 30.5284C67.4938 30.2622 66.7126 29.762 65.7945 29.1408C64.1758 28.0274 62.7746 26.8173 61.4055 25.4296C60.0929 24.0984 58.9735 22.5897 57.838 21.1133C57.1051 20.1694 56.3804 19.2094 55.6556 18.2574C54.1013 16.2243 52.547 14.1912 50.9606 12.1823C50.0344 11.0044 49.1003 9.83461 48.1581 8.68898C41.7316 0.830976 36.4326 0.330773 36.4326 0.330773Z" fill="url(#paint2_linear_12_103)"/>
<path d="M45.9757 25.3489C48.2628 23.6708 50.8559 21.3715 53.8758 21.9927C55.8086 22.388 56.8152 23.2432 57.8138 24.2759C57.8138 24.2356 57.7172 24.1549 57.693 24.1307C57.5964 24.0177 57.4917 23.9048 57.3951 23.7918C57.1696 23.5337 56.9521 23.2755 56.7428 23.0093C56.0502 22.1057 55.2851 21.2666 54.6087 20.3469C53.9886 19.5159 53.4087 18.6527 52.8128 17.8056C52.4102 17.2408 52.0075 16.6841 51.5887 16.1355C50.268 14.3848 48.9392 12.6503 47.5863 10.9237C46.5233 9.56836 45.4441 8.21298 44.3328 6.89793C43.5355 5.94593 42.7222 5.01007 41.8685 4.10648C41.2967 3.5014 40.7169 2.90439 40.0968 2.34771C39.7022 1.99273 39.2915 1.64581 38.8566 1.33117C38.5909 1.13754 38.3171 0.951986 38.0272 0.79063C37.8822 0.709953 37.6728 0.653478 37.5037 0.597004C34.3791 -0.298519 30.9645 -0.209773 27.7191 1.06493C19.8108 4.17909 15.9534 13.1989 19.0941 21.2021C22.2349 29.2053 31.1981 33.1666 39.1063 30.0524C41.0068 29.3021 42.6658 28.213 44.059 26.8818C44.6791 26.3574 45.3153 25.833 45.9676 25.357L45.9757 25.3489Z" fill="url(#paint3_linear_12_103)"/>
<path d="M50.9848 12.2146C52.5229 14.2073 54.0289 16.2243 55.5348 18.2412C56.2435 19.1852 56.9441 20.1291 57.6528 21.073C58.7561 22.5333 59.8433 24.0339 61.1076 25.357C62.4283 26.7366 63.7813 27.9548 65.3355 29.0601C66.2133 29.6894 66.9623 30.1896 68.0172 30.4639C70.7231 30.9722 73.6062 30.7463 76.3523 29.6652C84.1719 26.5833 88.0133 17.733 84.937 9.90722C81.5708 1.33118 70.9808 -2.38806 63.0484 2.37999C60.3909 3.97741 58.0474 6.09116 55.4865 7.84187C53.8839 8.93102 51.935 9.7862 49.97 9.3344C49.2936 9.18112 48.6332 8.91488 48.1581 8.68092L48.2467 8.79386C48.7862 9.51996 49.7446 10.6252 50.9686 12.2227L50.9848 12.2146Z" fill="url(#paint4_linear_12_103)"/>
<g opacity="0.92">
<path d="M8.95514 25.9863C7.42504 25.7281 5.95131 26.2767 4.98492 27.3175C3.01189 28.5922 0 35.8532 0 35.8532C0 35.8532 8.27868 35.6192 10.1309 34.0541C11.3711 33.4732 12.3133 32.3437 12.5549 30.9238C12.9415 28.6002 11.3308 26.3897 8.95514 25.9863Z" fill="url(#paint5_linear_12_103)"/>
<path d="M16.4527 39.9839C15.0997 39.7499 15.3494 38.2735 15.3091 37.2489C15.2527 35.9016 15.2447 34.5623 15.2125 33.2069C15.2044 32.6019 15.0756 32.0936 15.0917 31.4885C15.1158 30.2864 14.6326 28.8665 14.077 27.8177C13.2958 26.3493 11.9429 25.3651 10.6221 24.4211C9.46248 23.5982 8.27061 22.8237 7.04653 22.1057C6.18483 21.5974 5.26677 21.2102 4.34065 20.831C3.97826 20.6858 3.53534 20.6293 3.33401 20.2582C3.10046 19.8467 3.14073 19.2578 3.35011 18.8463C3.60781 18.3219 4.13127 17.9831 4.7111 17.9508L26.9943 16.3695C27.566 16.3372 28.1137 16.6115 28.4277 17.0875C28.7499 17.5635 28.7901 18.1767 28.5405 18.693L18.1841 39.0722C17.9344 39.5966 17.419 39.9435 16.8392 39.9839C16.7104 39.9919 16.5815 39.9839 16.4527 39.9677V39.9839Z" fill="url(#paint6_linear_12_103)"/>
</g>
</g>
<defs>
<linearGradient id="paint0_linear_12_103" x1="4.13934" y1="37.8782" x2="9.83345" y2="26.2122" gradientUnits="userSpaceOnUse">
<stop stop-color="#23333D" stop-opacity="0.96"/>
<stop offset="1" stop-color="#1D2F39"/>
</linearGradient>
<linearGradient id="paint1_linear_12_103" x1="7.59417" y1="35.7241" x2="17.0036" y2="16.4717" gradientUnits="userSpaceOnUse">
<stop stop-color="#23333D" stop-opacity="0.96"/>
<stop offset="1" stop-color="#1D2F39"/>
</linearGradient>
<linearGradient id="paint2_linear_12_103" x1="45.0004" y1="-3.29697" x2="59.652" y2="33.8692" gradientUnits="userSpaceOnUse">
<stop stop-color="#4F5E9C"/>
<stop offset="0.16" stop-color="#457BA3"/>
<stop offset="0.5" stop-color="#2EC4B6"/>
<stop offset="0.62" stop-color="#26E1BE"/>
<stop offset="0.67" stop-color="#58E8CD"/>
<stop offset="0.73" stop-color="#8AEEDC"/>
<stop offset="0.79" stop-color="#B4F4E8"/>
<stop offset="0.84" stop-color="#D5F9F2"/>
<stop offset="0.89" stop-color="#ECFCF9"/>
<stop offset="0.94" stop-color="#FAFEFD"/>
<stop offset="0.99" stop-color="white"/>
</linearGradient>
<linearGradient id="paint3_linear_12_103" x1="21.0917" y1="25.1328" x2="48.6891" y2="8.91443" gradientUnits="userSpaceOnUse">
<stop stop-color="#26E1BE"/>
<stop offset="1" stop-color="#3B5FA8"/>
</linearGradient>
<linearGradient id="paint4_linear_12_103" x1="85.7481" y1="13.6546" x2="49.0512" y2="17.8231" gradientUnits="userSpaceOnUse">
<stop stop-color="#D991C6"/>
<stop offset="0.14" stop-color="#C699C5"/>
<stop offset="0.43" stop-color="#95AFC2"/>
<stop offset="0.83" stop-color="#47D1BF"/>
<stop offset="1" stop-color="#26E1BE"/>
</linearGradient>
<linearGradient id="paint5_linear_12_103" x1="4.13934" y1="37.8782" x2="9.83345" y2="26.2122" gradientUnits="userSpaceOnUse">
<stop stop-color="#FDFDFE" stop-opacity="0"/>
<stop offset="0.01" stop-color="#FDFDFE" stop-opacity="0.04"/>
<stop offset="0.09" stop-color="#FDFDFE" stop-opacity="0.24"/>
<stop offset="0.17" stop-color="#FDFDFE" stop-opacity="0.42"/>
<stop offset="0.25" stop-color="#FDFDFE" stop-opacity="0.57"/>
<stop offset="0.34" stop-color="#FDFDFE" stop-opacity="0.71"/>
<stop offset="0.44" stop-color="#FDFDFE" stop-opacity="0.81"/>
<stop offset="0.54" stop-color="#FDFDFE" stop-opacity="0.9"/>
<stop offset="0.66" stop-color="#FDFDFE" stop-opacity="0.96"/>
<stop offset="0.79" stop-color="#FDFDFE" stop-opacity="0.99"/>
<stop offset="1" stop-color="#FDFDFE"/>
</linearGradient>
<linearGradient id="paint6_linear_12_103" x1="7.65842" y1="32.6071" x2="24.2678" y2="13.3901" gradientUnits="userSpaceOnUse">
<stop stop-color="#FDFDFE" stop-opacity="0"/>
<stop offset="0.08" stop-color="#FDFDFE" stop-opacity="0.2"/>
<stop offset="0.17" stop-color="#FDFDFE" stop-opacity="0.38"/>
<stop offset="0.26" stop-color="#FDFDFE" stop-opacity="0.55"/>
<stop offset="0.36" stop-color="#FDFDFE" stop-opacity="0.69"/>
<stop offset="0.46" stop-color="#FDFDFE" stop-opacity="0.8"/>
<stop offset="0.57" stop-color="#FDFDFE" stop-opacity="0.89"/>
<stop offset="0.68" stop-color="#FDFDFE" stop-opacity="0.95"/>
<stop offset="0.82" stop-color="#FDFDFE" stop-opacity="0.99"/>
<stop offset="1" stop-color="#FDFDFE"/>
</linearGradient>
<clipPath id="clip0_12_103">
<rect width="86" height="40" fill="white"/>
</clipPath>
</defs>
</svg>
