<svg width="300" height="30" viewBox="0 0 300 30" fill="none" xmlns="http://www.w3.org/2000/svg">
<g clip-path="url(#clip0_12_85)">
<path d="M24.5481 4.6616H8.31305C6.68545 4.6616 5.46382 5.12125 4.65188 6.04416C3.83622 6.96707 3.43025 8.14332 3.43025 9.56931C3.43025 10.818 3.71704 11.8603 4.29061 12.6927C4.86045 13.5252 5.78413 14.0608 7.05045 14.2997V17.2023C6.11561 17.2023 5.2329 16.9924 4.40607 16.5762C3.57551 16.16 2.84551 15.6098 2.21234 14.9258C1.57918 14.2418 1.0801 13.4383 0.718824 12.5154C0.357549 11.5925 0.175049 10.6117 0.175049 9.56931C0.175049 8.40753 0.357549 7.35433 0.718824 6.39884C1.0801 5.44698 1.57918 4.63627 2.21234 3.96671C2.84551 3.29714 3.58295 2.77959 4.42841 2.40681C5.27387 2.03402 6.1752 1.84944 7.14356 1.84944H24.5555V4.6616H24.5481ZM0.625712 26.8874H16.8608C18.4883 26.8874 19.71 26.4278 20.5219 25.5049C21.3376 24.582 21.7436 23.4057 21.7436 21.9797C21.7436 20.7311 21.4568 19.696 20.8832 18.878C20.3096 18.0601 19.3897 17.5317 18.1234 17.2928V14.3467C19.0582 14.3467 19.9409 14.5566 20.7677 14.9729C21.5946 15.3891 22.3283 15.9392 22.9615 16.6232C23.5946 17.3073 24.09 18.118 24.455 19.0554C24.8163 19.9928 24.9988 20.9663 24.9988 21.9797C24.9988 23.1415 24.8088 24.1983 24.4326 25.1502C24.0527 26.1021 23.5499 26.9128 22.9168 27.5823C22.2836 28.2519 21.5462 28.7731 20.7007 29.1459C19.8552 29.5186 18.9651 29.7032 18.034 29.7032H0.625712V26.8911V26.8874Z" fill="#E6E6E6" stroke="#E6E6E6" stroke-width="0.92"/>
<path d="M40.4666 29.6996V1.85306H58.3292C59.264 1.85306 60.1542 2.07021 60.9959 2.5009C61.8414 2.9316 62.5788 3.5143 63.212 4.24177C63.8452 4.96924 64.348 5.84148 64.7279 6.85125C65.104 7.86464 65.294 8.95042 65.294 10.1086C65.294 11.1509 65.1115 12.139 64.7502 13.0764C64.3889 14.0138 63.8899 14.8462 63.2567 15.5737C62.6235 16.3047 61.8935 16.8838 61.063 17.3145C60.2324 17.7452 59.3497 17.9624 58.4186 17.9624H53.6699V15.1502H57.8748C58.5974 15.1502 59.2156 14.9873 59.7296 14.658C60.2399 14.3322 60.6719 13.916 61.0183 13.4093C61.3647 12.9026 61.6142 12.3525 61.7632 11.759C61.9159 11.1654 61.9904 10.5972 61.9904 10.0651C61.9904 9.47159 61.8935 8.8527 61.6961 8.21209C61.4987 7.57148 61.2231 6.9924 60.8581 6.47123C60.4968 5.95005 60.0499 5.51936 59.5248 5.17915C58.9996 4.83532 58.4037 4.66522 57.737 4.66522H43.6286V29.6996H40.4628H40.4666Z" fill="#E6E6E6" stroke="#E6E6E6" stroke-width="0.92"/>
<path d="M100.248 29.6996L88.8514 7.07202L79.0373 26.8874H92.3338L94.278 29.6996H74.0652L88.8551 0.38002L103.779 29.6996H100.252H100.248Z" fill="#E6E6E6" stroke="#E6E6E6" stroke-width="0.92"/>
<path d="M114.36 15.7763C114.36 13.8436 114.737 12.0195 115.493 10.3113C116.245 8.59935 117.262 7.11545 118.547 5.84871C119.828 4.58559 121.344 3.57944 123.091 2.83749C124.837 2.09555 126.711 1.72276 128.7 1.72276C130.145 1.72276 131.534 1.92182 132.86 2.32356C134.186 2.7253 135.407 3.29714 136.525 4.04271C137.638 4.78827 138.644 5.66413 139.53 6.67752C140.421 7.69091 141.151 8.79117 141.724 9.9819L139.192 11.5889C138.737 10.608 138.16 9.6996 137.448 8.86717C136.737 8.03474 135.933 7.30365 135.028 6.68114C134.123 6.05863 133.136 5.57365 132.067 5.22982C130.994 4.88961 129.888 4.71589 128.741 4.71589C127.202 4.71589 125.742 5.0199 124.353 5.63156C122.968 6.23959 121.757 7.05393 120.733 8.0637C119.709 9.07709 118.893 10.257 118.29 11.6106C117.686 12.9642 117.385 14.3721 117.385 15.827C117.385 17.2819 117.686 18.7224 118.29 20.047C118.893 21.3717 119.705 22.5407 120.733 23.5505C121.757 24.5639 122.957 25.3674 124.327 25.9609C125.698 26.5581 127.154 26.8549 128.692 26.8549C129.746 26.8549 130.774 26.7137 131.769 26.4314C132.763 26.1491 133.69 25.7546 134.551 25.2479C135.411 24.7412 136.193 24.1404 136.901 23.4383C137.609 22.7398 138.205 21.958 138.689 21.0966L140.86 23.2827C139.594 25.2479 137.914 26.8295 135.817 28.0347C133.72 29.24 131.348 29.8407 128.696 29.8407C126.707 29.8407 124.837 29.468 123.087 28.726C121.34 27.9841 119.824 26.9779 118.543 25.7148C117.262 24.4517 116.245 22.9642 115.489 21.2523C114.733 19.5404 114.357 17.7199 114.357 15.7836L114.36 15.7763Z" fill="#E6E6E6" stroke="#E6E6E6" stroke-width="0.92"/>
<path d="M157.185 1.85306H178.664V4.66522H160.35V26.8911H178.664V29.7032H157.185V1.85306ZM178.302 17.966H164.779V15.1538H178.302V17.966Z" fill="#E6E6E6" stroke="#E6E6E6" stroke-width="0.92"/>
<path d="M194.493 29.6996V1.85306H206.251C208.24 1.85306 210.109 2.2186 211.856 2.94607C213.603 3.67716 215.119 4.6797 216.4 5.95729C217.681 7.23851 218.698 8.72602 219.454 10.4198C220.207 12.1173 220.586 13.9305 220.586 15.8632C220.586 17.7959 220.181 19.6055 219.365 21.2848C218.549 22.9678 217.48 24.43 216.154 25.6822C214.828 26.9309 213.313 27.9153 211.61 28.6283C209.905 29.3413 208.15 29.6996 206.34 29.6996H194.493ZM197.659 26.844H206.251C207.636 26.844 209.014 26.5545 210.389 25.9754C211.759 25.3963 212.974 24.6001 214.028 23.5867C215.082 22.5769 215.942 21.4151 216.605 20.105C217.268 18.7948 217.599 17.3978 217.599 15.9102C217.599 14.4227 217.298 13.0474 216.694 11.6938C216.091 10.3402 215.279 9.14948 214.255 8.12523C213.231 7.09736 212.031 6.27941 210.661 5.67137C209.29 5.06334 207.834 4.7557 206.296 4.7557H197.659V26.8476V26.844Z" fill="#26E1BE" stroke="#26E1BE" stroke-width="0.92"/>
<path d="M235.823 1.85306H257.302V4.66522H238.989V26.8911H257.302V29.7032H235.823V1.85306ZM256.941 17.966H243.418V15.1538H256.941V17.966Z" fill="#26E1BE" stroke="#26E1BE" stroke-width="0.92"/>
<path d="M272.096 1.85306H275.534L282.588 15.9102L275.534 29.6996H272.096L279.016 15.9102L272.096 1.85306ZM296.29 1.85306H299.728L292.808 15.9102L299.728 29.6996H296.29L289.236 15.9102L296.29 1.85306Z" fill="#26E1BE" stroke="#26E1BE" stroke-width="0.92"/>
</g>
<defs>
<clipPath id="clip0_12_85">
<rect width="300" height="30" fill="white"/>
</clipPath>
</defs>
</svg>
