<svg width="24" height="24" viewBox="0 0 24 24" fill="none" xmlns="http://www.w3.org/2000/svg">
<g clip-path="url(#clip0_644_2060)">
<path d="M12.1793 24.0002C5.49809 24.0875 0.116276 18.7541 -8.77516e-05 12.2184C-0.116451 5.50809 5.22658 0.126268 11.7526 0.000207376C18.4823 -0.13555 23.8642 5.21718 23.9999 11.7335C24.1357 18.4826 18.7539 23.9032 12.1793 24.0002ZM11.1999 10.2305C11.1999 10.2305 11.2387 10.2305 11.2484 10.2208C11.7139 9.9396 12.1793 9.66809 12.6448 9.38687C12.7029 9.35778 12.7126 9.3093 12.7126 9.25112C12.7126 8.84384 12.7126 8.44627 12.7126 8.03899C12.7126 7.63172 12.5381 7.33112 12.1793 7.11778C11.1417 6.49718 10.1042 5.88627 9.07628 5.25596C8.71749 5.04263 8.3684 5.03293 8.01931 5.24627C6.94294 5.87657 5.87628 6.50687 4.80961 7.13718C4.47022 7.34081 4.30537 7.63172 4.30537 8.0293C4.30537 9.3093 4.30537 10.5796 4.30537 11.8596C4.30537 12.2572 4.47991 12.5578 4.829 12.7517C5.10052 12.9069 5.37203 13.0717 5.64355 13.2269C6.429 13.6923 7.22415 14.1578 8.00961 14.6232C8.3587 14.8269 8.69809 14.8366 9.04718 14.6426C9.43506 14.4196 9.81325 14.1966 10.1914 13.9638C11.7817 13.0232 13.3623 12.0729 14.9526 11.1323C15.2726 10.9481 15.6023 10.9287 15.9126 11.1032C16.5139 11.4426 17.1054 11.7917 17.6872 12.1505C17.9684 12.3251 18.1429 12.5869 18.1429 12.9166C18.1526 13.6632 18.1526 14.4002 18.1429 15.1469C18.1429 15.4572 17.9781 15.7093 17.7163 15.8741C17.1539 16.2232 16.5914 16.5529 16.0387 16.902C15.6411 17.1541 15.2726 17.1348 14.8751 16.902C14.3514 16.582 13.8084 16.2717 13.2848 15.9614C12.9454 15.7578 12.7611 15.4669 12.7611 15.0693C12.7611 14.6814 12.7611 14.2838 12.7611 13.896C12.7611 13.7893 12.7417 13.7602 12.6351 13.8184C12.1987 14.0802 11.7623 14.342 11.3163 14.6038C11.2484 14.6426 11.2387 14.6911 11.2387 14.759C11.2387 15.1566 11.2387 15.5541 11.2387 15.942C11.2387 16.3396 11.4035 16.6499 11.7526 16.8535C12.8096 17.4741 13.8763 18.0948 14.9332 18.7251C15.3017 18.9481 15.6605 18.9384 16.029 18.7251C17.0666 18.1141 18.1139 17.5032 19.1514 16.8923C19.5393 16.6693 19.7235 16.3396 19.7235 15.8838C19.7235 14.6329 19.7235 13.382 19.7235 12.1408C19.7235 11.7432 19.5587 11.4523 19.2193 11.2487C18.7732 10.9869 18.3272 10.7154 17.8811 10.4535C17.2702 10.0851 16.6496 9.72627 16.0387 9.35778C15.6411 9.11536 15.2629 9.12506 14.8751 9.36748C14.2351 9.76506 13.5951 10.1529 12.9551 10.5311C11.6848 11.2778 10.4145 12.0148 9.17325 12.7905C8.77567 13.0329 8.39749 13.062 7.99991 12.8293C7.45688 12.4996 6.91385 12.1796 6.36112 11.8499C5.99264 11.6366 5.81809 11.3166 5.81809 10.8899C5.81809 10.2402 5.81809 9.59051 5.81809 8.94081C5.81809 8.53354 5.98294 8.23293 6.33203 8.0293C6.90415 7.6996 7.46658 7.36021 8.0387 7.02081C8.349 6.83657 8.6787 6.83657 8.97931 7.01112C9.58052 7.35051 10.1817 7.6996 10.7635 8.06809C11.0545 8.24263 11.2096 8.52384 11.2096 8.87293C11.2096 9.11536 11.2096 9.35778 11.2096 9.6099C11.2096 9.81354 11.2096 10.0172 11.2096 10.2208L11.1999 10.2305Z" fill="#7A4FDD"/>
<path d="M11.2001 10.2303C11.2001 10.017 11.2001 9.81333 11.2001 9.61939C11.2001 9.37697 11.2001 9.13454 11.2001 8.88242C11.2001 8.53333 11.0353 8.26181 10.7541 8.07757C10.1626 7.71878 9.57105 7.36 8.96984 7.0206C8.65953 6.84606 8.33953 6.84606 8.02923 7.0303C7.45711 7.36 6.89469 7.69939 6.32257 8.03878C5.97347 8.24242 5.80863 8.55272 5.80863 8.9503C5.80863 9.6 5.80863 10.2497 5.80863 10.8994C5.80863 11.3261 5.98317 11.6364 6.35166 11.8594C6.89469 12.1794 7.43772 12.5091 7.99044 12.8388C8.38802 13.0812 8.7662 13.0521 9.16378 12.8C10.4147 12.0242 11.6753 11.2776 12.9456 10.5406C13.5953 10.1624 14.2353 9.76485 14.8656 9.37697C15.2535 9.13454 15.6317 9.12484 16.0292 9.36727C16.6401 9.73575 17.2607 10.0945 17.8717 10.463C18.3177 10.7248 18.7638 10.9964 19.2098 11.2582C19.5492 11.4618 19.7141 11.7527 19.7141 12.1503C19.7141 13.4012 19.7141 14.6521 19.7141 15.8933C19.7141 16.3491 19.5298 16.6788 19.142 16.9018C18.1044 17.5127 17.0571 18.1236 16.0195 18.7345C15.651 18.9479 15.302 18.9576 14.9238 18.7345C13.8668 18.1042 12.8098 17.4836 11.7432 16.863C11.3941 16.6594 11.2292 16.3491 11.2292 15.9515C11.2292 15.5539 11.2292 15.1564 11.2292 14.7685C11.2292 14.7006 11.2389 14.6521 11.3068 14.6133C11.7432 14.3515 12.1892 14.0897 12.6256 13.8279C12.7323 13.76 12.7517 13.7988 12.7517 13.9055C12.7517 14.2933 12.7517 14.6909 12.7517 15.0788C12.7517 15.4764 12.9359 15.7673 13.2753 15.9709C13.8086 16.2812 14.342 16.5915 14.8656 16.9115C15.2535 17.1539 15.6317 17.1636 16.0292 16.9115C16.582 16.5624 17.1541 16.2327 17.7068 15.8836C17.9686 15.7188 18.1335 15.4667 18.1335 15.1564C18.1432 14.4097 18.1432 13.6727 18.1335 12.9261C18.1335 12.5964 17.9589 12.3248 17.6777 12.16C17.0862 11.8012 16.4947 11.4521 15.9032 11.1127C15.5832 10.9382 15.2535 10.9479 14.9432 11.1418C13.3529 12.0824 11.7723 13.0327 10.182 13.9733C9.80378 14.1964 9.4159 14.4291 9.03772 14.6521C8.68863 14.8461 8.34923 14.8364 8.00014 14.6327C7.21469 14.1673 6.42923 13.7018 5.63408 13.2364C5.36257 13.0715 5.09105 12.9164 4.81953 12.7612C4.47044 12.5673 4.2959 12.2667 4.2959 11.8691C4.2959 10.5891 4.2959 9.31878 4.2959 8.03878C4.2959 7.65091 4.46075 7.3503 4.80014 7.14666C5.8765 6.51636 6.94317 5.88606 8.00984 5.25575C8.35893 5.05212 8.70802 5.05212 9.06681 5.26545C10.1044 5.88606 11.1323 6.50666 12.1698 7.12727C12.5189 7.3406 12.7032 7.63151 12.7032 8.04848C12.7032 8.45575 12.7032 8.85333 12.7032 9.2606C12.7032 9.31878 12.6935 9.35757 12.6353 9.39636C12.1698 9.66787 11.7044 9.94909 11.2389 10.2303C11.2292 10.2303 11.2195 10.2303 11.1904 10.24L11.2001 10.2303Z" fill="#FDFCFD"/>
</g>
<defs>
<clipPath id="clip0_644_2060">
<rect width="24" height="24" fill="white"/>
</clipPath>
</defs>
</svg>
