<svg width="48" height="48" viewBox="0 0 48 48" fill="none" xmlns="http://www.w3.org/2000/svg">
<circle cx="24" cy="24" r="23.5" fill="#000911" stroke="url(#paint0_linear_857_1374)"/>
<path d="M32.146 32.3431C31.5428 34.1687 31.3124 34.3272 29.2006 34.3763C29.0987 35.147 28.7797 35.792 28.0184 36.1111C27.2512 36.4332 26.4832 36.3373 25.6304 36.0732C25.8401 35.7518 26.0173 35.4654 26.2145 35.1931C26.2484 35.1455 26.3651 35.144 26.4434 35.1455C26.6272 35.1485 26.8111 35.1797 26.9942 35.1753C27.441 35.1656 27.785 34.9632 27.9482 34.5399C28.1114 34.1181 28.1882 33.7157 27.8227 33.3035C26.9551 32.323 26.1222 31.3113 25.2981 30.2936C25.1896 30.1589 25.1364 29.8822 25.1992 29.7312C25.256 29.5935 25.499 29.4871 25.6732 29.4633C25.7899 29.447 25.9582 29.5727 26.0535 29.6806C27.0341 30.7927 28.0007 31.9161 28.9783 33.0312C29.3394 33.4434 30.1369 33.5163 30.6102 33.1994C31.1064 32.8668 31.305 32.2888 31.0768 31.7755C31.003 31.6103 30.8819 31.4615 30.7638 31.3217C29.8799 30.2727 28.9931 29.226 28.1033 28.183C27.8921 27.9353 27.7777 27.6794 27.9778 27.3781C28.2406 26.9808 28.6556 26.9868 28.9931 27.3945C29.6702 28.2135 30.3406 29.0378 31.0155 29.8591C31.3139 30.2222 31.6572 30.5554 31.9053 30.9497C32.2265 31.4608 33.055 31.6215 33.6324 31.3559C34.4292 30.9891 34.9305 30.0548 34.7969 29.1263C34.6832 29.2164 34.5813 29.296 34.4794 29.3763C34.4373 29.418 34.3952 29.4604 34.3531 29.502C34.2837 29.3703 34.2372 29.2171 34.1405 29.1107C31.302 26.0152 28.4585 22.9249 25.6171 19.8324C25.2228 19.4031 25.0522 19.389 24.5324 19.6702C22.8525 20.5793 21.1786 21.4995 19.4751 22.3603C19.018 22.5909 18.4686 22.6526 17.9525 22.7389C17.6438 22.791 17.3928 22.614 17.2097 22.3454C16.6049 21.4571 16.7319 20.3256 17.5877 19.6925C19.8022 18.0544 22.1193 16.5725 24.5959 15.3695C25.1681 15.0913 25.8386 14.9797 26.4781 14.889C27.2645 14.7774 27.9925 15.0229 28.6128 15.5295C29.9146 16.5918 31.4076 16.7934 32.9996 16.5219C33.2588 16.478 33.3888 16.5152 33.5254 16.751C35.1041 19.4671 36.6909 22.1788 38.2895 24.8829C38.4483 25.1515 38.4121 25.2988 38.2031 25.5108C37.4064 26.3202 36.6215 27.143 35.8558 27.9822C35.728 28.1228 35.6682 28.3675 35.6579 28.5676C35.6313 29.0854 35.6948 29.6099 35.6409 30.1232C35.5021 31.4296 34.7452 32.1884 33.4493 32.3364C33.0255 32.3848 32.592 32.3438 32.1468 32.3438L32.146 32.3431Z" fill="url(#paint1_linear_857_1374)"/>
<path d="M8.80868 25.6382C8.67946 25.5995 8.54803 25.569 8.4225 25.5206C7.80224 25.2811 7.18199 25.0408 6.56542 24.7923C6.0382 24.5795 5.88019 24.2321 6.08768 23.6958C7.39391 20.3124 8.70457 16.9304 10.0197 13.55C10.2183 13.0389 10.5749 12.8879 11.0844 13.0821C11.6825 13.3097 12.2762 13.5485 12.8721 13.7829C13.5374 14.0447 13.6762 14.3542 13.4163 15.0252C12.2002 18.1654 10.9825 21.304 9.76565 24.4434C9.67188 24.6859 9.61576 24.956 9.47103 25.1628C9.32187 25.3756 9.08558 25.5273 8.88769 25.7059L8.80942 25.6397L8.80868 25.6382Z" fill="url(#paint2_linear_857_1374)"/>
<path d="M42 23.4591C41.856 23.6391 41.7379 23.8846 41.5429 24.0125C40.9352 24.4113 40.3039 24.7743 39.6718 25.1337C39.2229 25.3888 38.8766 25.2884 38.613 24.8383C36.9191 21.9459 35.2274 19.0528 33.5387 16.1574C33.2699 15.6961 33.36 15.3234 33.8089 15.0489C34.4078 14.6821 35.0118 14.3228 35.6217 13.9747C36.1068 13.6979 36.4517 13.7976 36.7359 14.2834C38.4217 17.1661 40.1053 20.0496 41.7859 22.9353C41.8641 23.07 41.9062 23.227 42 23.4591Z" fill="url(#paint3_linear_857_1374)"/>
<path d="M23.1582 15.2185C22.9301 15.3614 22.7078 15.5168 22.4693 15.6411C22.3873 15.6842 22.2588 15.6738 22.1636 15.6463C22.0359 15.6091 21.9177 15.5347 21.7981 15.4707C21.2435 15.1731 20.7171 15.1806 20.1566 15.5072C19.2307 16.0465 18.2538 16.4996 17.3404 17.0575C16.4336 17.611 15.6022 17.5403 14.7619 16.9616C14.6223 16.8648 14.4709 16.7852 14.3107 16.69C14.2679 16.7466 14.2295 16.7793 14.2132 16.821C13.2481 19.3265 12.2912 21.8358 11.3143 24.3376C11.1282 24.8145 11.1969 25.1731 11.5506 25.5406C12.2262 26.2436 12.8693 26.9786 13.525 27.701C13.607 27.791 13.6868 27.884 13.8012 28.0142C13.5472 28.25 13.3072 28.4732 13.0436 28.7179C12.7807 28.4404 12.5171 28.1659 12.2572 27.8877C11.6 27.1832 10.9554 26.4668 10.282 25.7786C10.0206 25.5116 9.95414 25.2341 10.0664 24.903C10.2812 24.2707 10.4976 23.6383 10.7368 23.0149C11.6813 20.5533 12.6345 18.0953 13.5856 15.6359C13.8389 14.982 14.3004 14.889 14.7899 15.3807C15.024 15.6165 15.2632 15.8509 15.5209 16.0592C15.837 16.3143 16.1899 16.35 16.5562 16.1514C17.1735 15.8159 17.7841 15.4692 18.4103 15.1523C18.9804 14.8629 19.5622 14.5966 20.147 14.337C20.6322 14.1212 21.1328 14.1242 21.6164 14.3429C22.1392 14.5795 22.6517 14.8384 23.1678 15.0876C23.1641 15.1315 23.1604 15.1754 23.1567 15.2193L23.1582 15.2185Z" fill="url(#paint4_linear_857_1374)"/>
<path d="M20.3811 35.3679C19.6198 35.3077 19.1923 35.0302 18.9575 34.4968C18.7293 33.9798 18.8245 33.514 19.2203 33.0997C20.0215 32.2613 20.8079 31.4072 21.6083 30.5681C22.1474 30.0027 22.8909 29.9915 23.4432 30.5242C24.0155 31.0754 24.0354 31.8283 23.4942 32.4034C22.6989 33.2477 21.917 34.1062 21.0988 34.9283C20.8721 35.1559 20.5384 35.2749 20.3811 35.3679Z" fill="url(#paint5_linear_857_1374)"/>
<path d="M17.7251 33.2738C17.0059 33.1748 16.3642 32.5856 16.2844 31.9198C16.2409 31.559 16.3672 31.2726 16.6145 31.0152C17.2806 30.3196 17.937 29.6151 18.5971 28.9136C19.1 28.3794 19.6944 28.3363 20.2681 28.7931C20.9785 29.3584 21.0309 30.1016 20.4084 30.7637C19.7653 31.4467 19.1362 32.1437 18.4731 32.8073C18.2707 33.0097 17.9769 33.1213 17.7251 33.2738Z" fill="url(#paint6_linear_857_1374)"/>
<path d="M23.4543 37.0001C22.7691 36.9718 22.3608 36.7368 22.1193 36.2495C21.8778 35.763 21.9022 35.2653 22.2478 34.8546C22.6989 34.3175 23.1819 33.8027 23.6943 33.3251C24.1861 32.8668 24.9385 32.9249 25.4377 33.3928C25.9088 33.8347 26.0225 34.6061 25.609 35.112C25.1423 35.6826 24.6217 36.213 24.0842 36.7174C23.8944 36.8952 23.585 36.9443 23.4543 37.0001Z" fill="url(#paint7_linear_857_1374)"/>
<path d="M16.822 29.0929C16.695 29.3503 16.6093 29.6411 16.4329 29.8576C16.091 30.2765 15.7078 30.664 15.3238 31.0457C14.835 31.5307 14.067 31.5054 13.5686 31.0092C13.0591 30.5019 13.0215 29.7639 13.4896 29.2446C13.8359 28.8608 14.1911 28.4836 14.5522 28.1131C14.9428 27.7129 15.4405 27.6191 15.9374 27.8334C16.4314 28.0461 16.7467 28.523 16.8227 29.0936L16.822 29.0929Z" fill="url(#paint8_linear_857_1374)"/>
<defs>
<linearGradient id="paint0_linear_857_1374" x1="0" y1="23.9984" x2="48" y2="23.9984" gradientUnits="userSpaceOnUse">
<stop stop-color="#26E1BE"/>
<stop offset="0.14" stop-color="#000911" stop-opacity="0.5"/>
<stop offset="0.72" stop-color="#106359" stop-opacity="0.96"/>
<stop offset="0.75" stop-color="#0C4F48" stop-opacity="0.87"/>
<stop offset="0.81" stop-color="#062D2D" stop-opacity="0.72"/>
<stop offset="0.85" stop-color="#02181D" stop-opacity="0.63"/>
<stop offset="0.88" stop-color="#011117" stop-opacity="0.6"/>
<stop offset="1" stop-color="#178978" stop-opacity="0.97"/>
</linearGradient>
<linearGradient id="paint1_linear_857_1374" x1="43.7881" y1="23.4995" x2="4.83227" y2="30.1402" gradientUnits="userSpaceOnUse">
<stop stop-color="#D991C6"/>
<stop offset="0.14" stop-color="#C699C5"/>
<stop offset="0.43" stop-color="#95AFC2"/>
<stop offset="0.83" stop-color="#47D1BF"/>
<stop offset="1" stop-color="#26E1BE"/>
</linearGradient>
<linearGradient id="paint2_linear_857_1374" x1="43.7881" y1="23.4995" x2="4.83227" y2="30.1402" gradientUnits="userSpaceOnUse">
<stop stop-color="#D991C6"/>
<stop offset="0.14" stop-color="#C699C5"/>
<stop offset="0.43" stop-color="#95AFC2"/>
<stop offset="0.83" stop-color="#47D1BF"/>
<stop offset="1" stop-color="#26E1BE"/>
</linearGradient>
<linearGradient id="paint3_linear_857_1374" x1="43.7881" y1="23.4995" x2="4.83227" y2="30.1402" gradientUnits="userSpaceOnUse">
<stop stop-color="#D991C6"/>
<stop offset="0.14" stop-color="#C699C5"/>
<stop offset="0.43" stop-color="#95AFC2"/>
<stop offset="0.83" stop-color="#47D1BF"/>
<stop offset="1" stop-color="#26E1BE"/>
</linearGradient>
<linearGradient id="paint4_linear_857_1374" x1="43.7881" y1="23.4995" x2="4.83227" y2="30.1402" gradientUnits="userSpaceOnUse">
<stop stop-color="#D991C6"/>
<stop offset="0.14" stop-color="#C699C5"/>
<stop offset="0.43" stop-color="#95AFC2"/>
<stop offset="0.83" stop-color="#47D1BF"/>
<stop offset="1" stop-color="#26E1BE"/>
</linearGradient>
<linearGradient id="paint5_linear_857_1374" x1="43.7881" y1="23.4995" x2="4.83227" y2="30.1402" gradientUnits="userSpaceOnUse">
<stop stop-color="#D991C6"/>
<stop offset="0.14" stop-color="#C699C5"/>
<stop offset="0.43" stop-color="#95AFC2"/>
<stop offset="0.83" stop-color="#47D1BF"/>
<stop offset="1" stop-color="#26E1BE"/>
</linearGradient>
<linearGradient id="paint6_linear_857_1374" x1="43.7881" y1="23.4995" x2="4.83227" y2="30.1402" gradientUnits="userSpaceOnUse">
<stop stop-color="#D991C6"/>
<stop offset="0.14" stop-color="#C699C5"/>
<stop offset="0.43" stop-color="#95AFC2"/>
<stop offset="0.83" stop-color="#47D1BF"/>
<stop offset="1" stop-color="#26E1BE"/>
</linearGradient>
<linearGradient id="paint7_linear_857_1374" x1="43.7881" y1="23.4995" x2="4.83227" y2="30.1402" gradientUnits="userSpaceOnUse">
<stop stop-color="#D991C6"/>
<stop offset="0.14" stop-color="#C699C5"/>
<stop offset="0.43" stop-color="#95AFC2"/>
<stop offset="0.83" stop-color="#47D1BF"/>
<stop offset="1" stop-color="#26E1BE"/>
</linearGradient>
<linearGradient id="paint8_linear_857_1374" x1="43.7881" y1="23.4995" x2="4.83227" y2="30.1402" gradientUnits="userSpaceOnUse">
<stop stop-color="#D991C6"/>
<stop offset="0.14" stop-color="#C699C5"/>
<stop offset="0.43" stop-color="#95AFC2"/>
<stop offset="0.83" stop-color="#47D1BF"/>
<stop offset="1" stop-color="#26E1BE"/>
</linearGradient>
</defs>
</svg>
