<svg width="15" height="15" viewBox="0 0 15 15" fill="none" xmlns="http://www.w3.org/2000/svg">
<path fill-rule="evenodd" clip-rule="evenodd" d="M1 7.5C1 11.0899 3.91015 14 7.5 14C11.0899 14 14 11.0899 14 7.5C14 3.91015 11.0899 1 7.5 1C3.91015 1 1 3.91015 1 7.5ZM7.5 0C3.35786 0 0 3.35786 0 7.5C0 11.6421 3.35786 15 7.5 15C11.6421 15 15 11.6421 15 7.5C15 3.35786 11.6421 0 7.5 0Z" fill="#6A96A0"/>
<path d="M6.81459 9.32316V9.21163C6.81745 8.69399 6.86606 8.28217 6.96044 7.97617C7.05767 7.67016 7.19495 7.42421 7.37226 7.23832C7.54957 7.04957 7.76549 6.87655 8.02002 6.71926C8.19447 6.61058 8.35033 6.4919 8.48761 6.3632C8.62774 6.23165 8.73785 6.0858 8.81792 5.92564C8.898 5.76263 8.93804 5.58103 8.93804 5.38084C8.93804 5.15491 8.88513 4.95901 8.77931 4.79314C8.6735 4.62726 8.53051 4.49857 8.35033 4.40705C8.17302 4.31554 7.97426 4.26978 7.75405 4.26978C7.551 4.26978 7.35796 4.31411 7.17493 4.40276C6.99476 4.48856 6.84461 4.62011 6.7245 4.79743C6.60724 4.97188 6.54147 5.19352 6.52717 5.46235H5C5.0143 4.91897 5.14585 4.46425 5.39466 4.09819C5.64633 3.73213 5.97807 3.45758 6.38989 3.27455C6.80458 3.09152 7.26215 3 7.76263 3C8.30887 3 8.78932 3.09581 9.204 3.28742C9.62154 3.47903 9.94614 3.75214 10.1778 4.10677C10.4123 4.45853 10.5296 4.87607 10.5296 5.35939C10.5296 5.68541 10.4766 5.97712 10.3708 6.23451C10.2679 6.4919 10.1206 6.72069 9.92898 6.92088C9.73737 7.12107 9.51001 7.29981 9.2469 7.4571C9.01525 7.6001 8.82507 7.74881 8.67636 7.90324C8.53051 8.05767 8.42183 8.23927 8.35033 8.44805C8.2817 8.65396 8.24595 8.90849 8.24309 9.21163V9.32316H6.81459ZM7.56101 12C7.30362 12 7.08198 11.9085 6.89609 11.7255C6.7102 11.5424 6.61725 11.3194 6.61725 11.0562C6.61725 10.7989 6.7102 10.5786 6.89609 10.3956C7.08198 10.2126 7.30362 10.1211 7.56101 10.1211C7.81554 10.1211 8.03575 10.2126 8.22164 10.3956C8.41039 10.5786 8.50477 10.7989 8.50477 11.0562C8.50477 11.2307 8.46044 11.3894 8.37178 11.5324C8.28599 11.6754 8.17159 11.7898 8.0286 11.8756C7.88847 11.9585 7.7326 12 7.56101 12Z" fill="#6A96A0"/>
</svg>
