<svg width="13" height="14" viewBox="0 0 13 14" fill="none" xmlns="http://www.w3.org/2000/svg">
<path fill-rule="evenodd" clip-rule="evenodd" d="M5.5 10C7.98528 10 10 7.98528 10 5.5C10 3.01472 7.98528 1 5.5 1C3.01472 1 1 3.01472 1 5.5C1 7.98528 3.01472 10 5.5 10ZM5.5 11C8.53757 11 11 8.53757 11 5.5C11 2.46243 8.53757 0 5.5 0C2.46243 0 0 2.46243 0 5.5C0 8.53757 2.46243 11 5.5 11Z" fill="url(#paint0_linear_139_315)"/>
<path fill-rule="evenodd" clip-rule="evenodd" d="M8.29289 9.29289C8.68342 8.90237 9.31658 8.90237 9.70711 9.29289L12.7071 12.2929C13.0976 12.6834 13.0976 13.3166 12.7071 13.7071C12.3166 14.0976 11.6834 14.0976 11.2929 13.7071L8.29289 10.7071C7.90237 10.3166 7.90237 9.68342 8.29289 9.29289Z" fill="url(#paint1_linear_139_315)"/>
<defs>
<linearGradient id="paint0_linear_139_315" x1="-2.01079" y1="-1.51666" x2="18.6689" y2="0.57529" gradientUnits="userSpaceOnUse">
<stop stop-color="#26E1BE"/>
<stop offset="0.9375" stop-color="#0A2230"/>
</linearGradient>
<linearGradient id="paint1_linear_139_315" x1="-2.01079" y1="-1.51666" x2="18.6689" y2="0.57529" gradientUnits="userSpaceOnUse">
<stop stop-color="#26E1BE"/>
<stop offset="0.9375" stop-color="#0A2230"/>
</linearGradient>
</defs>
</svg>
