<svg width="41" height="40" viewBox="0 0 41 40" fill="none" xmlns="http://www.w3.org/2000/svg">
<path d="M19.9528 39.5C9.21085 39.5 0.5 30.745 0.5 20C0.5 9.25498 9.21085 0.5 19.9528 0.5C30.6947 0.5 39.4056 9.25498 39.4056 20C39.4056 30.745 30.6947 39.5 19.9528 39.5Z" fill="url(#paint0_linear_804_866)" stroke="url(#paint1_linear_804_866)"/>
<path d="M11.6654 16.7829C11.8064 16.741 11.948 16.7011 12.0903 16.6625C11.8611 16.3716 11.6449 16.0855 11.443 15.8061C10.0075 13.8172 9.43681 12.308 9.91647 11.7695C10.0615 11.6065 10.3085 11.5267 10.6431 11.5267C11.4122 11.5267 12.6425 11.9495 14.1602 12.7545C14.4701 12.9189 14.789 13.0974 15.114 13.2875C15.2289 13.1955 15.346 13.1069 15.4664 13.0224C15.0859 12.7971 14.7144 12.5874 14.3538 12.3966C12.6363 11.4861 10.4187 10.5918 9.60788 11.5016C8.79705 12.4122 9.97668 14.4734 11.1084 16.0422C11.2836 16.285 11.4697 16.5319 11.6654 16.7829Z" fill="url(#paint2_linear_804_866)"/>
<path d="M29.4571 26.623C30.2399 27.9557 30.4903 28.9393 30.1229 29.3519C29.6433 29.8904 28.0572 29.5224 25.8792 28.3677C25.7903 28.3203 25.7006 28.2716 25.6103 28.2222C25.4208 28.2743 25.2306 28.323 25.039 28.3697C25.2579 28.4942 25.4735 28.6125 25.6856 28.7248C26.896 29.3668 28.3541 30 29.3942 30C29.8301 30 30.1927 29.8884 30.4322 29.6198C31.0268 28.9515 30.5506 27.6648 29.8075 26.4072C29.6925 26.4816 29.5755 26.5533 29.4571 26.623Z" fill="url(#paint3_linear_804_866)"/>
<path d="M16.0884 28.5577C16.0295 28.5834 15.9707 28.6092 15.9125 28.6342C13.4917 29.6624 11.638 29.7138 10.6924 28.7783C10.1751 28.2669 9.95684 27.4862 10.0348 26.4931C9.89594 26.4133 9.76867 26.3362 9.64825 26.2584C9.51277 27.472 9.7632 28.4333 10.4023 29.0651C10.9292 29.586 11.6825 29.8458 12.6186 29.8458C13.5546 29.8458 14.7582 29.5657 16.0747 29.0069C16.3244 28.9007 16.5769 28.7857 16.8315 28.6619C16.5824 28.6308 16.3354 28.597 16.0884 28.5577Z" fill="url(#paint4_linear_804_866)"/>
<path d="M21.6355 11.7817C22.4833 11.2608 23.3195 10.8224 24.1276 10.4795C25.3982 9.93963 26.5121 9.66904 27.4215 9.66904C28.244 9.66904 28.8981 9.89093 29.3477 10.3347C30.2933 11.2696 30.242 13.1029 29.2012 15.4956C29.0055 15.9454 28.7791 16.4048 28.5245 16.8695C28.6552 16.9142 28.7852 16.9608 28.9145 17.0089C29.1629 16.5516 29.3853 16.099 29.5782 15.6552C30.6895 13.0995 30.71 11.1072 29.6378 10.0472C28.5649 8.98647 26.5505 9.00744 23.9654 10.106C23.03 10.5031 22.0577 11.0254 21.0751 11.6518C21.264 11.6877 21.4508 11.7316 21.6355 11.7817Z" fill="url(#paint5_linear_804_866)"/>
<path d="M19.7128 26.1569C17.1551 26.1501 14.6576 25.7896 12.2627 24.8655C11.1816 24.4481 10.1601 23.9238 9.27602 23.1662C8.99342 22.924 8.73752 22.6582 8.51924 22.3571C7.7652 21.316 7.83294 20.2519 8.71904 19.315C9.37455 18.6216 10.1929 18.1697 11.0571 17.7902C11.8371 17.4479 12.6473 17.1902 13.4752 16.9892C13.5902 16.9615 13.6497 16.9094 13.6983 16.7985C14.685 14.5384 16.4059 13.1881 18.8691 12.8214C21.7259 12.3959 24.6284 14.0783 25.7013 16.7423C25.7595 16.8871 25.8361 16.9642 25.9976 17.0048C27.3243 17.3376 28.6053 17.7834 29.7589 18.5336C30.1667 18.7988 30.5382 19.1066 30.8503 19.4821C31.5612 20.3385 31.6146 21.3065 30.9919 22.2306C30.4685 23.0086 29.7343 23.5552 28.9337 24.0206C27.5105 24.8479 25.9627 25.3499 24.3575 25.6915C22.9773 25.9851 21.5808 26.1414 20.1685 26.1576C20.0173 26.1596 19.8661 26.1576 19.7142 26.1576L19.7128 26.1569ZM19.6054 21.3539C20.8801 21.3478 22.0509 21.2335 23.1915 20.8986C23.8361 20.7099 24.4574 20.4697 24.9719 20.0233C25.2415 19.7892 25.4317 19.5078 25.431 19.1357C25.431 18.811 25.4023 18.487 25.34 18.1683C24.742 15.0863 21.9031 13.1076 18.7733 13.5879C16.1144 13.9958 14.0507 16.3351 13.9877 18.9937C13.9775 19.4259 14.1389 19.754 14.453 20.0287C14.8075 20.3392 15.2242 20.5455 15.6628 20.7092C16.9621 21.1942 18.319 21.3377 19.6054 21.3539ZM20.549 23.5626C20.551 23.0952 20.1877 22.7312 19.7169 22.7292C19.2427 22.7272 18.8746 23.0843 18.8719 23.5498C18.8691 24.0138 19.2373 24.3839 19.7039 24.3866C20.1719 24.3893 20.5469 24.0246 20.549 23.5626ZM12.2607 21.9966C12.726 21.9952 13.103 21.6204 13.0996 21.1638C13.0962 20.7072 12.713 20.3338 12.2504 20.3365C11.7858 20.3392 11.4143 20.7119 11.4157 21.1733C11.417 21.636 11.7892 21.9979 12.2607 21.9966ZM28.0045 21.1638C28.0024 20.7038 27.6247 20.3331 27.1601 20.3365C26.6976 20.3392 26.3158 20.7207 26.3212 21.174C26.3267 21.6353 26.7024 21.9999 27.1697 21.9972C27.6405 21.9945 28.0065 21.6285 28.0045 21.1638ZM16.2738 22.7312C16.2738 22.2617 15.9125 21.9005 15.4417 21.8985C14.9751 21.8964 14.5988 22.2651 14.596 22.7251C14.5933 23.1804 14.9724 23.5572 15.4363 23.5585C15.9064 23.5606 16.2745 23.196 16.2738 22.7312ZM23.147 22.7231C23.1436 23.1892 23.509 23.5572 23.977 23.5585C24.4444 23.5606 24.8193 23.1932 24.8214 22.7332C24.8234 22.2699 24.4546 21.9005 23.9866 21.8985C23.5152 21.8964 23.1505 22.255 23.147 22.7231Z" fill="url(#paint6_linear_804_866)"/>
<path d="M9.32802 24.2066C9.39165 24.1769 9.42381 24.2127 9.45939 24.2364C10.9134 25.2254 12.5344 25.8322 14.232 26.255C16.748 26.8807 19.3016 27.0451 21.8805 26.8097C24.1118 26.6054 26.274 26.115 28.3144 25.1706C28.9145 24.8926 29.4893 24.5692 30.0641 24.1667C30.0374 24.2891 29.969 24.3433 29.9163 24.4028C29.3087 25.0881 28.5669 25.6015 27.7636 26.0331C26.2569 26.8429 24.6387 27.3218 22.9554 27.6053C21.4303 27.8623 19.8941 27.9361 18.3518 27.8244C15.8961 27.6465 13.543 27.0992 11.3835 25.8809C10.6329 25.4574 10.2983 25.1801 9.32802 24.2066Z" fill="url(#paint7_linear_804_866)"/>
<path d="M24.3458 11.1472C24.9456 11.1472 25.4317 10.6665 25.4317 10.0736C25.4317 9.48066 24.9456 9 24.3458 9C23.7461 9 23.2599 9.48066 23.2599 10.0736C23.2599 10.6665 23.7461 11.1472 24.3458 11.1472Z" fill="url(#paint8_linear_804_866)"/>
<path d="M10.0061 29.7964C10.6058 29.7964 11.092 29.3157 11.092 28.7228C11.092 28.1299 10.6058 27.6492 10.0061 27.6492C9.40638 27.6492 8.92021 28.1299 8.92021 28.7228C8.92021 29.3157 9.40638 29.7964 10.0061 29.7964Z" fill="url(#paint9_linear_804_866)"/>
<defs>
<linearGradient id="paint0_linear_804_866" x1="8.12509e-07" y1="-14.1852" x2="52.9695" y2="8.10858" gradientUnits="userSpaceOnUse">
<stop offset="0.189667" stop-color="#0A2230"/>
<stop offset="0.677083" stop-color="#000911"/>
</linearGradient>
<linearGradient id="paint1_linear_804_866" x1="0" y1="19.9987" x2="39.9056" y2="19.9987" gradientUnits="userSpaceOnUse">
<stop stop-color="#26E1BE"/>
<stop offset="0.14" stop-color="#000911" stop-opacity="0.5"/>
<stop offset="0.239573" stop-color="#0C4F48" stop-opacity="0.87"/>
<stop offset="0.744802" stop-color="#106359" stop-opacity="0.96"/>
<stop offset="0.817721" stop-color="#011117" stop-opacity="0.6"/>
<stop offset="0.947935" stop-color="#26E1BE"/>
</linearGradient>
<linearGradient id="paint2_linear_804_866" x1="32.5873" y1="18.1868" x2="6.9165" y2="21.4408" gradientUnits="userSpaceOnUse">
<stop stop-color="#D991C6"/>
<stop offset="0.14" stop-color="#C699C5"/>
<stop offset="0.43" stop-color="#95AFC2"/>
<stop offset="0.83" stop-color="#47D1BF"/>
<stop offset="1" stop-color="#26E1BE"/>
</linearGradient>
<linearGradient id="paint3_linear_804_866" x1="32.5873" y1="18.1868" x2="6.9165" y2="21.4408" gradientUnits="userSpaceOnUse">
<stop stop-color="#D991C6"/>
<stop offset="0.14" stop-color="#C699C5"/>
<stop offset="0.43" stop-color="#95AFC2"/>
<stop offset="0.83" stop-color="#47D1BF"/>
<stop offset="1" stop-color="#26E1BE"/>
</linearGradient>
<linearGradient id="paint4_linear_804_866" x1="32.5873" y1="18.1868" x2="6.9165" y2="21.4408" gradientUnits="userSpaceOnUse">
<stop stop-color="#D991C6"/>
<stop offset="0.14" stop-color="#C699C5"/>
<stop offset="0.43" stop-color="#95AFC2"/>
<stop offset="0.83" stop-color="#47D1BF"/>
<stop offset="1" stop-color="#26E1BE"/>
</linearGradient>
<linearGradient id="paint5_linear_804_866" x1="32.5873" y1="18.1868" x2="6.9165" y2="21.4408" gradientUnits="userSpaceOnUse">
<stop stop-color="#D991C6"/>
<stop offset="0.14" stop-color="#C699C5"/>
<stop offset="0.43" stop-color="#95AFC2"/>
<stop offset="0.83" stop-color="#47D1BF"/>
<stop offset="1" stop-color="#26E1BE"/>
</linearGradient>
<linearGradient id="paint6_linear_804_866" x1="32.5873" y1="18.1868" x2="6.9165" y2="21.4408" gradientUnits="userSpaceOnUse">
<stop stop-color="#D991C6"/>
<stop offset="0.14" stop-color="#C699C5"/>
<stop offset="0.43" stop-color="#95AFC2"/>
<stop offset="0.83" stop-color="#47D1BF"/>
<stop offset="1" stop-color="#26E1BE"/>
</linearGradient>
<linearGradient id="paint7_linear_804_866" x1="32.5873" y1="18.1868" x2="6.9165" y2="21.4408" gradientUnits="userSpaceOnUse">
<stop stop-color="#D991C6"/>
<stop offset="0.14" stop-color="#C699C5"/>
<stop offset="0.43" stop-color="#95AFC2"/>
<stop offset="0.83" stop-color="#47D1BF"/>
<stop offset="1" stop-color="#26E1BE"/>
</linearGradient>
<linearGradient id="paint8_linear_804_866" x1="32.5873" y1="18.1868" x2="6.9165" y2="21.4408" gradientUnits="userSpaceOnUse">
<stop stop-color="#D991C6"/>
<stop offset="0.14" stop-color="#C699C5"/>
<stop offset="0.43" stop-color="#95AFC2"/>
<stop offset="0.83" stop-color="#47D1BF"/>
<stop offset="1" stop-color="#26E1BE"/>
</linearGradient>
<linearGradient id="paint9_linear_804_866" x1="32.5873" y1="18.1868" x2="6.9165" y2="21.4408" gradientUnits="userSpaceOnUse">
<stop stop-color="#D991C6"/>
<stop offset="0.14" stop-color="#C699C5"/>
<stop offset="0.43" stop-color="#95AFC2"/>
<stop offset="0.83" stop-color="#47D1BF"/>
<stop offset="1" stop-color="#26E1BE"/>
</linearGradient>
</defs>
</svg>
