<svg width="50" height="50" viewBox="0 0 50 50" fill="none" xmlns="http://www.w3.org/2000/svg">
<path d="M-1.09278e-06 25C-1.69631e-06 38.8071 11.1929 50 25 50C38.8071 50 50 38.8071 50 25C50 11.1929 38.8071 -4.89256e-07 25 -1.09278e-06C11.1929 -1.69631e-06 -4.89256e-07 11.1929 -1.09278e-06 25Z" fill="white"/>
<path fill-rule="evenodd" clip-rule="evenodd" d="M35.4542 23.8111C35.0637 24.2015 34.4307 24.2015 34.0403 23.8111L28.5812 18.352L28.5812 34.0617C28.5812 34.6139 28.1336 35.0615 27.5814 35.0615C27.0292 35.0615 26.5816 34.6139 26.5816 34.0617L26.5816 13.5246L35.4542 22.3972C35.8446 22.7876 35.8446 23.4206 35.4542 23.8111ZM21.4188 31.648L21.4188 15.9383C21.4188 15.3861 21.8664 14.9385 22.4186 14.9385C22.9708 14.9385 23.4184 15.3861 23.4184 15.9383L23.4184 36.4754L14.5458 27.6028C14.1554 27.2124 14.1554 26.5794 14.5458 26.1889C14.9363 25.7985 15.5693 25.7985 15.9597 26.1889L21.4188 31.648Z" fill="#011216"/>
</svg>
