<svg width="24" height="11" viewBox="0 0 24 11" fill="none" xmlns="http://www.w3.org/2000/svg">
<path d="M9.09667 8.77322C9.84038 8.19235 10.6836 7.39644 11.6656 7.61148C12.2941 7.74832 12.6214 8.04434 12.9462 8.4018C12.9462 8.38783 12.9147 8.35991 12.9069 8.35153C12.8755 8.31243 12.8414 8.27333 12.81 8.23424C12.7367 8.14487 12.666 8.05551 12.5979 7.96335C12.3727 7.65057 12.1239 7.36014 11.9039 7.04178C11.7023 6.75413 11.5137 6.45532 11.3199 6.16209C11.189 5.96661 11.0581 5.77391 10.9219 5.58401C10.4924 4.97801 10.0604 4.37759 9.62041 3.77996C9.27474 3.3108 8.92383 2.84163 8.56245 2.38643C8.3032 2.0569 8.03871 1.73295 7.76113 1.42018C7.5752 1.21073 7.38665 1.00407 7.18501 0.811378C7.0567 0.688502 6.92315 0.568418 6.78174 0.459505C6.69532 0.392481 6.60628 0.32825 6.51201 0.272397C6.46487 0.244471 6.39679 0.224922 6.34179 0.205374C5.32574 -0.10461 4.21541 -0.0738909 3.16007 0.367347C0.588504 1.44531 -0.665854 4.56749 0.35544 7.3378C1.37673 10.1081 4.29135 11.4793 6.86291 10.4013C7.48093 10.1416 8.02038 9.76461 8.47342 9.30382C8.67506 9.1223 8.88193 8.94078 9.09405 8.77601L9.09667 8.77322Z" fill="url(#paint0_linear_644_2582)"/>
<path d="M12.7256 4.07062C13.2209 4.75043 13.7058 5.43849 14.1907 6.12656C14.4189 6.44857 14.6445 6.77059 14.8727 7.0926C15.228 7.59076 15.5781 8.10268 15.9852 8.55405C16.4105 9.02469 16.8461 9.44028 17.3466 9.81734C17.6293 10.032 17.8704 10.2027 18.2101 10.2962C19.0814 10.4696 20.0098 10.3926 20.8941 10.0238C23.412 8.9724 24.649 5.95317 23.6584 3.28347C22.5744 0.357821 19.1644 -0.91097 16.6102 0.715615C15.7544 1.26056 14.9998 1.98166 14.1752 2.5789C13.6591 2.95045 13.0316 3.24219 12.3988 3.08806C12.181 3.03577 11.9684 2.94495 11.8154 2.86513L11.8439 2.90366C12.0176 3.15137 12.3262 3.52843 12.7204 4.07337L12.7256 4.07062Z" fill="url(#paint1_linear_644_2582)"/>
<defs>
<linearGradient id="paint0_linear_644_2582" x1="25.192" y1="4.71117" x2="0.0780492" y2="11.0715" gradientUnits="userSpaceOnUse">
<stop stop-color="#D991C6"/>
<stop offset="0.14" stop-color="#C699C5"/>
<stop offset="0.43" stop-color="#95AFC2"/>
<stop offset="0.83" stop-color="#47D1BF"/>
<stop offset="1" stop-color="#26E1BE"/>
</linearGradient>
<linearGradient id="paint1_linear_644_2582" x1="25.192" y1="4.71117" x2="0.0780492" y2="11.0715" gradientUnits="userSpaceOnUse">
<stop stop-color="#D991C6"/>
<stop offset="0.14" stop-color="#C699C5"/>
<stop offset="0.43" stop-color="#95AFC2"/>
<stop offset="0.83" stop-color="#47D1BF"/>
<stop offset="1" stop-color="#26E1BE"/>
</linearGradient>
</defs>
</svg>
