<svg width="25" height="11" viewBox="0 0 25 11" fill="none" xmlns="http://www.w3.org/2000/svg">
<path d="M9.4757 8.77322C10.2504 8.19235 11.1288 7.39644 12.1517 7.61148C12.8064 7.74832 13.1473 8.04434 13.4856 8.4018C13.4856 8.38783 13.4528 8.35991 13.4447 8.35153C13.4119 8.31243 13.3765 8.27333 13.3437 8.23424C13.2674 8.14487 13.1937 8.05551 13.1228 7.96335C12.8882 7.65057 12.629 7.36014 12.3999 7.04178C12.1899 6.75413 11.9935 6.45532 11.7916 6.16209C11.6552 5.96661 11.5188 5.77391 11.377 5.58401C10.9296 4.97801 10.4795 4.37759 10.0213 3.77996C9.66119 3.3108 9.29566 2.84163 8.91922 2.38643C8.64917 2.0569 8.37366 1.73295 8.08451 1.42018C7.89084 1.21073 7.69443 1.00407 7.48439 0.811378C7.35073 0.688502 7.21161 0.568418 7.06431 0.459505C6.97429 0.392481 6.88154 0.32825 6.78334 0.272397C6.73424 0.244471 6.66332 0.224922 6.60603 0.205374C5.54764 -0.10461 4.39105 -0.0738909 3.29174 0.367347C0.613025 1.44531 -0.693598 4.56749 0.37025 7.3378C1.4341 10.1081 4.47016 11.4793 7.14887 10.4013C7.79263 10.1416 8.35456 9.76461 8.82648 9.30382C9.03652 9.1223 9.25202 8.94078 9.47297 8.77601L9.4757 8.77322Z" fill="#6A96A0"/>
<path d="M13.2558 4.07062C13.7717 4.75043 14.2769 5.43849 14.782 6.12656C15.0197 6.44857 15.2547 6.77059 15.4924 7.0926C15.8625 7.59076 16.2272 8.10268 16.6512 8.55405C17.0942 9.02469 17.5481 9.44028 18.0694 9.81734C18.3638 10.032 18.615 10.2027 18.9689 10.2962C19.8765 10.4696 20.8435 10.3926 21.7647 10.0238C24.3875 8.9724 25.676 5.95317 24.6442 3.28347C23.515 0.357822 19.9629 -0.91097 17.3022 0.715615C16.4108 1.26056 15.6248 1.98166 14.7658 2.5789C14.2283 2.95045 13.5746 3.24219 12.9155 3.08806C12.6886 3.03577 12.4671 2.94495 12.3077 2.86513L12.3374 2.90366C12.5184 3.15137 12.8398 3.52843 13.2504 4.07337L13.2558 4.07062Z" fill="#6A96A0"/>
</svg>
