<svg width="24" height="21" viewBox="0 0 24 21" fill="none" xmlns="http://www.w3.org/2000/svg">
<path d="M3.6654 7.78291C3.80635 7.74097 3.94799 7.70106 4.09032 7.6625C3.86109 7.37161 3.64487 7.08546 3.44302 6.80608C2.00748 4.81722 1.43681 3.30799 1.91647 2.76951C2.06153 2.60648 2.30854 2.52666 2.64314 2.52666C3.41223 2.52666 4.6425 2.94946 6.16016 3.75447C6.47012 3.91885 6.78898 4.09745 7.114 4.28754C7.22895 4.19554 7.34595 4.10692 7.46638 4.02236C7.08594 3.79709 6.7144 3.58738 6.3538 3.39661C4.63634 2.48607 2.41871 1.59176 1.60788 2.50163C0.797046 3.41217 1.97668 5.47341 3.10843 7.04217C3.28359 7.28502 3.46971 7.53194 3.6654 7.78291Z" fill="url(#paint0_linear_644_2616)"/>
<path d="M21.4571 17.623C22.2399 18.9557 22.4903 19.9393 22.1229 20.3519C21.6433 20.8904 20.0572 20.5224 17.8792 19.3677C17.7903 19.3203 17.7006 19.2716 17.6103 19.2222C17.4208 19.2743 17.2306 19.323 17.039 19.3697C17.2579 19.4942 17.4735 19.6125 17.6856 19.7248C18.896 20.3668 20.3541 21 21.3942 21C21.8301 21 22.1927 20.8884 22.4322 20.6198C23.0268 19.9515 22.5506 18.6648 21.8075 17.4072C21.6925 17.4816 21.5755 17.5533 21.4571 17.623Z" fill="url(#paint1_linear_644_2616)"/>
<path d="M8.08836 19.5577C8.02952 19.5834 7.97067 19.6092 7.91251 19.6342C5.49165 20.6624 3.63803 20.7138 2.6924 19.7783C2.17512 19.2669 1.95684 18.4862 2.03484 17.4931C1.89594 17.4133 1.76867 17.3362 1.64825 17.2584C1.51277 18.472 1.7632 19.4333 2.40228 20.0651C2.92915 20.586 3.68251 20.8458 4.61855 20.8458C5.5546 20.8458 6.75819 20.5657 8.07468 20.0069C8.32442 19.9007 8.57691 19.7857 8.83145 19.6619C8.58239 19.6308 8.33537 19.597 8.08836 19.5577Z" fill="url(#paint2_linear_644_2616)"/>
<path d="M13.6355 2.78169C14.4833 2.2608 15.3195 1.82244 16.1276 1.47946C17.3982 0.939632 18.5121 0.66904 19.4215 0.66904C20.244 0.66904 20.8981 0.890925 21.3477 1.3347C22.2933 2.26959 22.242 4.10286 21.2012 6.49557C21.0055 6.94543 20.7791 7.40476 20.5245 7.8695C20.6552 7.91415 20.7852 7.96083 20.9145 8.00886C21.1629 7.55156 21.3853 7.09899 21.5782 6.65522C22.6895 4.09947 22.71 2.10724 21.6378 1.04719C20.5649 -0.0135297 18.5505 0.00744128 15.9654 1.10605C15.03 1.50314 14.0577 2.02538 13.0751 2.65181C13.264 2.68766 13.4508 2.73163 13.6355 2.78169Z" fill="url(#paint3_linear_644_2616)"/>
<path d="M11.7128 17.1569C9.1551 17.1501 6.6576 16.7896 4.26275 15.8655C3.18164 15.4481 2.16006 14.9238 1.27602 14.1662C0.993424 13.924 0.737516 13.6582 0.519242 13.3571C-0.234796 12.316 -0.167056 11.2519 0.719042 10.315C1.37455 9.62159 2.19291 9.1697 3.05711 8.79019C3.83715 8.4479 4.64729 8.19016 5.47523 7.98924C5.59018 7.96151 5.64971 7.90942 5.69829 7.79847C6.68497 5.53835 8.40585 4.18809 10.8691 3.82144C13.7259 3.39593 16.6284 5.07834 17.7013 7.74233C17.7595 7.88709 17.8361 7.96421 17.9976 8.0048C19.3243 8.33763 20.6053 8.78343 21.7589 9.53365C22.1667 9.79883 22.5382 10.1066 22.8503 10.4821C23.5612 11.3385 23.6146 12.3065 22.9919 13.2306C22.4685 14.0086 21.7343 14.5552 20.9337 15.0206C19.5105 15.8479 17.9627 16.3499 16.3575 16.6915C14.9773 16.9851 13.5808 17.1414 12.1685 17.1576C12.0173 17.1596 11.8661 17.1576 11.7142 17.1576L11.7128 17.1569ZM11.6054 12.3539C12.8801 12.3478 14.0509 12.2335 15.1915 11.8986C15.8361 11.7099 16.4574 11.4697 16.9719 11.0233C17.2415 10.7892 17.4317 10.5078 17.431 10.1357C17.431 9.811 17.4023 9.48697 17.34 9.16835C16.742 6.0863 13.9031 4.10759 10.7733 4.58789C8.11436 4.99581 6.05068 7.33508 5.98773 9.99365C5.97746 10.4259 6.13895 10.754 6.45301 11.0287C6.80745 11.3392 7.22416 11.5455 7.66276 11.7092C8.96214 12.1942 10.319 12.3377 11.6054 12.3539ZM12.549 14.5626C12.551 14.0952 12.1877 13.7312 11.7169 13.7292C11.2427 13.7272 10.8746 14.0843 10.8719 14.5498C10.8691 15.0138 11.2373 15.3839 11.7039 15.3866C12.1719 15.3893 12.5469 15.0246 12.549 14.5626ZM4.26069 12.9966C4.72598 12.9952 5.103 12.6204 5.09958 12.1638C5.09616 11.7072 4.71298 11.3338 4.25043 11.3365C3.78583 11.3392 3.41428 11.7119 3.41565 12.1733C3.41702 12.636 3.78925 12.9979 4.26069 12.9966ZM20.0045 12.1638C20.0024 11.7038 19.6247 11.3331 19.1601 11.3365C18.6976 11.3392 18.3158 11.7207 18.3212 12.174C18.3267 12.6353 18.7024 12.9999 19.1697 12.9972C19.6405 12.9945 20.0065 12.6285 20.0045 12.1638ZM8.27379 13.7312C8.27379 13.2617 7.91251 12.9005 7.44175 12.8985C6.97509 12.8964 6.59876 13.2651 6.59602 13.7251C6.59329 14.1804 6.97236 14.5572 7.43628 14.5585C7.90635 14.5606 8.27447 14.196 8.27379 13.7312ZM15.147 13.7231C15.1436 14.1892 15.509 14.5572 15.977 14.5585C16.4444 14.5606 16.8193 14.1932 16.8214 13.7332C16.8234 13.2699 16.4546 12.9005 15.9866 12.8985C15.5152 12.8964 15.1505 13.255 15.147 13.7231Z" fill="url(#paint4_linear_644_2616)"/>
<path d="M1.32802 15.2066C1.39165 15.1769 1.42381 15.2127 1.45939 15.2364C2.91342 16.2254 4.53439 16.8322 6.232 17.255C8.74797 17.8807 11.3016 18.0451 13.8805 17.8097C16.1118 17.6054 18.274 17.115 20.3144 16.1706C20.9145 15.8926 21.4893 15.5692 22.0641 15.1667C22.0374 15.2891 21.969 15.3433 21.9163 15.4028C21.3087 16.0881 20.5669 16.6015 19.7636 17.0331C18.2569 17.8429 16.6387 18.3218 14.9554 18.6053C13.4303 18.8623 11.8941 18.9361 10.3518 18.8244C7.89609 18.6465 5.54297 18.0992 3.38349 16.8809C2.63287 16.4574 2.29828 16.1801 1.32802 15.2066Z" fill="url(#paint5_linear_644_2616)"/>
<path d="M16.3458 2.14715C16.9456 2.14715 17.4317 1.66649 17.4317 1.07358C17.4317 0.480656 16.9456 0 16.3458 0C15.7461 0 15.2599 0.480656 15.2599 1.07358C15.2599 1.66649 15.7461 2.14715 16.3458 2.14715Z" fill="url(#paint6_linear_644_2616)"/>
<path d="M2.00611 20.7964C2.60583 20.7964 3.092 20.3157 3.092 19.7228C3.092 19.1299 2.60583 18.6492 2.00611 18.6492C1.40638 18.6492 0.92021 19.1299 0.92021 19.7228C0.92021 20.3157 1.40638 20.7964 2.00611 20.7964Z" fill="url(#paint7_linear_644_2616)"/>
<defs>
<linearGradient id="paint0_linear_644_2616" x1="24.5873" y1="9.18677" x2="-1.0835" y2="12.4408" gradientUnits="userSpaceOnUse">
<stop stop-color="#D991C6"/>
<stop offset="0.14" stop-color="#C699C5"/>
<stop offset="0.43" stop-color="#95AFC2"/>
<stop offset="0.83" stop-color="#47D1BF"/>
<stop offset="1" stop-color="#26E1BE"/>
</linearGradient>
<linearGradient id="paint1_linear_644_2616" x1="24.5873" y1="9.18677" x2="-1.0835" y2="12.4408" gradientUnits="userSpaceOnUse">
<stop stop-color="#D991C6"/>
<stop offset="0.14" stop-color="#C699C5"/>
<stop offset="0.43" stop-color="#95AFC2"/>
<stop offset="0.83" stop-color="#47D1BF"/>
<stop offset="1" stop-color="#26E1BE"/>
</linearGradient>
<linearGradient id="paint2_linear_644_2616" x1="24.5873" y1="9.18677" x2="-1.0835" y2="12.4408" gradientUnits="userSpaceOnUse">
<stop stop-color="#D991C6"/>
<stop offset="0.14" stop-color="#C699C5"/>
<stop offset="0.43" stop-color="#95AFC2"/>
<stop offset="0.83" stop-color="#47D1BF"/>
<stop offset="1" stop-color="#26E1BE"/>
</linearGradient>
<linearGradient id="paint3_linear_644_2616" x1="24.5873" y1="9.18677" x2="-1.0835" y2="12.4408" gradientUnits="userSpaceOnUse">
<stop stop-color="#D991C6"/>
<stop offset="0.14" stop-color="#C699C5"/>
<stop offset="0.43" stop-color="#95AFC2"/>
<stop offset="0.83" stop-color="#47D1BF"/>
<stop offset="1" stop-color="#26E1BE"/>
</linearGradient>
<linearGradient id="paint4_linear_644_2616" x1="24.5873" y1="9.18677" x2="-1.0835" y2="12.4408" gradientUnits="userSpaceOnUse">
<stop stop-color="#D991C6"/>
<stop offset="0.14" stop-color="#C699C5"/>
<stop offset="0.43" stop-color="#95AFC2"/>
<stop offset="0.83" stop-color="#47D1BF"/>
<stop offset="1" stop-color="#26E1BE"/>
</linearGradient>
<linearGradient id="paint5_linear_644_2616" x1="24.5873" y1="9.18677" x2="-1.0835" y2="12.4408" gradientUnits="userSpaceOnUse">
<stop stop-color="#D991C6"/>
<stop offset="0.14" stop-color="#C699C5"/>
<stop offset="0.43" stop-color="#95AFC2"/>
<stop offset="0.83" stop-color="#47D1BF"/>
<stop offset="1" stop-color="#26E1BE"/>
</linearGradient>
<linearGradient id="paint6_linear_644_2616" x1="24.5873" y1="9.18677" x2="-1.0835" y2="12.4408" gradientUnits="userSpaceOnUse">
<stop stop-color="#D991C6"/>
<stop offset="0.14" stop-color="#C699C5"/>
<stop offset="0.43" stop-color="#95AFC2"/>
<stop offset="0.83" stop-color="#47D1BF"/>
<stop offset="1" stop-color="#26E1BE"/>
</linearGradient>
<linearGradient id="paint7_linear_644_2616" x1="24.5873" y1="9.18677" x2="-1.0835" y2="12.4408" gradientUnits="userSpaceOnUse">
<stop stop-color="#D991C6"/>
<stop offset="0.14" stop-color="#C699C5"/>
<stop offset="0.43" stop-color="#95AFC2"/>
<stop offset="0.83" stop-color="#47D1BF"/>
<stop offset="1" stop-color="#26E1BE"/>
</linearGradient>
</defs>
</svg>
