<svg width="40" height="40" viewBox="0 0 40 40" fill="none" xmlns="http://www.w3.org/2000/svg">
<path d="M0.5 19.5122C0.5 9.01205 9.01205 0.5 19.5122 0.5C30.0123 0.5 38.5244 9.01205 38.5244 19.5122V20.4878C38.5244 30.9879 30.0123 39.5 19.5122 39.5C9.01205 39.5 0.5 30.9879 0.5 20.4878V19.5122Z" fill="url(#paint0_linear_804_732)" stroke="url(#paint1_linear_804_732)"/>
<path d="M17.0967 23.7732C17.8404 23.1923 18.6836 22.3964 19.6656 22.6115C20.2941 22.7483 20.6214 23.0443 20.9462 23.4018C20.9462 23.3878 20.9147 23.3599 20.9069 23.3515C20.8755 23.3124 20.8414 23.2733 20.81 23.2342C20.7367 23.1449 20.666 23.0555 20.5979 22.9633C20.3727 22.6506 20.1239 22.3601 19.9039 22.0418C19.7023 21.7541 19.5137 21.4553 19.3199 21.1621C19.189 20.9666 19.0581 20.7739 18.9219 20.584C18.4924 19.978 18.0604 19.3776 17.6204 18.78C17.2747 18.3108 16.9238 17.8416 16.5625 17.3864C16.3032 17.0569 16.0387 16.733 15.7611 16.4202C15.5752 16.2107 15.3867 16.0041 15.185 15.8114C15.0567 15.6885 14.9231 15.5684 14.7817 15.4595C14.6953 15.3925 14.6063 15.3283 14.512 15.2724C14.4649 15.2445 14.3968 15.2249 14.3418 15.2054C13.3257 14.8954 12.2154 14.9261 11.1601 15.3673C8.5885 16.4453 7.33415 19.5675 8.35544 22.3378C9.37673 25.1081 12.2913 26.4793 14.8629 25.4013C15.4809 25.1416 16.0204 24.7646 16.4734 24.3038C16.6751 24.1223 16.8819 23.9408 17.094 23.776L17.0967 23.7732Z" fill="url(#paint2_linear_804_732)"/>
<path d="M20.7256 19.0706C21.2209 19.7504 21.7058 20.4385 22.1907 21.1266C22.4189 21.4486 22.6445 21.7706 22.8727 22.0926C23.228 22.5908 23.5781 23.1027 23.9852 23.5541C24.4105 24.0247 24.8461 24.4403 25.3466 24.8173C25.6293 25.032 25.8704 25.2027 26.2101 25.2962C27.0814 25.4696 28.0098 25.3926 28.8941 25.0238C31.412 23.9724 32.649 20.9532 31.6584 18.2835C30.5744 15.3578 27.1644 14.089 24.6102 15.7156C23.7544 16.2606 22.9998 16.9817 22.1752 17.5789C21.6591 17.9505 21.0316 18.2422 20.3988 18.0881C20.181 18.0358 19.9684 17.9449 19.8154 17.8651L19.8439 17.9037C20.0176 18.1514 20.3262 18.5284 20.7204 19.0734L20.7256 19.0706Z" fill="url(#paint3_linear_804_732)"/>
<defs>
<linearGradient id="paint0_linear_804_732" x1="7.94567e-07" y1="-14.1852" x2="52.1425" y2="7.27592" gradientUnits="userSpaceOnUse">
<stop offset="0.189667" stop-color="#0A2230"/>
<stop offset="0.677083" stop-color="#000911"/>
</linearGradient>
<linearGradient id="paint1_linear_804_732" x1="0" y1="19.9987" x2="39.0244" y2="19.9987" gradientUnits="userSpaceOnUse">
<stop stop-color="#26E1BE"/>
<stop offset="0.14" stop-color="#000911" stop-opacity="0.5"/>
<stop offset="0.239573" stop-color="#0C4F48" stop-opacity="0.87"/>
<stop offset="0.744802" stop-color="#106359" stop-opacity="0.96"/>
<stop offset="0.817721" stop-color="#011117" stop-opacity="0.6"/>
<stop offset="0.947935" stop-color="#26E1BE"/>
</linearGradient>
<linearGradient id="paint2_linear_804_732" x1="33.192" y1="19.7112" x2="8.07805" y2="26.0715" gradientUnits="userSpaceOnUse">
<stop stop-color="#D991C6"/>
<stop offset="0.14" stop-color="#C699C5"/>
<stop offset="0.43" stop-color="#95AFC2"/>
<stop offset="0.83" stop-color="#47D1BF"/>
<stop offset="1" stop-color="#26E1BE"/>
</linearGradient>
<linearGradient id="paint3_linear_804_732" x1="33.192" y1="19.7112" x2="8.07805" y2="26.0715" gradientUnits="userSpaceOnUse">
<stop stop-color="#D991C6"/>
<stop offset="0.14" stop-color="#C699C5"/>
<stop offset="0.43" stop-color="#95AFC2"/>
<stop offset="0.83" stop-color="#47D1BF"/>
<stop offset="1" stop-color="#26E1BE"/>
</linearGradient>
</defs>
</svg>
