<svg width="32" height="26" viewBox="0 0 32 26" fill="none" xmlns="http://www.w3.org/2000/svg">
<path d="M0.00193353 23.1816C3.40689 23.2705 6.48507 22.4446 9.37184 20.3336C6.36906 19.9651 4.33305 18.5874 3.24834 15.9057L5.85474 15.7772C2.81136 14.5791 1.04798 12.5551 0.83142 9.29697C1.75565 9.53698 2.59674 9.75431 3.43782 9.97354C0.875891 7.41469 0.160483 4.64229 1.74792 1.26137C5.4313 5.35287 9.90743 7.70195 15.4876 8.04968C15.4876 7.25972 15.418 6.53969 15.5011 5.83856C15.8008 3.30807 17.1891 1.51272 19.579 0.543228C21.9785 -0.43004 24.2794 -0.0898685 26.2787 1.51839C26.9071 2.02486 27.433 2.07778 28.0904 1.83777C29.0823 1.47681 30.0645 1.0875 31.1125 0.684966C30.7084 2.06077 29.7803 3.03971 28.7188 4.08668C29.7648 3.82777 30.8109 3.56886 31.8569 3.30996L32 3.42713C31.1454 4.27755 30.2618 5.10153 29.4535 5.98975C29.15 6.32425 28.8541 6.80049 28.8329 7.22571C28.452 14.804 25.1862 20.7248 18.1018 24.1001C12.0169 26.9991 5.88761 26.4926 0 23.1797L0.00193353 23.1816Z" fill="#6A96A0"/>
</svg>
