<svg width="15" height="15" viewBox="0 0 15 15" fill="none" xmlns="http://www.w3.org/2000/svg">
<path d="M0.00470238 8.48184C0.00470238 6.99543 0.0143813 5.50857 7.33334e-05 4.02216C-0.00581819 3.41278 0.343886 2.96088 0.829936 2.71909C1.57732 2.34749 2.34237 2.01559 3.08513 1.63462C4.08037 1.12428 5.09161 0.652302 6.10537 0.186571C6.3949 0.0536324 6.7143 -0.0574471 7.04465 0.0326656C7.40487 0.131254 7.51597 0.286498 7.51934 0.680852C7.52354 1.20101 7.52018 1.72161 7.5206 2.24176C7.5206 2.44221 7.61865 2.54273 7.81475 2.54333C8.85966 2.54333 9.90456 2.53664 10.949 2.5469C11.3518 2.55091 11.7436 2.62854 12.0571 2.93545C12.3239 3.19687 12.5006 3.4962 12.493 3.90483C12.4808 4.55882 12.4947 5.21325 12.4863 5.86679C12.4842 6.04791 12.5326 6.12241 12.711 6.1117C12.9278 6.09877 13.1457 6.1059 13.3629 6.11081C13.8548 6.12196 14.1662 6.44896 14.1641 6.96733C14.1608 7.91797 14.1835 8.86906 14.1359 9.8197C14.1183 10.1775 13.9672 10.3724 13.644 10.4786C13.3414 10.5781 13.0338 10.5696 12.7266 10.5571C12.5444 10.55 12.4834 10.6053 12.4855 10.806C12.4951 11.6532 12.5031 12.5012 12.4846 13.3479C12.4728 13.8966 12.2839 14.3878 11.8547 14.7197C11.5879 14.9262 11.2727 15.0395 10.9263 14.9874C10.8573 14.9771 10.7862 14.9811 10.7163 14.9811C7.75037 14.9811 4.78399 14.9802 1.81803 14.9824C1.57395 14.9824 1.32903 15.0137 1.09253 14.9191C0.514319 14.6871 0.20796 14.2276 0.0838171 13.6013C0.0169062 13.2645 0.0013358 12.9273 0.00217745 12.5851C0.00638568 11.2173 0.00386074 9.84959 0.00386074 8.48229L0.00470238 8.48184ZM6.26486 14.0907C7.81391 14.0907 9.36338 14.0795 10.9124 14.0974C11.4065 14.1032 11.5815 13.7343 11.6203 13.3693C11.6472 13.1164 11.6198 12.8666 11.6194 12.6159C11.619 12.0065 11.6144 11.3971 11.6219 10.7877C11.624 10.6115 11.5681 10.5567 11.4031 10.5585C10.7513 10.5665 10.0994 10.5585 9.44755 10.5638C9.2708 10.5651 9.097 10.5406 8.92657 10.5049C8.51753 10.4193 8.32984 10.1668 8.32942 9.72201C8.32858 8.7785 8.33068 7.83455 8.32816 6.89104C8.32816 6.75364 8.34878 6.6274 8.41358 6.50695C8.58654 6.18709 8.87565 6.11527 9.18579 6.11259C9.9357 6.10501 10.686 6.11081 11.4359 6.10724C11.5214 6.10724 11.6333 6.15542 11.6291 5.96716C11.6156 5.37296 11.5992 4.77741 11.6245 4.18454C11.6518 3.54394 11.4128 3.54171 10.9709 3.47122C10.9162 3.4623 10.859 3.46899 10.803 3.46899C7.82359 3.46899 4.84459 3.46899 1.86516 3.46721C1.6821 3.46721 1.50199 3.48059 1.32188 3.51226C1.00963 3.56713 0.877068 3.72952 0.877068 4.06855C0.877068 6.98874 0.876647 9.90893 0.876647 12.8296C0.876647 12.9487 0.863602 13.0696 0.880014 13.186C0.970912 13.8293 1.16617 14.105 1.76374 14.0974C3.26355 14.0786 4.76379 14.0911 6.26402 14.0911L6.26486 14.0907ZM11.2398 7.00212C10.6301 7.00212 10.0199 7.00792 9.41009 6.99855C9.22409 6.99588 9.16728 7.06547 9.16938 7.25819C9.17738 7.9715 9.17948 8.68527 9.16854 9.39858C9.16517 9.6203 9.24429 9.67517 9.43913 9.67428C10.6452 9.66714 11.8509 9.66669 13.0569 9.67428C13.2383 9.67517 13.3027 9.62208 13.3002 9.42312C13.2905 8.69508 13.2905 7.9666 13.2993 7.23811C13.3019 7.04807 13.2392 6.99722 13.0691 6.99945C12.4594 7.00748 11.8492 7.00257 11.2394 7.00257L11.2398 7.00212Z" fill="url(#paint0_linear_348_8844)"/>
<path d="M10.7542 9.00423C10.3679 9.0078 10.0973 8.74594 10.0939 8.36497C10.0906 7.98533 10.3927 7.66682 10.75 7.67306C11.0648 7.67841 11.3467 8.00318 11.345 8.35872C11.3434 8.72274 11.0883 9.00111 10.7542 9.00423Z" fill="url(#paint1_linear_348_8844)"/>
<defs>
<linearGradient id="paint0_linear_348_8844" x1="14.8703" y1="6.56198" x2="-0.725109" y2="8.23581" gradientUnits="userSpaceOnUse">
<stop stop-color="#D991C6"/>
<stop offset="0.14" stop-color="#C699C5"/>
<stop offset="0.43" stop-color="#95AFC2"/>
<stop offset="0.83" stop-color="#47D1BF"/>
<stop offset="1" stop-color="#26E1BE"/>
</linearGradient>
<linearGradient id="paint1_linear_348_8844" x1="14.8703" y1="6.56198" x2="-0.725109" y2="8.23581" gradientUnits="userSpaceOnUse">
<stop stop-color="#D991C6"/>
<stop offset="0.14" stop-color="#C699C5"/>
<stop offset="0.43" stop-color="#95AFC2"/>
<stop offset="0.83" stop-color="#47D1BF"/>
<stop offset="1" stop-color="#26E1BE"/>
</linearGradient>
</defs>
</svg>
