<svg width="31" height="26" viewBox="0 0 31 26" fill="none" xmlns="http://www.w3.org/2000/svg">
<path d="M16.2901 15.4846C17.5982 13.1891 18.8444 11.0021 20.0906 8.808C21.6673 6.03307 23.2508 3.26163 24.8069 0.4762C25.0134 0.108775 25.2372 -0.00670159 25.64 0.000296985C26.9481 0.024792 28.2563 0.0107948 29.5644 0.0107948H30.1015C29.6367 0.843625 29.2167 1.59947 28.7899 2.35182C26.3973 6.55796 23.9979 10.7641 21.6156 14.9772C21.4091 15.3412 21.1957 15.5091 20.7585 15.4951C19.4675 15.4601 18.1731 15.4846 16.8787 15.4846H16.2901Z" fill="#6A96A0"/>
<path d="M6.29639 15.3937L12.4895 4.50738C12.5583 4.58086 12.6203 4.62635 12.6547 4.68934C13.4052 5.99807 14.1626 7.30681 14.8958 8.62954C14.9647 8.75551 14.9543 8.99346 14.8821 9.12294C13.7391 11.1595 12.5824 13.1891 11.4154 15.2117C11.3431 15.3342 11.1676 15.4741 11.0402 15.4741C9.50138 15.4881 7.95913 15.4776 6.42032 15.4741C6.39622 15.4741 6.36868 15.4426 6.29639 15.3972V15.3937Z" fill="#6A96A0"/>
<path d="M6.21032 11.0196C4.12759 7.3418 2.08617 3.73054 0 0.0422884C1.03276 0.0422884 1.97945 0.0422884 2.92615 0.0422884C3.51138 0.0422884 4.09661 0.024792 4.68184 0.0527863C4.83331 0.0597849 5.03986 0.171762 5.11216 0.297736C6.27573 2.32032 7.42209 4.35691 8.56501 6.39349C8.63042 6.50897 8.66829 6.71193 8.61321 6.81341C7.83864 8.19563 7.04342 9.57085 6.21377 11.0196H6.21032Z" fill="#6A96A0"/>
<path d="M17.5431 8.87099L12.5411 0.0107948C13.3846 0.0107948 14.1488 0.0107948 14.9165 0.0107948C15.6566 0.0107948 16.3933 0.024792 17.1335 0.00379627C17.4295 -0.0032023 17.6051 0.0842799 17.7566 0.357224C18.4588 1.62397 19.1852 2.87321 19.8909 4.13645C19.9632 4.26593 20.0252 4.48988 19.9632 4.59836C19.1887 5.99808 18.39 7.38379 17.5466 8.86749L17.5431 8.87099Z" fill="#6A96A0"/>
<path d="M5.07429 22.2068C4.88495 22.8226 4.74036 23.309 4.58889 23.7955C4.40644 24.3938 4.21366 24.9852 4.04497 25.5871C3.97612 25.8355 3.8694 25.937 3.60089 25.9405C2.52337 25.958 2.51993 25.972 2.20666 24.9292C1.67651 23.1691 1.1498 21.4054 0.602443 19.5788C1.04309 19.5788 1.43898 19.5508 1.82798 19.5963C1.94847 19.6103 2.09994 19.8133 2.1447 19.9567C2.52337 21.2095 2.8814 22.4692 3.33237 23.75L4.59233 19.6208C4.6543 19.5998 4.68184 19.5858 4.71282 19.5823C5.58723 19.5193 5.59067 19.5193 5.84197 20.3626C6.14836 21.3774 6.44442 22.3957 6.7508 23.414C6.78523 23.5295 6.83342 23.638 6.91604 23.8584C7.2362 22.7772 7.52537 21.8009 7.81454 20.8281C7.82831 20.7826 7.83175 20.7371 7.84552 20.6916C8.08191 19.8844 8.64075 19.524 9.52204 19.6103C9.48073 19.7748 9.44974 19.9357 9.40499 20.0897C8.86107 21.8953 8.30338 23.701 7.77323 25.5136C7.67684 25.8495 7.52193 25.944 7.19489 25.9405C6.20688 25.9265 6.20344 25.9405 5.90738 24.9747C5.63886 24.0999 5.38067 23.2251 5.07429 22.2068Z" fill="#6A96A0"/>
<path d="M21.9461 25.9265C21.5778 25.9265 21.237 25.965 20.9099 25.9125C20.7447 25.8845 20.5691 25.7236 20.459 25.5766C19.6155 24.4428 18.7893 23.295 17.9562 22.1508C17.8839 22.0528 17.8082 21.9548 17.6671 21.7624V25.888H16.3727V19.5788C16.7514 19.5788 17.1163 19.5508 17.4777 19.5928C17.612 19.6068 17.76 19.7608 17.853 19.8867C18.6826 21.0135 19.5019 22.1473 20.3281 23.2776C20.4176 23.4 20.5106 23.5155 20.6758 23.729V19.6068H21.9496V25.9335L21.9461 25.9265Z" fill="#6A96A0"/>
<path d="M23.3472 19.4948C24.4557 19.5823 25.5264 19.5683 26.5591 19.7678C28.0945 20.0652 28.8897 21.171 28.8897 22.7492C28.8897 24.3063 28.0704 25.4366 26.5453 25.7271C25.516 25.923 24.4454 25.916 23.3472 26V19.4913V19.4948ZM24.7862 20.7231C24.7174 20.8735 24.6967 20.9015 24.6967 20.9295C24.6898 21.8183 24.6829 22.7107 24.6829 23.5995C24.6829 24.444 25.1018 24.7881 25.9395 24.6318C26.8655 24.4603 27.3991 23.9179 27.5024 23.0396C27.6056 22.1543 27.2407 21.3005 26.5281 21.0555C25.967 20.8595 25.3508 20.8246 24.7897 20.7266L24.7862 20.7231Z" fill="#6A96A0"/>
<path d="M15.5568 25.9265C15.0783 25.9265 14.6824 25.951 14.2934 25.909C14.1798 25.8985 14.0386 25.7131 13.9836 25.5766C13.5773 24.5968 13.5842 24.5933 12.5274 24.5933C12.4344 24.5933 12.3415 24.6073 12.252 24.5933C11.4154 24.4533 10.8336 24.6773 10.6718 25.6291C10.6512 25.7515 10.4068 25.895 10.2519 25.916C9.92481 25.9615 9.58745 25.93 9.1709 25.93C9.41532 25.3211 9.62876 24.7927 9.84219 24.2644C10.4137 22.8331 10.9886 21.4019 11.5462 19.9637C11.6564 19.6733 11.7975 19.5613 12.1143 19.5683C13.0403 19.5858 13.0369 19.5683 13.3811 20.4396C14.0386 22.0913 14.6996 23.7395 15.3571 25.3876C15.4156 25.5311 15.4638 25.6781 15.5568 25.93V25.9265ZM12.4103 21.3249L12.307 21.3145L11.529 23.47H13.1746L12.4103 21.3249Z" fill="#6A96A0"/>
<path d="M30.1325 19.5963C30.5869 19.5858 31.0034 19.9952 31 20.4536C31 20.8945 30.6075 21.297 30.1738 21.311C29.7159 21.325 29.3166 20.9225 29.3131 20.4501C29.3097 20.0092 29.6987 19.6033 30.1359 19.5963H30.1325Z" fill="#6A96A0"/>
</svg>
