<svg width="72" height="59" viewBox="0 0 72 59" fill="none" xmlns="http://www.w3.org/2000/svg">
<g opacity="0.92">
<path d="M22.4659 23.8562C18.62 23.2138 14.9232 24.582 12.5041 27.1643C7.54917 30.3182 0 48.3361 0 48.3361C0 48.3361 20.7667 47.7579 25.4104 43.8653L25.4233 43.8525C28.5364 42.4329 30.8971 39.6258 31.5068 36.0929C32.4861 30.331 28.4391 24.8582 22.4659 23.8498V23.8562Z" fill="url(#paint0_linear_321_6439)"/>
<path d="M41.2805 58.556C37.8755 57.9779 38.5046 54.3101 38.4009 51.7664C38.2647 48.4326 38.2323 45.0924 38.1674 41.7522C38.1415 40.2491 37.8301 38.9965 37.8691 37.4934C37.9404 34.5193 36.7146 30.9864 35.3202 28.3977C33.3616 24.7621 29.9632 22.3083 26.6426 19.9701C23.7436 17.9275 20.7472 16.0133 17.6731 14.234C15.5069 12.9814 13.211 12.0114 10.8827 11.08C9.98123 10.7203 8.8722 10.5726 8.35336 9.65403C7.75669 8.62627 7.87343 7.18099 8.39876 6.15323C9.0538 4.85569 10.3574 4.00779 11.8102 3.93071L67.7155 0.00596181C69.1488 -0.0711199 70.5173 0.603345 71.315 1.79169C72.1192 2.98003 72.2165 4.48955 71.6004 5.77425L45.6258 56.327C44.9902 57.631 43.6996 58.4917 42.2468 58.5945C41.916 58.6202 41.5982 58.6009 41.2869 58.5496L41.2805 58.556Z" fill="url(#paint1_linear_321_6439)"/>
</g>
<defs>
<linearGradient id="paint0_linear_321_6439" x1="10.3769" y1="53.3464" x2="24.4184" y2="24.2893" gradientUnits="userSpaceOnUse">
<stop stop-color="#FCFDFF" stop-opacity="0"/>
<stop offset="0.01" stop-color="#FCFDFF" stop-opacity="0.04"/>
<stop offset="0.09" stop-color="#FCFDFF" stop-opacity="0.24"/>
<stop offset="0.17" stop-color="#FCFDFF" stop-opacity="0.42"/>
<stop offset="0.26" stop-color="#FCFDFF" stop-opacity="0.58"/>
<stop offset="0.34" stop-color="#FCFDFF" stop-opacity="0.71"/>
<stop offset="0.44" stop-color="#FCFDFF" stop-opacity="0.81"/>
<stop offset="0.54" stop-color="#FCFDFF" stop-opacity="0.9"/>
<stop offset="0.66" stop-color="#FCFDFF" stop-opacity="0.96"/>
<stop offset="0.79" stop-color="#FCFDFF" stop-opacity="0.99"/>
<stop offset="1" stop-color="#FCFDFF"/>
</linearGradient>
<linearGradient id="paint1_linear_321_6439" x1="19.1453" y1="40.3032" x2="60.2792" y2="-7.83499" gradientUnits="userSpaceOnUse">
<stop stop-color="#FCFDFF" stop-opacity="0"/>
<stop offset="0.08" stop-color="#FCFDFF" stop-opacity="0.2"/>
<stop offset="0.17" stop-color="#FCFDFF" stop-opacity="0.39"/>
<stop offset="0.26" stop-color="#FCFDFF" stop-opacity="0.55"/>
<stop offset="0.36" stop-color="#FCFDFF" stop-opacity="0.69"/>
<stop offset="0.46" stop-color="#FCFDFF" stop-opacity="0.8"/>
<stop offset="0.57" stop-color="#FCFDFF" stop-opacity="0.89"/>
<stop offset="0.68" stop-color="#FCFDFF" stop-opacity="0.95"/>
<stop offset="0.82" stop-color="#FCFDFF" stop-opacity="0.99"/>
<stop offset="1" stop-color="#FCFDFF"/>
</linearGradient>
</defs>
</svg>
